<svg width="440" height="325" viewBox="0 0 440 325" fill="none" xmlns="http://www.w3.org/2000/svg">
<path d="M221.331 118.08C221.478 117.728 221.331 117.332 220.979 117.185C220.626 117.038 220.23 117.185 220.083 117.537C219.937 117.89 220.083 118.286 220.436 118.433C220.788 118.58 221.184 118.433 221.331 118.08Z" fill="#A4F1FF"/>
<path d="M279.875 221.722C280.022 221.37 279.875 220.973 279.523 220.827C279.171 220.68 278.774 220.827 278.628 221.179C278.481 221.531 278.628 221.928 278.98 222.075C279.332 222.221 279.729 222.075 279.875 221.722Z" fill="#A4F1FF"/>
<path d="M431.463 150.435C431.698 149.907 431.448 149.29 430.905 149.055C430.376 148.821 429.76 149.07 429.525 149.613C429.29 150.142 429.54 150.758 430.083 150.993C430.611 151.228 431.228 150.978 431.463 150.435Z" fill="#A4F1FF"/>
<path d="M384.222 71.6471C384.457 71.1186 384.207 70.5021 383.664 70.2672C383.136 70.0323 382.519 70.2819 382.284 70.825C382.049 71.3535 382.299 71.9701 382.842 72.205C383.37 72.4398 383.987 72.1903 384.222 71.6471Z" fill="#A4F1FF"/>
<path d="M150.822 140.673C150.969 140.321 150.822 139.924 150.47 139.778C150.118 139.631 149.721 139.778 149.575 140.13C149.428 140.482 149.575 140.879 149.927 141.025C150.279 141.172 150.676 141.025 150.822 140.673Z" fill="#A4F1FF"/>
<path d="M286.951 273.734C287.098 273.382 286.951 272.985 286.599 272.838C286.247 272.692 285.85 272.838 285.704 273.191C285.557 273.543 285.704 273.939 286.056 274.086C286.408 274.233 286.805 274.086 286.951 273.734Z" fill="#A4F1FF"/>
<path d="M121.844 56.2623C122.137 55.9247 122.108 55.3962 121.77 55.1026C121.433 54.809 120.904 54.8383 120.611 55.176C120.317 55.5136 120.346 56.0421 120.684 56.3357C121.022 56.6293 121.55 56.6 121.844 56.2623Z" fill="#A4F1FF"/>
<path d="M309.94 250.319C310.087 249.967 309.94 249.57 309.588 249.424C309.236 249.277 308.839 249.424 308.693 249.776C308.546 250.128 308.693 250.525 309.045 250.671C309.397 250.818 309.794 250.671 309.94 250.319Z" fill="#A4F1FF"/>
<path d="M347.419 220.093C347.654 219.564 347.404 218.948 346.861 218.713C346.332 218.478 345.716 218.727 345.481 219.271C345.246 219.799 345.496 220.416 346.039 220.651C346.567 220.885 347.184 220.636 347.419 220.093Z" fill="#A4F1FF"/>
<path d="M282.621 296.326C282.767 295.974 282.621 295.578 282.268 295.431C281.916 295.284 281.52 295.431 281.373 295.783C281.226 296.136 281.373 296.532 281.725 296.679C282.078 296.826 282.474 296.679 282.621 296.326Z" fill="#A4F1FF"/>
<path d="M308.546 310.038C308.693 309.686 308.546 309.289 308.193 309.142C307.841 308.996 307.445 309.142 307.298 309.495C307.151 309.847 307.298 310.243 307.65 310.39C308.003 310.537 308.399 310.39 308.546 310.038Z" fill="#A4F1FF"/>
<path d="M323.857 304.283C324.004 303.931 323.857 303.534 323.505 303.388C323.153 303.241 322.756 303.388 322.609 303.74C322.463 304.092 322.609 304.489 322.962 304.636C323.314 304.782 323.71 304.636 323.857 304.283Z" fill="#A4F1FF"/>
<g style="mix-blend-mode:soft-light">
<path d="M131.092 249.057C131.357 248.44 131.078 247.735 130.461 247.471C129.844 247.207 129.14 247.486 128.876 248.102C128.611 248.719 128.89 249.424 129.507 249.688C130.123 249.952 130.828 249.673 131.092 249.057Z" fill="#A4F1FF"/>
</g>
<g style="mix-blend-mode:soft-light">
<path d="M414.801 21.4116C415.065 20.795 414.786 20.0904 414.169 19.8262C413.553 19.5619 412.848 19.8408 412.584 20.4574C412.32 21.074 412.599 21.7786 413.215 22.0429C413.832 22.3071 414.536 22.0282 414.801 21.4116Z" fill="#A4F1FF"/>
</g>
<g style="mix-blend-mode:soft-light">
<path d="M244.79 50.1701C245.201 49.2306 244.761 48.1295 243.821 47.7332C242.882 47.3221 241.781 47.7625 241.384 48.7021C240.973 49.6416 241.414 50.7426 242.353 51.1389C243.293 51.55 244.394 51.1096 244.79 50.1701Z" fill="#A4F1FF"/>
</g>
<g style="mix-blend-mode:soft-light">
<path d="M95.0966 284.025C95.3608 283.408 95.0819 282.703 94.4653 282.439C93.8488 282.175 93.1441 282.454 92.8799 283.07C92.6156 283.687 92.8945 284.392 93.5111 284.656C94.1277 284.92 94.8323 284.641 95.0966 284.025Z" fill="#A4F1FF"/>
</g>
<g style="mix-blend-mode:soft-light">
<path d="M169.275 313.297C169.54 312.68 169.261 311.976 168.644 311.711C168.028 311.447 167.323 311.726 167.059 312.343C166.794 312.959 167.073 313.664 167.69 313.928C168.306 314.192 169.011 313.913 169.275 313.297Z" fill="#A4F1FF"/>
</g>
<g style="mix-blend-mode:soft-light">
<path d="M30.4306 61.8701C30.9591 61.2682 30.9003 60.3433 30.2984 59.8148C29.6966 59.2863 28.7717 59.3451 28.2432 59.9469C27.7147 60.5488 27.7735 61.4737 28.3754 62.0022C28.9772 62.5307 29.9021 62.472 30.4306 61.8701Z" fill="#A4F1FF"/>
</g>
<g style="mix-blend-mode:soft-light">
<path d="M289.535 315.792C289.799 315.176 289.52 314.471 288.904 314.207C288.287 313.943 287.583 314.222 287.318 314.838C287.054 315.455 287.333 316.159 287.95 316.424C288.566 316.688 289.271 316.409 289.535 315.792Z" fill="#A4F1FF"/>
</g>
<g style="mix-blend-mode:soft-light">
<path d="M154.977 146.09C155.388 145.151 154.948 144.05 154.008 143.653C153.068 143.257 151.967 143.683 151.571 144.622C151.16 145.562 151.6 146.663 152.54 147.059C153.48 147.47 154.581 147.03 154.977 146.09Z" fill="#A4F1FF"/>
</g>
<g style="mix-blend-mode:soft-light">
<path d="M106.973 218.595C107.237 217.979 106.958 217.274 106.342 217.01C105.725 216.746 105.02 217.024 104.756 217.641C104.492 218.258 104.771 218.962 105.387 219.226C106.004 219.491 106.709 219.212 106.973 218.595Z" fill="#A4F1FF"/>
</g>
<g style="mix-blend-mode:soft-light">
<path d="M431.668 150.362C431.932 149.746 431.653 149.041 431.037 148.777C430.42 148.512 429.716 148.791 429.451 149.408C429.187 150.024 429.466 150.729 430.083 150.993C430.699 151.258 431.404 150.979 431.668 150.362Z" fill="#A4F1FF"/>
</g>
<g style="mix-blend-mode:soft-light">
<path d="M22.8263 114.895C23.3547 114.293 23.296 113.368 22.6941 112.84C22.0923 112.311 21.1674 112.37 20.6389 112.972C20.1104 113.574 20.1692 114.498 20.771 115.027C21.3729 115.555 22.2978 115.497 22.8263 114.895Z" fill="#A4F1FF"/>
</g>
<path style="mix-blend-mode:screen" opacity="0.2" fill-rule="evenodd" clip-rule="evenodd" d="M406.873 249.556C401.589 244.315 393.045 244.359 387.804 249.644C382.563 254.929 382.607 263.472 387.892 268.713C393.177 273.954 401.721 273.91 406.961 268.625C412.202 263.34 412.158 254.796 406.873 249.556Z" fill="url(#paint0_radial_143_123)"/>
<path style="mix-blend-mode:screen" opacity="0.4" fill-rule="evenodd" clip-rule="evenodd" d="M390.109 64.8208C378.922 53.7519 360.881 53.84 349.812 65.0263C338.743 76.2126 338.831 94.2544 350.017 105.323C361.204 116.392 379.245 116.304 390.314 105.118C401.383 93.9315 401.295 75.8896 390.109 64.8208Z" fill="url(#paint1_radial_143_123)"/>
<path style="mix-blend-mode:screen" opacity="0.2" fill-rule="evenodd" clip-rule="evenodd" d="M195.259 209.126C180.667 194.681 157.135 194.799 142.69 209.391C128.244 223.983 128.362 247.515 142.954 261.96C157.546 276.406 181.078 276.288 195.523 261.696C209.969 247.104 209.851 223.572 195.259 209.126Z" fill="url(#paint2_radial_143_123)"/>
<path style="mix-blend-mode:screen" opacity="0.2" fill-rule="evenodd" clip-rule="evenodd" d="M66.6465 279.576C63.0939 276.053 57.354 276.083 53.8307 279.635C50.3075 283.188 50.3368 288.928 53.8894 292.451C57.442 295.974 63.182 295.945 66.7052 292.392C70.2284 288.84 70.1991 283.1 66.6465 279.576Z" fill="url(#paint3_radial_143_123)"/>
<path style="mix-blend-mode:screen" opacity="0.5" fill-rule="evenodd" clip-rule="evenodd" d="M45.4484 83.6406C40.648 78.8843 32.8968 78.9283 28.1405 83.7287C23.3841 88.5291 23.4282 96.2802 28.2286 101.037C33.029 105.793 40.7801 105.749 45.5364 100.949C50.2928 96.1481 50.2488 88.397 45.4484 83.6406Z" fill="url(#paint4_radial_143_123)"/>
<path style="mix-blend-mode:screen" opacity="0.2" fill-rule="evenodd" clip-rule="evenodd" d="M201.425 149.877C206.284 155.529 214.784 156.175 220.436 151.316C226.087 146.457 226.733 137.957 221.874 132.305C217.015 126.653 208.515 126.008 202.863 130.867C197.212 135.726 196.566 144.226 201.425 149.877Z" fill="url(#paint5_radial_143_123)"/>
<path style="mix-blend-mode:screen" opacity="0.4" fill-rule="evenodd" clip-rule="evenodd" d="M261.423 317.172C271.684 329.107 289.667 330.473 301.617 320.211C313.552 309.95 314.917 291.967 304.656 280.017C294.394 268.082 276.411 266.717 264.461 276.978C252.526 287.239 251.161 305.223 261.423 317.172Z" fill="url(#paint6_radial_143_123)"/>
<path style="mix-blend-mode:screen" opacity="0.2" fill-rule="evenodd" clip-rule="evenodd" d="M418.808 193.947C432.182 209.523 455.656 211.299 471.231 197.911C486.807 184.537 488.583 161.064 475.195 145.488C461.821 129.912 438.348 128.136 422.772 141.524C407.196 154.898 405.42 178.372 418.808 193.947Z" fill="url(#paint7_radial_143_123)"/>
<path style="mix-blend-mode:screen" opacity="0.2" fill-rule="evenodd" clip-rule="evenodd" d="M48.8395 343.934C55.5336 351.715 67.2631 352.61 75.0435 345.916C82.824 339.222 83.7195 327.493 77.0254 319.712C70.3312 311.932 58.6018 311.036 50.8213 317.73C43.0408 324.424 42.1453 336.154 48.8395 343.934Z" fill="url(#paint8_radial_143_123)"/>
<ellipse cx="219.542" cy="282" rx="281.542" ry="282" fill="black" fill-opacity="0.52"/>
<defs>
<radialGradient id="paint0_radial_143_123" cx="0" cy="0" r="1" gradientUnits="userSpaceOnUse" gradientTransform="translate(397.362 259.167) rotate(-45.29) scale(13.4764)">
<stop offset="0.02" stop-color="#34EEFF"/>
<stop offset="0.33" stop-color="#24A6B2"/>
<stop offset="1"/>
</radialGradient>
<radialGradient id="paint1_radial_143_123" cx="0" cy="0" r="1" gradientUnits="userSpaceOnUse" gradientTransform="translate(370.041 85.1091) rotate(-45.29) scale(28.4942)">
<stop offset="0.02" stop-color="#34EEFF"/>
<stop offset="0.33" stop-color="#24A6B2"/>
<stop offset="1"/>
</radialGradient>
<radialGradient id="paint2_radial_143_123" cx="0" cy="0" r="1" gradientUnits="userSpaceOnUse" gradientTransform="translate(169.077 235.575) rotate(-45.29) scale(37.1701)">
<stop offset="0.46" stop-color="#344F95"/>
<stop offset="0.69" stop-color="#334E93"/>
<stop offset="0.77" stop-color="#304A8C"/>
<stop offset="0.82" stop-color="#2C4480"/>
<stop offset="0.87" stop-color="#263B6F"/>
<stop offset="0.91" stop-color="#1F2F59"/>
<stop offset="0.94" stop-color="#15213E"/>
<stop offset="0.98" stop-color="#0A101E"/>
<stop offset="1"/>
</radialGradient>
<radialGradient id="paint3_radial_143_123" cx="0" cy="0" r="1" gradientUnits="userSpaceOnUse" gradientTransform="translate(60.2539 286.036) rotate(-45.29) scale(9.05765)">
<stop offset="0.46" stop-color="#34B1FF"/>
<stop offset="0.66" stop-color="#33AFFD"/>
<stop offset="0.74" stop-color="#32AAF6"/>
<stop offset="0.79" stop-color="#2FA2EA"/>
<stop offset="0.83" stop-color="#2C97D9"/>
<stop offset="0.86" stop-color="#2787C3"/>
<stop offset="0.9" stop-color="#2274A8"/>
<stop offset="0.92" stop-color="#1B5E87"/>
<stop offset="0.95" stop-color="#144462"/>
<stop offset="0.97" stop-color="#0B2637"/>
<stop offset="1"/>
</radialGradient>
<radialGradient id="paint4_radial_143_123" cx="0" cy="0" r="1" gradientUnits="userSpaceOnUse" gradientTransform="translate(36.8308 92.3492) rotate(-45.29) scale(12.2286)">
<stop offset="0.02" stop-color="#34F8FF"/>
<stop offset="0.33" stop-color="#24ADB2"/>
<stop offset="1"/>
</radialGradient>
<radialGradient id="paint5_radial_143_123" cx="0" cy="0" r="1" gradientUnits="userSpaceOnUse" gradientTransform="translate(211.574 141.638) rotate(139.32) scale(13.4764)">
<stop offset="0.02" stop-color="#34EEFF"/>
<stop offset="0.33" stop-color="#24A6B2"/>
<stop offset="1"/>
</radialGradient>
<radialGradient id="paint6_radial_143_123" cx="0" cy="0" r="1" gradientUnits="userSpaceOnUse" gradientTransform="translate(282.967 299.132) rotate(139.32) scale(28.4942)">
<stop offset="0.02" stop-color="#34EEFF"/>
<stop offset="0.33" stop-color="#24A6B2"/>
<stop offset="1"/>
</radialGradient>
<radialGradient id="paint7_radial_143_123" cx="0" cy="0" r="1" gradientUnits="userSpaceOnUse" gradientTransform="translate(446.917 170.253) rotate(139.32) scale(37.1701)">
<stop offset="0.46" stop-color="#344F95"/>
<stop offset="0.69" stop-color="#334E93"/>
<stop offset="0.77" stop-color="#304A8C"/>
<stop offset="0.82" stop-color="#2C4480"/>
<stop offset="0.87" stop-color="#263B6F"/>
<stop offset="0.91" stop-color="#1F2F59"/>
<stop offset="0.94" stop-color="#15213E"/>
<stop offset="0.98" stop-color="#0A101E"/>
<stop offset="1"/>
</radialGradient>
<radialGradient id="paint8_radial_143_123" cx="0" cy="0" r="1" gradientUnits="userSpaceOnUse" gradientTransform="translate(62.8668 332.369) rotate(139.32) scale(18.5851)">
<stop offset="0.46" stop-color="#34B1FF"/>
<stop offset="0.66" stop-color="#33AFFD"/>
<stop offset="0.74" stop-color="#32AAF6"/>
<stop offset="0.79" stop-color="#2FA2EA"/>
<stop offset="0.83" stop-color="#2C97D9"/>
<stop offset="0.86" stop-color="#2787C3"/>
<stop offset="0.9" stop-color="#2274A8"/>
<stop offset="0.92" stop-color="#1B5E87"/>
<stop offset="0.95" stop-color="#144462"/>
<stop offset="0.97" stop-color="#0B2637"/>
<stop offset="1"/>
</radialGradient>
</defs>
</svg>
