<svg width="440" height="956" viewBox="0 0 440 956" fill="none" xmlns="http://www.w3.org/2000/svg">
<g clip-path="url(#clip0_141_2)">
<rect width="440" height="956" fill="#133037"/>
<path style="mix-blend-mode:screen" opacity="0.61" fill-rule="evenodd" clip-rule="evenodd" d="M504.707 643.56C429.016 576.06 329.206 535.015 219.809 535.015C110.413 535.015 10.6761 576.031 -65 643.486V1040.28H504.722V643.56H504.707Z" fill="url(#paint0_radial_141_2)" fill-opacity="0.23"/>
<path d="M221.331 749.08C221.478 748.728 221.331 748.332 220.979 748.185C220.626 748.038 220.23 748.185 220.083 748.537C219.937 748.89 220.083 749.286 220.436 749.433C220.788 749.58 221.184 749.433 221.331 749.08Z" fill="#A4F1FF"/>
<path d="M279.875 852.722C280.022 852.37 279.875 851.973 279.523 851.827C279.171 851.68 278.774 851.827 278.628 852.179C278.481 852.531 278.628 852.928 278.98 853.075C279.332 853.221 279.729 853.075 279.875 852.722Z" fill="#A4F1FF"/>
<path d="M431.463 781.435C431.698 780.907 431.448 780.29 430.905 780.055C430.376 779.821 429.76 780.07 429.525 780.613C429.29 781.142 429.54 781.758 430.083 781.993C430.611 782.228 431.228 781.978 431.463 781.435Z" fill="#A4F1FF"/>
<path d="M384.222 702.647C384.457 702.119 384.207 701.502 383.664 701.267C383.136 701.032 382.519 701.282 382.284 701.825C382.049 702.354 382.299 702.97 382.842 703.205C383.37 703.44 383.987 703.19 384.222 702.647Z" fill="#A4F1FF"/>
<path d="M150.822 771.673C150.969 771.321 150.822 770.924 150.47 770.778C150.118 770.631 149.721 770.778 149.575 771.13C149.428 771.482 149.575 771.879 149.927 772.025C150.279 772.172 150.676 772.025 150.822 771.673Z" fill="#A4F1FF"/>
<path d="M286.951 904.734C287.098 904.382 286.951 903.985 286.599 903.838C286.247 903.692 285.85 903.838 285.704 904.191C285.557 904.543 285.704 904.939 286.056 905.086C286.408 905.233 286.805 905.086 286.951 904.734Z" fill="#A4F1FF"/>
<path d="M121.844 687.262C122.137 686.925 122.108 686.396 121.77 686.103C121.433 685.809 120.904 685.838 120.611 686.176C120.317 686.514 120.346 687.042 120.684 687.336C121.022 687.629 121.55 687.6 121.844 687.262Z" fill="#A4F1FF"/>
<path d="M309.94 881.319C310.087 880.967 309.94 880.57 309.588 880.424C309.236 880.277 308.839 880.424 308.693 880.776C308.546 881.128 308.693 881.525 309.045 881.671C309.397 881.818 309.794 881.671 309.94 881.319Z" fill="#A4F1FF"/>
<path d="M347.419 851.093C347.654 850.564 347.404 849.948 346.861 849.713C346.332 849.478 345.716 849.727 345.481 850.271C345.246 850.799 345.496 851.416 346.039 851.651C346.567 851.885 347.184 851.636 347.419 851.093Z" fill="#A4F1FF"/>
<path d="M282.621 927.326C282.767 926.974 282.621 926.578 282.268 926.431C281.916 926.284 281.52 926.431 281.373 926.783C281.226 927.136 281.373 927.532 281.725 927.679C282.078 927.826 282.474 927.679 282.621 927.326Z" fill="#A4F1FF"/>
<path d="M308.546 941.038C308.693 940.686 308.546 940.289 308.193 940.142C307.841 939.996 307.445 940.142 307.298 940.495C307.151 940.847 307.298 941.243 307.65 941.39C308.003 941.537 308.399 941.39 308.546 941.038Z" fill="#A4F1FF"/>
<path d="M323.857 935.283C324.004 934.931 323.857 934.534 323.505 934.388C323.153 934.241 322.756 934.388 322.609 934.74C322.463 935.092 322.609 935.489 322.962 935.636C323.314 935.782 323.71 935.636 323.857 935.283Z" fill="#A4F1FF"/>
<g style="mix-blend-mode:soft-light">
<path d="M131.092 880.057C131.357 879.44 131.078 878.735 130.461 878.471C129.844 878.207 129.14 878.486 128.876 879.102C128.611 879.719 128.89 880.424 129.507 880.688C130.123 880.952 130.828 880.673 131.092 880.057Z" fill="#A4F1FF"/>
</g>
<g style="mix-blend-mode:soft-light">
<path d="M414.801 652.412C415.065 651.795 414.786 651.09 414.169 650.826C413.553 650.562 412.848 650.841 412.584 651.457C412.32 652.074 412.599 652.779 413.215 653.043C413.832 653.307 414.536 653.028 414.801 652.412Z" fill="#A4F1FF"/>
</g>
<g style="mix-blend-mode:soft-light">
<path d="M244.79 681.17C245.201 680.231 244.761 679.13 243.821 678.733C242.882 678.322 241.781 678.763 241.384 679.702C240.973 680.642 241.414 681.743 242.353 682.139C243.293 682.55 244.394 682.11 244.79 681.17Z" fill="#A4F1FF"/>
</g>
<g style="mix-blend-mode:soft-light">
<path d="M95.0966 915.025C95.3608 914.408 95.0819 913.703 94.4653 913.439C93.8488 913.175 93.1441 913.454 92.8799 914.07C92.6156 914.687 92.8945 915.392 93.5111 915.656C94.1277 915.92 94.8323 915.641 95.0966 915.025Z" fill="#A4F1FF"/>
</g>
<g style="mix-blend-mode:soft-light">
<path d="M169.275 944.297C169.54 943.68 169.261 942.976 168.644 942.711C168.028 942.447 167.323 942.726 167.059 943.343C166.794 943.959 167.073 944.664 167.69 944.928C168.306 945.192 169.011 944.913 169.275 944.297Z" fill="#A4F1FF"/>
</g>
<g style="mix-blend-mode:soft-light">
<path d="M30.4306 692.87C30.9591 692.268 30.9003 691.343 30.2984 690.815C29.6966 690.286 28.7717 690.345 28.2432 690.947C27.7147 691.549 27.7735 692.474 28.3754 693.002C28.9772 693.531 29.9021 693.472 30.4306 692.87Z" fill="#A4F1FF"/>
</g>
<g style="mix-blend-mode:soft-light">
<path d="M289.535 946.792C289.799 946.176 289.52 945.471 288.904 945.207C288.287 944.943 287.583 945.222 287.318 945.838C287.054 946.455 287.333 947.159 287.95 947.424C288.566 947.688 289.271 947.409 289.535 946.792Z" fill="#A4F1FF"/>
</g>
<g style="mix-blend-mode:soft-light">
<path d="M154.977 777.09C155.388 776.151 154.948 775.05 154.008 774.653C153.068 774.257 151.967 774.683 151.571 775.622C151.16 776.562 151.6 777.663 152.54 778.059C153.48 778.47 154.581 778.03 154.977 777.09Z" fill="#A4F1FF"/>
</g>
<g style="mix-blend-mode:soft-light">
<path d="M106.973 849.595C107.237 848.979 106.958 848.274 106.342 848.01C105.725 847.746 105.02 848.024 104.756 848.641C104.492 849.258 104.771 849.962 105.387 850.226C106.004 850.491 106.709 850.212 106.973 849.595Z" fill="#A4F1FF"/>
</g>
<g style="mix-blend-mode:soft-light">
<path d="M431.668 781.362C431.932 780.746 431.653 780.041 431.037 779.777C430.42 779.512 429.716 779.791 429.451 780.408C429.187 781.024 429.466 781.729 430.083 781.993C430.699 782.258 431.404 781.979 431.668 781.362Z" fill="#A4F1FF"/>
</g>
<g style="mix-blend-mode:soft-light">
<path d="M22.8263 745.895C23.3547 745.293 23.296 744.368 22.6941 743.84C22.0923 743.311 21.1674 743.37 20.6389 743.972C20.1104 744.574 20.1692 745.498 20.771 746.027C21.3729 746.555 22.2978 746.497 22.8263 745.895Z" fill="#A4F1FF"/>
</g>
<path style="mix-blend-mode:screen" opacity="0.2" fill-rule="evenodd" clip-rule="evenodd" d="M406.873 880.556C401.589 875.315 393.045 875.359 387.804 880.644C382.563 885.929 382.607 894.472 387.892 899.713C393.177 904.954 401.721 904.91 406.961 899.625C412.202 894.34 412.158 885.796 406.873 880.556Z" fill="url(#paint1_radial_141_2)"/>
<path style="mix-blend-mode:screen" opacity="0.4" fill-rule="evenodd" clip-rule="evenodd" d="M390.109 695.821C378.922 684.752 360.881 684.84 349.812 696.026C338.743 707.213 338.831 725.254 350.017 736.323C361.204 747.392 379.245 747.304 390.314 736.118C401.383 724.931 401.295 706.89 390.109 695.821Z" fill="url(#paint2_radial_141_2)"/>
<path style="mix-blend-mode:screen" opacity="0.2" fill-rule="evenodd" clip-rule="evenodd" d="M195.259 840.126C180.667 825.681 157.135 825.799 142.69 840.391C128.244 854.983 128.362 878.515 142.954 892.96C157.546 907.406 181.078 907.288 195.523 892.696C209.969 878.104 209.851 854.572 195.259 840.126Z" fill="url(#paint3_radial_141_2)"/>
<path style="mix-blend-mode:screen" opacity="0.2" fill-rule="evenodd" clip-rule="evenodd" d="M66.6465 910.576C63.0939 907.053 57.354 907.083 53.8307 910.635C50.3075 914.188 50.3368 919.928 53.8894 923.451C57.442 926.974 63.182 926.945 66.7052 923.392C70.2284 919.84 70.1991 914.1 66.6465 910.576Z" fill="url(#paint4_radial_141_2)"/>
<path style="mix-blend-mode:screen" opacity="0.5" fill-rule="evenodd" clip-rule="evenodd" d="M45.4484 714.641C40.648 709.884 32.8968 709.928 28.1405 714.729C23.3841 719.529 23.4282 727.28 28.2286 732.037C33.029 736.793 40.7801 736.749 45.5364 731.949C50.2928 727.148 50.2488 719.397 45.4484 714.641Z" fill="url(#paint5_radial_141_2)"/>
<path style="mix-blend-mode:screen" opacity="0.2" fill-rule="evenodd" clip-rule="evenodd" d="M201.425 780.877C206.284 786.529 214.784 787.175 220.436 782.316C226.087 777.457 226.733 768.957 221.874 763.305C217.015 757.653 208.515 757.008 202.863 761.867C197.212 766.726 196.566 775.226 201.425 780.877Z" fill="url(#paint6_radial_141_2)"/>
<path style="mix-blend-mode:screen" opacity="0.4" fill-rule="evenodd" clip-rule="evenodd" d="M261.423 948.172C271.684 960.107 289.667 961.473 301.617 951.211C313.552 940.95 314.917 922.967 304.656 911.017C294.394 899.082 276.411 897.717 264.461 907.978C252.526 918.239 251.161 936.223 261.423 948.172Z" fill="url(#paint7_radial_141_2)"/>
<path style="mix-blend-mode:screen" opacity="0.2" fill-rule="evenodd" clip-rule="evenodd" d="M418.808 824.947C432.182 840.523 455.656 842.299 471.231 828.911C486.807 815.537 488.583 792.064 475.195 776.488C461.821 760.912 438.348 759.136 422.772 772.524C407.196 785.898 405.42 809.372 418.808 824.947Z" fill="url(#paint8_radial_141_2)"/>
<path style="mix-blend-mode:screen" opacity="0.2" fill-rule="evenodd" clip-rule="evenodd" d="M48.8395 974.934C55.5336 982.715 67.2631 983.61 75.0435 976.916C82.824 970.222 83.7195 958.493 77.0254 950.712C70.3312 942.932 58.6018 942.036 50.8213 948.73C43.0408 955.424 42.1453 967.154 48.8395 974.934Z" fill="url(#paint9_radial_141_2)"/>
<ellipse cx="219.542" cy="913" rx="281.542" ry="282" fill="black" fill-opacity="0.52"/>
</g>
<defs>
<radialGradient id="paint0_radial_141_2" cx="0" cy="0" r="1" gradientUnits="userSpaceOnUse" gradientTransform="translate(219.853 963.278) rotate(-90) scale(428.234 428.234)">
<stop stop-color="#00F2FF"/>
<stop offset="0.01" stop-color="#00EDFA"/>
<stop offset="0.23" stop-color="#00A6AF"/>
<stop offset="0.44" stop-color="#006B70"/>
<stop offset="0.62" stop-color="#003C40"/>
<stop offset="0.78" stop-color="#001B1D"/>
<stop offset="0.91" stop-color="#000707"/>
<stop offset="1"/>
</radialGradient>
<radialGradient id="paint1_radial_141_2" cx="0" cy="0" r="1" gradientUnits="userSpaceOnUse" gradientTransform="translate(397.362 890.167) rotate(-45.29) scale(13.4764)">
<stop offset="0.02" stop-color="#34EEFF"/>
<stop offset="0.33" stop-color="#24A6B2"/>
<stop offset="1"/>
</radialGradient>
<radialGradient id="paint2_radial_141_2" cx="0" cy="0" r="1" gradientUnits="userSpaceOnUse" gradientTransform="translate(370.041 716.109) rotate(-45.29) scale(28.4942)">
<stop offset="0.02" stop-color="#34EEFF"/>
<stop offset="0.33" stop-color="#24A6B2"/>
<stop offset="1"/>
</radialGradient>
<radialGradient id="paint3_radial_141_2" cx="0" cy="0" r="1" gradientUnits="userSpaceOnUse" gradientTransform="translate(169.077 866.575) rotate(-45.29) scale(37.1701)">
<stop offset="0.46" stop-color="#344F95"/>
<stop offset="0.69" stop-color="#334E93"/>
<stop offset="0.77" stop-color="#304A8C"/>
<stop offset="0.82" stop-color="#2C4480"/>
<stop offset="0.87" stop-color="#263B6F"/>
<stop offset="0.91" stop-color="#1F2F59"/>
<stop offset="0.94" stop-color="#15213E"/>
<stop offset="0.98" stop-color="#0A101E"/>
<stop offset="1"/>
</radialGradient>
<radialGradient id="paint4_radial_141_2" cx="0" cy="0" r="1" gradientUnits="userSpaceOnUse" gradientTransform="translate(60.2539 917.036) rotate(-45.29) scale(9.05765)">
<stop offset="0.46" stop-color="#34B1FF"/>
<stop offset="0.66" stop-color="#33AFFD"/>
<stop offset="0.74" stop-color="#32AAF6"/>
<stop offset="0.79" stop-color="#2FA2EA"/>
<stop offset="0.83" stop-color="#2C97D9"/>
<stop offset="0.86" stop-color="#2787C3"/>
<stop offset="0.9" stop-color="#2274A8"/>
<stop offset="0.92" stop-color="#1B5E87"/>
<stop offset="0.95" stop-color="#144462"/>
<stop offset="0.97" stop-color="#0B2637"/>
<stop offset="1"/>
</radialGradient>
<radialGradient id="paint5_radial_141_2" cx="0" cy="0" r="1" gradientUnits="userSpaceOnUse" gradientTransform="translate(36.8308 723.349) rotate(-45.29) scale(12.2286)">
<stop offset="0.02" stop-color="#34F8FF"/>
<stop offset="0.33" stop-color="#24ADB2"/>
<stop offset="1"/>
</radialGradient>
<radialGradient id="paint6_radial_141_2" cx="0" cy="0" r="1" gradientUnits="userSpaceOnUse" gradientTransform="translate(211.574 772.638) rotate(139.32) scale(13.4764)">
<stop offset="0.02" stop-color="#34EEFF"/>
<stop offset="0.33" stop-color="#24A6B2"/>
<stop offset="1"/>
</radialGradient>
<radialGradient id="paint7_radial_141_2" cx="0" cy="0" r="1" gradientUnits="userSpaceOnUse" gradientTransform="translate(282.967 930.132) rotate(139.32) scale(28.4942)">
<stop offset="0.02" stop-color="#34EEFF"/>
<stop offset="0.33" stop-color="#24A6B2"/>
<stop offset="1"/>
</radialGradient>
<radialGradient id="paint8_radial_141_2" cx="0" cy="0" r="1" gradientUnits="userSpaceOnUse" gradientTransform="translate(446.917 801.253) rotate(139.32) scale(37.1701)">
<stop offset="0.46" stop-color="#344F95"/>
<stop offset="0.69" stop-color="#334E93"/>
<stop offset="0.77" stop-color="#304A8C"/>
<stop offset="0.82" stop-color="#2C4480"/>
<stop offset="0.87" stop-color="#263B6F"/>
<stop offset="0.91" stop-color="#1F2F59"/>
<stop offset="0.94" stop-color="#15213E"/>
<stop offset="0.98" stop-color="#0A101E"/>
<stop offset="1"/>
</radialGradient>
<radialGradient id="paint9_radial_141_2" cx="0" cy="0" r="1" gradientUnits="userSpaceOnUse" gradientTransform="translate(62.8668 963.369) rotate(139.32) scale(18.5851)">
<stop offset="0.46" stop-color="#34B1FF"/>
<stop offset="0.66" stop-color="#33AFFD"/>
<stop offset="0.74" stop-color="#32AAF6"/>
<stop offset="0.79" stop-color="#2FA2EA"/>
<stop offset="0.83" stop-color="#2C97D9"/>
<stop offset="0.86" stop-color="#2787C3"/>
<stop offset="0.9" stop-color="#2274A8"/>
<stop offset="0.92" stop-color="#1B5E87"/>
<stop offset="0.95" stop-color="#144462"/>
<stop offset="0.97" stop-color="#0B2637"/>
<stop offset="1"/>
</radialGradient>
<clipPath id="clip0_141_2">
<rect width="440" height="956" fill="white"/>
</clipPath>
</defs>
</svg>
