<svg width="332" height="484" viewBox="0 0 332 484" fill="none" xmlns="http://www.w3.org/2000/svg">
<path fill-rule="evenodd" clip-rule="evenodd" d="M0 0.555253L0 441.219C0 464.415 18.804 483.219 42 483.219H290C313.196 483.219 332 464.415 332 441.219V0C281.823 27.9657 225.294 43.6854 165.5 43.6854C106.103 43.6854 49.9274 28.1737 0 0.555253Z" fill="white"/>
<path d="M81.0003 81.2629C86.3018 81.2629 89.1454 84.251 89.1454 89.7935V90.4201C89.1454 94.1794 88.0369 96.3964 85.3379 97.3121V97.4085C88.5189 98.3724 89.8683 100.879 89.8683 105.313V106.469C89.8683 112.012 86.8802 115 81.3859 115H73.8673V81.2629H81.0003ZM80.8075 85.9861H78.9761V95.1915H80.5665C83.0245 95.1915 84.0366 93.9384 84.0366 91.0948V89.9863C84.0366 87.2392 83.0245 85.9861 80.8075 85.9861ZM80.9521 99.9147H78.9761V110.277H81.1931C83.6511 110.277 84.7596 108.976 84.7596 106.132V104.252C84.7596 101.264 83.6511 99.9147 80.9521 99.9147ZM104.424 81.2629L110.256 115H105.051L103.942 107.337H98.3034L97.1949 115H92.0861L97.9178 81.2629H104.424ZM101.195 88.4923H101.051L98.9781 102.71H103.268L101.195 88.4923ZM119.944 80.7809C124.812 80.7809 127.559 83.5281 127.559 88.3477V89.2152L122.643 89.6972V88.4441C122.643 86.5162 121.727 85.5041 120.04 85.5041C118.354 85.5041 117.438 86.5162 117.438 88.4441V88.8778C117.438 90.8539 118.305 92.5407 121.727 95.4325C126.402 99.3845 128.137 102.18 128.137 106.228V107.915C128.137 112.735 125.294 115.482 120.233 115.482C115.173 115.482 112.329 112.735 112.329 107.915V105.65L117.245 105.168V107.578C117.245 109.698 118.209 110.759 120.137 110.759C122.065 110.759 123.029 109.698 123.029 107.578V106.469C123.029 104.349 122.017 102.662 118.595 99.7701C113.92 95.818 112.329 93.0227 112.329 89.0706V88.3477C112.329 83.5281 115.076 80.7809 119.944 80.7809ZM136.35 81.2629V115H131.241V81.2629H136.35ZM149.157 80.7809C154.169 80.7809 157.109 83.7691 157.109 88.8778V91.9142L152.193 92.1551V89.408C152.193 86.709 151.181 85.5041 149.301 85.5041C147.422 85.5041 146.41 86.709 146.41 88.926V107.337C146.41 109.554 147.422 110.759 149.301 110.759C151.181 110.759 152.193 109.554 152.193 106.855V103.096L157.109 103.337V107.385C157.109 112.494 154.169 115.482 149.157 115.482C144.193 115.482 141.301 112.494 141.301 107.385V88.8778C141.301 83.7691 144.193 80.7809 149.157 80.7809ZM187.552 115H182.154L178.106 100.734H175.744V115H170.636V81.2629H178.01C183.504 81.2629 186.492 84.251 186.492 89.7935V92.2033C186.492 95.7698 185.239 98.276 182.877 99.6255L187.552 115ZM177.817 85.9861H175.744V96.0108H177.817C180.275 96.0108 181.383 94.7095 181.383 91.866V90.1309C181.383 87.2874 180.275 85.9861 177.817 85.9861ZM206.629 81.2629V107.433C206.629 112.735 203.592 115.482 198.676 115.482C193.857 115.482 190.82 112.735 190.82 107.433V81.2629H195.736V107.289C195.736 109.747 196.845 110.662 198.628 110.662C200.411 110.662 201.52 109.747 201.52 107.289V81.2629H206.629ZM216.927 81.2629V110.18H225.458V115H211.819V81.2629H216.927ZM243.078 81.2629V85.9861H233.824V95.5289H241.295V100.252H233.824V110.277H243.078V115H228.715V81.2629H243.078ZM253.33 80.7809C258.198 80.7809 260.945 83.5281 260.945 88.3477V89.2152L256.029 89.6972V88.4441C256.029 86.5162 255.113 85.5041 253.426 85.5041C251.74 85.5041 250.824 86.5162 250.824 88.4441V88.8778C250.824 90.8539 251.691 92.5407 255.113 95.4325C259.788 99.3845 261.523 102.18 261.523 106.228V107.915C261.523 112.735 258.68 115.482 253.619 115.482C248.559 115.482 245.715 112.735 245.715 107.915V105.65L250.631 105.168V107.578C250.631 109.698 251.595 110.759 253.523 110.759C255.451 110.759 256.415 109.698 256.415 107.578V106.469C256.415 104.349 255.402 102.662 251.981 99.7701C247.306 95.818 245.715 93.0227 245.715 89.0706V88.3477C245.715 83.5281 248.462 80.7809 253.33 80.7809Z" fill="#904790"/>
<circle cx="61" cy="179.224" r="10" fill="#904790"/>
<circle cx="61" cy="275.224" r="10" fill="#904790"/>
<circle cx="61" cy="378.224" r="10" fill="#904790"/>
<path d="M104.609 187.224H102.021L100.079 180.383H98.9469V187.224H96.4972V171.046H100.033C102.668 171.046 104.101 172.479 104.101 175.136V176.292C104.101 178.002 103.5 179.204 102.367 179.851L104.609 187.224ZM99.9407 173.311H98.9469V178.118H99.9407C101.119 178.118 101.651 177.494 101.651 176.13V175.298C101.651 173.935 101.119 173.311 99.9407 173.311ZM109.549 170.815C111.999 170.815 113.501 172.363 113.501 174.905V183.364C113.501 185.906 111.999 187.455 109.549 187.455C107.1 187.455 105.597 185.906 105.597 183.364V174.905C105.597 172.363 107.1 170.815 109.549 170.815ZM109.549 173.08C108.579 173.08 108.047 173.727 108.047 174.928V183.341C108.047 184.543 108.579 185.19 109.549 185.19C110.52 185.19 111.052 184.543 111.052 183.341V174.928C111.052 173.727 110.52 173.08 109.549 173.08ZM118.877 170.815C121.28 170.815 122.69 172.248 122.69 174.697V176.153L120.333 176.269V174.952C120.333 173.657 119.847 173.08 118.946 173.08C118.045 173.08 117.559 173.657 117.559 174.72V183.549C117.559 184.612 118.045 185.19 118.946 185.19C119.847 185.19 120.333 184.612 120.333 183.318V181.515L122.69 181.631V183.572C122.69 186.022 121.28 187.455 118.877 187.455C116.496 187.455 115.11 186.022 115.11 183.572V174.697C115.11 172.248 116.496 170.815 118.877 170.815ZM132.726 171.046L129.398 177.471L132.795 187.224H130.183L127.78 180.152L126.717 182.232V187.224H124.267V171.046H126.717V177.794H126.763L130.16 171.046H132.726ZM140.553 170.815C142.956 170.815 144.366 172.248 144.366 174.697V176.153L142.009 176.269V174.952C142.009 173.657 141.524 173.08 140.622 173.08C139.721 173.08 139.236 173.657 139.236 174.72V183.549C139.236 184.612 139.721 185.19 140.622 185.19C141.524 185.19 142.009 184.612 142.009 183.318V181.515L144.366 181.631V183.572C144.366 186.022 142.956 187.455 140.553 187.455C138.172 187.455 136.786 186.022 136.786 183.572V174.697C136.786 172.248 138.172 170.815 140.553 170.815ZM154.055 187.224H151.467L149.525 180.383H148.393V187.224H145.943V171.046H149.479C152.114 171.046 153.547 172.479 153.547 175.136V176.292C153.547 178.002 152.946 179.204 151.813 179.851L154.055 187.224ZM149.387 173.311H148.393V178.118H149.387C150.565 178.118 151.097 177.494 151.097 176.13V175.298C151.097 173.935 150.565 173.311 149.387 173.311ZM162.694 171.046V183.595C162.694 186.137 161.238 187.455 158.881 187.455C156.57 187.455 155.114 186.137 155.114 183.595V171.046H157.471V183.526C157.471 184.704 158.002 185.144 158.858 185.144C159.713 185.144 160.244 184.704 160.244 183.526V171.046H162.694ZM167.54 170.815C169.874 170.815 171.192 172.132 171.192 174.443V174.859L168.834 175.09V174.489C168.834 173.565 168.395 173.08 167.586 173.08C166.777 173.08 166.338 173.565 166.338 174.489V174.697C166.338 175.645 166.754 176.454 168.395 177.84C170.637 179.736 171.469 181.076 171.469 183.017V183.826C171.469 186.137 170.105 187.455 167.679 187.455C165.252 187.455 163.889 186.137 163.889 183.826V182.74L166.246 182.509V183.664C166.246 184.681 166.708 185.19 167.633 185.19C168.557 185.19 169.019 184.681 169.019 183.664V183.133C169.019 182.116 168.534 181.307 166.893 179.92C164.651 178.025 163.889 176.685 163.889 174.79V174.443C163.889 172.132 165.206 170.815 167.54 170.815ZM180.26 171.046V187.224H177.811V180.175H174.899V187.224H172.449V171.046H174.899V177.864H177.811V171.046H180.26ZM189.277 171.046V173.311H184.84V177.887H188.422V180.152H184.84V184.959H189.277V187.224H182.39V171.046H189.277ZM193.685 170.815C196.019 170.815 197.337 172.132 197.337 174.443V174.859L194.979 175.09V174.489C194.979 173.565 194.54 173.08 193.731 173.08C192.922 173.08 192.483 173.565 192.483 174.489V174.697C192.483 175.645 192.899 176.454 194.54 177.84C196.782 179.736 197.614 181.076 197.614 183.017V183.826C197.614 186.137 196.25 187.455 193.824 187.455C191.397 187.455 190.033 186.137 190.033 183.826V182.74L192.391 182.509V183.664C192.391 184.681 192.853 185.19 193.777 185.19C194.702 185.19 195.164 184.681 195.164 183.664V183.133C195.164 182.116 194.679 181.307 193.038 179.92C190.796 178.025 190.033 176.685 190.033 174.79V174.443C190.033 172.132 191.351 170.815 193.685 170.815ZM204.901 170.815C207.235 170.815 208.552 172.132 208.552 174.443V174.859L206.195 175.09V174.489C206.195 173.565 205.756 173.08 204.947 173.08C204.138 173.08 203.699 173.565 203.699 174.489V174.697C203.699 175.645 204.115 176.454 205.756 177.84C207.998 179.736 208.83 181.076 208.83 183.017V183.826C208.83 186.137 207.466 187.455 205.039 187.455C202.613 187.455 201.249 186.137 201.249 183.826V182.74L203.606 182.509V183.664C203.606 184.681 204.069 185.19 204.993 185.19C205.918 185.19 206.38 184.681 206.38 183.664V183.133C206.38 182.116 205.894 181.307 204.254 179.92C202.012 178.025 201.249 176.685 201.249 174.79V174.443C201.249 172.132 202.566 170.815 204.901 170.815ZM213.413 170.815C215.816 170.815 217.226 172.248 217.226 174.697V176.153L214.869 176.269V174.952C214.869 173.657 214.383 173.08 213.482 173.08C212.581 173.08 212.095 173.657 212.095 174.72V183.549C212.095 184.612 212.581 185.19 213.482 185.19C214.383 185.19 214.869 184.612 214.869 183.318V181.515L217.226 181.631V183.572C217.226 186.022 215.816 187.455 213.413 187.455C211.032 187.455 209.646 186.022 209.646 183.572V174.697C209.646 172.248 211.032 170.815 213.413 170.815ZM221.253 171.046V187.224H218.803V171.046H221.253ZM226.238 170.815C228.572 170.815 229.89 172.132 229.89 174.443V174.859L227.532 175.09V174.489C227.532 173.565 227.093 173.08 226.284 173.08C225.476 173.08 225.036 173.565 225.036 174.489V174.697C225.036 175.645 225.452 176.454 227.093 177.84C229.335 179.736 230.167 181.076 230.167 183.017V183.826C230.167 186.137 228.804 187.455 226.377 187.455C223.95 187.455 222.587 186.137 222.587 183.826V182.74L224.944 182.509V183.664C224.944 184.681 225.406 185.19 226.331 185.19C227.255 185.19 227.717 184.681 227.717 183.664V183.133C227.717 182.116 227.232 181.307 225.591 179.92C223.349 178.025 222.587 176.685 222.587 174.79V174.443C222.587 172.132 223.904 170.815 226.238 170.815ZM234.013 170.815C236.347 170.815 237.664 172.132 237.664 174.443V174.859L235.307 175.09V174.489C235.307 173.565 234.868 173.08 234.059 173.08C233.25 173.08 232.811 173.565 232.811 174.489V174.697C232.811 175.645 233.227 176.454 234.868 177.84C237.11 179.736 237.942 181.076 237.942 183.017V183.826C237.942 186.137 236.578 187.455 234.151 187.455C231.725 187.455 230.361 186.137 230.361 183.826V182.74L232.719 182.509V183.664C232.719 184.681 233.181 185.19 234.105 185.19C235.03 185.19 235.492 184.681 235.492 183.664V183.133C235.492 182.116 235.007 181.307 233.366 179.92C231.124 178.025 230.361 176.685 230.361 174.79V174.443C230.361 172.132 231.679 170.815 234.013 170.815ZM242.71 170.815C245.159 170.815 246.662 172.363 246.662 174.905V183.364C246.662 185.906 245.159 187.455 242.71 187.455C240.26 187.455 238.758 185.906 238.758 183.364V174.905C238.758 172.363 240.26 170.815 242.71 170.815ZM242.71 173.08C241.739 173.08 241.207 173.727 241.207 174.928V183.341C241.207 184.543 241.739 185.19 242.71 185.19C243.68 185.19 244.212 184.543 244.212 183.341V174.928C244.212 173.727 243.68 173.08 242.71 173.08ZM256.636 187.224H254.048L252.106 180.383H250.974V187.224H248.524V171.046H252.06C254.695 171.046 256.128 172.479 256.128 175.136V176.292C256.128 178.002 255.527 179.204 254.394 179.851L256.636 187.224ZM251.968 173.311H250.974V178.118H251.968C253.146 178.118 253.678 177.494 253.678 176.13V175.298C253.678 173.935 253.146 173.311 251.968 173.311ZM260.79 170.815C263.124 170.815 264.441 172.132 264.441 174.443V174.859L262.084 175.09V174.489C262.084 173.565 261.645 173.08 260.836 173.08C260.027 173.08 259.588 173.565 259.588 174.489V174.697C259.588 175.645 260.004 176.454 261.645 177.84C263.886 179.736 264.718 181.076 264.718 183.017V183.826C264.718 186.137 263.355 187.455 260.928 187.455C258.502 187.455 257.138 186.137 257.138 183.826V182.74L259.495 182.509V183.664C259.495 184.681 259.958 185.19 260.882 185.19C261.806 185.19 262.269 184.681 262.269 183.664V183.133C262.269 182.116 261.783 181.307 260.142 179.92C257.901 178.025 257.138 176.685 257.138 174.79V174.443C257.138 172.132 258.455 170.815 260.79 170.815ZM268.512 184.635V187.224H265.924V184.635H268.512Z" fill="#1E1E1E"/>
<path d="M99.1831 266.815C101.517 266.815 102.835 268.132 102.835 270.443V270.859L100.477 271.09V270.489C100.477 269.565 100.038 269.08 99.2293 269.08C98.4204 269.08 97.9813 269.565 97.9813 270.489V270.697C97.9813 271.645 98.3973 272.454 100.038 273.84C102.28 275.736 103.112 277.076 103.112 279.017V279.826C103.112 282.137 101.748 283.455 99.3218 283.455C96.8951 283.455 95.5316 282.137 95.5316 279.826V278.74L97.8889 278.509V279.664C97.8889 280.681 98.3511 281.19 99.2756 281.19C100.2 281.19 100.662 280.681 100.662 279.664V279.133C100.662 278.116 100.177 277.307 98.536 275.92C96.2942 274.025 95.5316 272.685 95.5316 270.79V270.443C95.5316 268.132 96.8489 266.815 99.1831 266.815ZM107.695 266.815C110.099 266.815 111.508 268.248 111.508 270.697V272.153L109.151 272.269V270.952C109.151 269.657 108.666 269.08 107.764 269.08C106.863 269.08 106.378 269.657 106.378 270.72V279.549C106.378 280.612 106.863 281.19 107.764 281.19C108.666 281.19 109.151 280.612 109.151 279.318V277.515L111.508 277.631V279.572C111.508 282.022 110.099 283.455 107.695 283.455C105.315 283.455 103.928 282.022 103.928 279.572V270.697C103.928 268.248 105.315 266.815 107.695 266.815ZM115.535 267.046V283.224H113.085V267.046H115.535ZM120.521 266.815C122.855 266.815 124.172 268.132 124.172 270.443V270.859L121.815 271.09V270.489C121.815 269.565 121.376 269.08 120.567 269.08C119.758 269.08 119.319 269.565 119.319 270.489V270.697C119.319 271.645 119.735 272.454 121.376 273.84C123.618 275.736 124.45 277.076 124.45 279.017V279.826C124.45 282.137 123.086 283.455 120.659 283.455C118.233 283.455 116.869 282.137 116.869 279.826V278.74L119.226 278.509V279.664C119.226 280.681 119.689 281.19 120.613 281.19C121.538 281.19 122 280.681 122 279.664V279.133C122 278.116 121.514 277.307 119.874 275.92C117.632 274.025 116.869 272.685 116.869 270.79V270.443C116.869 268.132 118.186 266.815 120.521 266.815ZM128.295 266.815C130.629 266.815 131.947 268.132 131.947 270.443V270.859L129.589 271.09V270.489C129.589 269.565 129.15 269.08 128.341 269.08C127.532 269.08 127.093 269.565 127.093 270.489V270.697C127.093 271.645 127.509 272.454 129.15 273.84C131.392 275.736 132.224 277.076 132.224 279.017V279.826C132.224 282.137 130.86 283.455 128.434 283.455C126.007 283.455 124.644 282.137 124.644 279.826V278.74L127.001 278.509V279.664C127.001 280.681 127.463 281.19 128.388 281.19C129.312 281.19 129.774 280.681 129.774 279.664V279.133C129.774 278.116 129.289 277.307 127.648 275.92C125.406 274.025 124.644 272.685 124.644 270.79V270.443C124.644 268.132 125.961 266.815 128.295 266.815ZM136.992 266.815C139.442 266.815 140.944 268.363 140.944 270.905V279.364C140.944 281.906 139.442 283.455 136.992 283.455C134.542 283.455 133.04 281.906 133.04 279.364V270.905C133.04 268.363 134.542 266.815 136.992 266.815ZM136.992 269.08C136.021 269.08 135.49 269.727 135.49 270.928V279.341C135.49 280.543 136.021 281.19 136.992 281.19C137.963 281.19 138.494 280.543 138.494 279.341V270.928C138.494 269.727 137.963 269.08 136.992 269.08ZM150.919 283.224H148.33L146.389 276.383H145.256V283.224H142.807V267.046H146.343C148.977 267.046 150.41 268.479 150.41 271.136V272.292C150.41 274.002 149.809 275.204 148.677 275.851L150.919 283.224ZM146.25 269.311H145.256V274.118H146.25C147.429 274.118 147.96 273.494 147.96 272.13V271.298C147.96 269.935 147.429 269.311 146.25 269.311ZM155.072 266.815C157.406 266.815 158.723 268.132 158.723 270.443V270.859L156.366 271.09V270.489C156.366 269.565 155.927 269.08 155.118 269.08C154.309 269.08 153.87 269.565 153.87 270.489V270.697C153.87 271.645 154.286 272.454 155.927 273.84C158.169 275.736 159.001 277.076 159.001 279.017V279.826C159.001 282.137 157.637 283.455 155.211 283.455C152.784 283.455 151.42 282.137 151.42 279.826V278.74L153.778 278.509V279.664C153.778 280.681 154.24 281.19 155.164 281.19C156.089 281.19 156.551 280.681 156.551 279.664V279.133C156.551 278.116 156.066 277.307 154.425 275.92C152.183 274.025 151.42 272.685 151.42 270.79V270.443C151.42 268.132 152.738 266.815 155.072 266.815ZM167.16 266.815C169.564 266.815 170.974 268.248 170.974 270.697V272.153L168.616 272.269V270.952C168.616 269.657 168.131 269.08 167.23 269.08C166.328 269.08 165.843 269.657 165.843 270.72V279.549C165.843 280.612 166.328 281.19 167.23 281.19C168.131 281.19 168.616 280.612 168.616 279.318V277.515L170.974 277.631V279.572C170.974 282.022 169.564 283.455 167.16 283.455C164.78 283.455 163.393 282.022 163.393 279.572V270.697C163.393 268.248 164.78 266.815 167.16 266.815ZM179.992 267.046V279.595C179.992 282.137 178.536 283.455 176.179 283.455C173.868 283.455 172.412 282.137 172.412 279.595V267.046H174.769V279.526C174.769 280.704 175.301 281.144 176.156 281.144C177.011 281.144 177.543 280.704 177.543 279.526V267.046H179.992ZM188.582 267.046V269.357H185.971V283.224H183.521V269.357H180.91V267.046H188.582ZM192.478 266.815C194.812 266.815 196.129 268.132 196.129 270.443V270.859L193.772 271.09V270.489C193.772 269.565 193.333 269.08 192.524 269.08C191.715 269.08 191.276 269.565 191.276 270.489V270.697C191.276 271.645 191.692 272.454 193.333 273.84C195.574 275.736 196.406 277.076 196.406 279.017V279.826C196.406 282.137 195.043 283.455 192.616 283.455C190.19 283.455 188.826 282.137 188.826 279.826V278.74L191.183 278.509V279.664C191.183 280.681 191.646 281.19 192.57 281.19C193.494 281.19 193.957 280.681 193.957 279.664V279.133C193.957 278.116 193.471 277.307 191.83 275.92C189.589 274.025 188.826 272.685 188.826 270.79V270.443C188.826 268.132 190.143 266.815 192.478 266.815ZM204.589 267.046C207.224 267.046 208.657 268.479 208.657 271.136V272.431C208.657 275.088 207.224 276.521 204.589 276.521H203.503V283.224H201.053V267.046H204.589ZM204.497 269.311H203.503V274.256H204.497C205.675 274.256 206.207 273.632 206.207 272.269V271.298C206.207 269.935 205.675 269.311 204.497 269.311ZM214.25 267.046L217.046 283.224H214.55L214.019 279.549H211.315L210.783 283.224H208.333L211.13 267.046H214.25ZM212.701 270.512H212.632L211.638 277.33H213.695L212.701 270.512ZM221.831 267.046C224.466 267.046 225.899 268.479 225.899 271.136V272.431C225.899 275.088 224.466 276.521 221.831 276.521H220.745V283.224H218.295V267.046H221.831ZM221.739 269.311H220.745V274.256H221.739C222.917 274.256 223.449 273.632 223.449 272.269V271.298C223.449 269.935 222.917 269.311 221.739 269.311ZM234.085 267.046V269.311H229.648V273.887H233.23V276.152H229.648V280.959H234.085V283.224H227.198V267.046H234.085ZM243.762 283.224H241.173L239.232 276.383H238.099V283.224H235.65V267.046H239.186C241.82 267.046 243.253 268.479 243.253 271.136V272.292C243.253 274.002 242.652 275.204 241.52 275.851L243.762 283.224ZM239.093 269.311H238.099V274.118H239.093C240.272 274.118 240.803 273.494 240.803 272.13V271.298C240.803 269.935 240.272 269.311 239.093 269.311ZM247.841 280.635V283.224H245.252V280.635H247.841Z" fill="#1E1E1E"/>
<path d="M99.8533 370.046C102.488 370.046 103.921 371.479 103.921 374.136V375.431C103.921 378.088 102.488 379.521 99.8533 379.521H98.7671V386.224H96.3173V370.046H99.8533ZM99.7609 372.311H98.7671V377.256H99.7609C100.94 377.256 101.471 376.632 101.471 375.269V374.298C101.471 372.935 100.94 372.311 99.7609 372.311ZM109.514 370.046L112.31 386.224H109.814L109.283 382.549H106.579L106.047 386.224H103.597L106.394 370.046H109.514ZM107.965 373.512H107.896L106.902 380.33H108.959L107.965 373.512ZM117.095 370.046C119.73 370.046 121.163 371.479 121.163 374.136V375.431C121.163 378.088 119.73 379.521 117.095 379.521H116.009V386.224H113.559V370.046H117.095ZM117.003 372.311H116.009V377.256H117.003C118.181 377.256 118.713 376.632 118.713 375.269V374.298C118.713 372.935 118.181 372.311 117.003 372.311ZM129.349 370.046V372.311H124.912V376.887H128.494V379.152H124.912V383.959H129.349V386.224H122.462V370.046H129.349ZM139.026 386.224H136.437L134.496 379.383H133.364V386.224H130.914V370.046H134.45C137.084 370.046 138.517 371.479 138.517 374.136V375.292C138.517 377.002 137.916 378.204 136.784 378.851L139.026 386.224ZM134.357 372.311H133.364V377.118H134.357C135.536 377.118 136.068 376.494 136.068 375.13V374.298C136.068 372.935 135.536 372.311 134.357 372.311ZM147.358 369.815C149.761 369.815 151.171 371.248 151.171 373.697V375.153L148.814 375.269V373.952C148.814 372.657 148.328 372.08 147.427 372.08C146.526 372.08 146.04 372.657 146.04 373.72V382.549C146.04 383.612 146.526 384.19 147.427 384.19C148.328 384.19 148.814 383.612 148.814 382.318V380.515L151.171 380.631V382.572C151.171 385.022 149.761 386.455 147.358 386.455C144.977 386.455 143.591 385.022 143.591 382.572V373.697C143.591 371.248 144.977 369.815 147.358 369.815ZM156.491 369.815C158.94 369.815 160.443 371.363 160.443 373.905V382.364C160.443 384.906 158.94 386.455 156.491 386.455C154.041 386.455 152.539 384.906 152.539 382.364V373.905C152.539 371.363 154.041 369.815 156.491 369.815ZM156.491 372.08C155.52 372.08 154.988 372.727 154.988 373.928V382.341C154.988 383.543 155.52 384.19 156.491 384.19C157.461 384.19 157.993 383.543 157.993 382.341V373.928C157.993 372.727 157.461 372.08 156.491 372.08ZM169.935 370.046L167.208 386.224H164.041L161.314 370.046H163.81L165.636 382.387H165.682L167.485 370.046H169.935ZM178.073 370.046V372.311H173.636V376.887H177.218V379.152H173.636V383.959H178.073V386.224H171.186V370.046H178.073ZM187.749 386.224H185.161L183.22 379.383H182.087V386.224H179.637V370.046H183.173C185.808 370.046 187.241 371.479 187.241 374.136V375.292C187.241 377.002 186.64 378.204 185.508 378.851L187.749 386.224ZM183.081 372.311H182.087V377.118H183.081C184.26 377.118 184.791 376.494 184.791 375.13V374.298C184.791 372.935 184.26 372.311 183.081 372.311ZM191.903 369.815C194.237 369.815 195.554 371.132 195.554 373.443V373.859L193.197 374.09V373.489C193.197 372.565 192.758 372.08 191.949 372.08C191.14 372.08 190.701 372.565 190.701 373.489V373.697C190.701 374.645 191.117 375.454 192.758 376.84C195 378.736 195.832 380.076 195.832 382.017V382.826C195.832 385.137 194.468 386.455 192.041 386.455C189.615 386.455 188.251 385.137 188.251 382.826V381.74L190.609 381.509V382.664C190.609 383.681 191.071 384.19 191.995 384.19C192.92 384.19 193.382 383.681 193.382 382.664V382.133C193.382 381.116 192.897 380.307 191.256 378.92C189.014 377.025 188.251 375.685 188.251 373.79V373.443C188.251 371.132 189.569 369.815 191.903 369.815ZM208.59 386.224H206.002L204.061 379.383H202.928V386.224H200.478V370.046H204.014C206.649 370.046 208.082 371.479 208.082 374.136V375.292C208.082 377.002 207.481 378.204 206.349 378.851L208.59 386.224ZM203.922 372.311H202.928V377.118H203.922C205.101 377.118 205.632 376.494 205.632 375.13V374.298C205.632 372.935 205.101 372.311 203.922 372.311ZM213.531 369.815C215.98 369.815 217.483 371.363 217.483 373.905V382.364C217.483 384.906 215.98 386.455 213.531 386.455C211.081 386.455 209.579 384.906 209.579 382.364V373.905C209.579 371.363 211.081 369.815 213.531 369.815ZM213.531 372.08C212.56 372.08 212.028 372.727 212.028 373.928V382.341C212.028 383.543 212.56 384.19 213.531 384.19C214.501 384.19 215.033 383.543 215.033 382.341V373.928C215.033 372.727 214.501 372.08 213.531 372.08ZM222.858 369.815C225.262 369.815 226.671 371.248 226.671 373.697V375.153L224.314 375.269V373.952C224.314 372.657 223.829 372.08 222.927 372.08C222.026 372.08 221.541 372.657 221.541 373.72V382.549C221.541 383.612 222.026 384.19 222.927 384.19C223.829 384.19 224.314 383.612 224.314 382.318V380.515L226.671 380.631V382.572C226.671 385.022 225.262 386.455 222.858 386.455C220.478 386.455 219.091 385.022 219.091 382.572V373.697C219.091 371.248 220.478 369.815 222.858 369.815ZM236.707 370.046L233.379 376.471L236.776 386.224H234.165L231.761 379.152L230.698 381.232V386.224H228.248V370.046H230.698V376.794H230.744L234.142 370.046H236.707ZM240.642 383.635V386.224H238.054V383.635H240.642Z" fill="#1E1E1E"/>
<path opacity="0.4" d="M114.312 213.263C114.397 213.22 114.482 213.135 114.567 213.135C116.225 212.072 119.328 210.542 122.303 211.52C123.068 211.775 123.749 212.157 124.386 212.71L131.612 212.157C132.632 212.072 133.61 212.412 134.375 213.093C135.268 213.9 135.778 215.09 135.82 216.366C135.82 216.578 135.82 216.791 135.82 217.003C135.735 217.641 135.565 218.278 135.268 218.831C135.608 219.043 135.905 219.298 136.16 219.596C136.925 220.489 137.308 221.721 137.18 223.039C137.18 223.251 137.138 223.464 137.095 223.677C136.84 224.867 136.16 225.887 135.225 226.524C135.735 227.46 135.863 228.607 135.565 229.712C135.523 229.925 135.438 230.137 135.353 230.307C134.97 231.243 134.375 232.008 133.61 232.518C133.737 233.155 133.737 233.878 133.567 234.558C133.525 234.771 133.44 234.941 133.397 235.153C132.632 237.066 130.762 238.214 128.934 237.873L127.787 237.661C126.086 238.936 123.536 239.489 120.816 239.149C120.093 239.064 119.328 238.894 118.605 238.681C116.565 238.086 112.91 236.471 110.912 232.39L104.238 232.305C103.856 232.305 103.473 232.135 103.218 231.88C102.963 231.625 102.793 231.243 102.793 230.86C102.793 230.477 102.963 230.137 103.218 229.84C103.218 229.84 103.261 229.797 103.303 229.755L104.323 222.231C104.153 221.976 104.068 221.636 104.068 221.339C104.111 220.531 104.791 219.936 105.599 219.978L109.297 220.191C110.742 215.685 114.142 213.348 114.312 213.22L114.312 213.263Z" fill="#16375E"/>
<path d="M107.724 222.104L111.422 222.316C112.867 217.811 116.267 215.473 116.438 215.345C116.523 215.303 116.608 215.218 116.693 215.218C118.35 214.155 121.453 212.625 124.429 213.603C125.194 213.858 125.874 214.24 126.511 214.793L133.737 214.24C134.758 214.155 135.735 214.495 136.5 215.175C137.393 215.983 137.903 217.173 137.945 218.448C137.945 218.661 137.945 218.873 137.945 219.086C137.86 219.723 137.69 220.361 137.393 220.914C137.733 221.126 138.03 221.381 138.286 221.679C139.051 222.571 139.433 223.804 139.306 225.122C139.306 225.334 139.263 225.547 139.221 225.759C138.966 226.949 138.286 227.97 137.35 228.607C137.86 229.542 137.988 230.69 137.69 231.795C137.648 232.008 137.563 232.22 137.478 232.39C137.095 233.325 136.5 234.09 135.735 234.6C135.863 235.238 135.863 235.961 135.693 236.641C135.65 236.853 135.565 237.023 135.523 237.236C134.758 239.149 132.887 240.296 131.06 239.956L129.912 239.744C128.212 241.019 125.661 241.571 122.941 241.231C122.218 241.146 121.453 240.976 120.731 240.764C118.69 240.169 115.035 238.554 113.037 234.473L106.364 234.388C105.981 234.388 105.599 234.218 105.343 233.963C105.088 233.708 104.918 233.325 104.918 232.943C104.918 232.56 105.088 232.22 105.343 231.923C105.343 231.923 105.386 231.88 105.429 231.838L106.449 224.314C106.279 224.059 106.194 223.719 106.194 223.421C106.236 222.614 106.916 222.019 107.724 222.061L107.724 222.104Z" fill="#904790"/>
<path d="M112.527 223.719C113.335 219.978 115.8 217.641 116.82 216.791C117.075 216.578 117.245 216.451 117.245 216.451C117.245 216.451 117.245 216.451 117.288 216.451C118.775 215.473 123.196 213.05 126.001 216.238C126.129 216.238 126.214 216.195 126.341 216.195L133.865 215.6C135.268 215.473 136.458 216.748 136.543 218.448C136.543 218.618 136.543 218.746 136.543 218.916C136.373 220.404 135.353 221.594 134.077 221.679L133.865 221.679L135.65 221.764C137.095 221.849 138.116 223.251 137.945 224.909C137.945 225.079 137.945 225.207 137.86 225.377C137.52 226.822 136.373 227.885 135.055 227.8L132.802 227.715L134.63 228.055C135.948 228.31 136.755 229.797 136.33 231.37C136.33 231.498 136.245 231.668 136.203 231.795C135.778 232.9 134.843 233.623 133.822 233.75C134.332 234.345 134.588 235.281 134.332 236.258C134.332 236.386 134.247 236.556 134.205 236.683C133.695 237.958 132.505 238.724 131.357 238.511L129.487 238.129C126.299 241.274 116.82 240.211 113.972 232.985L106.364 232.9L107.639 223.464L112.527 223.762L112.527 223.719Z" fill="#EDAC6B"/>
<path d="M131.272 238.809L129.614 238.469C128.169 239.786 125.746 240.339 123.068 240.041C122.388 239.956 121.708 239.829 121.028 239.616C119.03 239.021 115.46 237.406 113.76 233.283L106.406 233.198C106.321 233.198 106.194 233.198 106.151 233.07C106.066 232.985 106.024 232.9 106.024 232.815C106.024 232.73 106.024 232.603 106.151 232.56C106.236 232.475 106.321 232.433 106.406 232.475L114.015 232.56C114.185 232.56 114.312 232.645 114.355 232.815C116.012 237.023 119.965 238.936 123.153 239.319C125.321 239.574 127.361 239.191 128.679 238.299L124.514 237.491C123.876 237.363 123.281 236.981 122.941 236.386C122.516 235.663 122.388 234.771 122.601 233.878C122.856 232.858 123.578 231.965 124.471 231.583C124.471 231.583 124.471 231.583 124.471 231.54C124.174 231.073 124.004 230.52 124.004 229.925C123.791 229.755 123.621 229.585 123.493 229.415C122.856 228.65 122.431 227.545 122.218 226.142C121.411 228.097 120.05 229.16 118.265 229.245C118.053 229.245 117.883 229.075 117.883 228.905C117.883 228.692 118.053 228.522 118.223 228.522C120.858 228.437 121.793 225.844 122.091 223.719C122.091 223.124 122.133 222.486 122.218 221.806C122.218 221.594 122.388 221.466 122.601 221.466C122.813 221.466 122.941 221.636 122.941 221.806C122.941 221.806 122.941 222.614 122.813 223.719C122.728 226.694 123.451 228.225 124.046 228.947C124.131 229.075 124.216 229.16 124.301 229.245C124.429 229.372 124.556 229.457 124.684 229.542C124.981 229.755 125.236 229.797 125.364 229.84C125.661 229.712 126.809 229.202 127.532 227.672C127.574 227.545 127.659 227.417 127.702 227.247C127.702 227.162 127.787 227.034 127.829 226.949C127.829 226.822 127.914 226.694 127.957 226.567C128.254 225.419 128.297 224.017 128.084 222.444C128.084 222.316 128.084 222.189 127.999 222.019C127.999 221.934 127.999 221.806 127.957 221.721C127.957 221.594 127.914 221.424 127.872 221.296C127.744 220.786 127.617 220.234 127.489 219.681C127.361 219.213 127.191 218.788 127.021 218.406C126.979 218.278 126.894 218.108 126.851 217.981C126.596 217.471 126.299 217.003 126.001 216.621C125.916 216.493 125.789 216.408 125.704 216.28C125.236 215.813 124.684 215.473 124.089 215.26L123.961 215.26C122.048 214.665 119.923 215.515 118.478 216.323C118.18 216.493 117.925 216.663 117.67 216.791C117.458 216.918 117.288 217.046 117.245 217.088C116.267 217.896 113.845 220.191 113.037 223.847C113.037 224.017 112.824 224.144 112.654 224.144L107.766 223.847C107.681 223.847 107.596 223.804 107.511 223.719C107.426 223.634 107.426 223.549 107.426 223.464C107.426 223.251 107.596 223.124 107.809 223.124L112.399 223.421C113.547 218.788 117.075 216.323 117.203 216.238C117.203 216.238 117.288 216.195 117.33 216.195C118.563 215.43 121.581 213.73 124.259 214.623C125.024 214.878 125.704 215.303 126.299 215.94C126.341 215.94 126.426 215.94 126.469 215.94L133.992 215.345C134.715 215.303 135.395 215.515 135.948 216.025C136.628 216.621 137.01 217.556 137.053 218.533C137.053 218.703 137.053 218.873 137.053 219.043C136.968 220.021 136.5 220.914 135.778 221.509C136.5 221.509 137.138 221.849 137.648 222.444C138.243 223.124 138.541 224.059 138.413 225.079C138.413 225.249 138.37 225.419 138.328 225.589C137.988 226.992 137.01 228.055 135.778 228.267C136.033 228.437 136.288 228.692 136.458 228.99C136.925 229.712 137.053 230.69 136.798 231.583C136.798 231.753 136.713 231.88 136.628 232.05C136.245 233.07 135.438 233.793 134.545 234.09C134.928 234.771 135.013 235.621 134.8 236.428C134.8 236.598 134.715 236.726 134.672 236.896C134.077 238.341 132.717 239.234 131.4 238.936L131.272 238.809ZM128.679 222.444C128.892 224.017 128.807 225.419 128.509 226.652C128.509 226.779 128.424 226.949 128.382 227.077C128.382 227.077 128.382 227.077 128.382 227.119L129.699 227.119L129.912 227.119L135.055 227.417C136.16 227.46 137.18 226.524 137.478 225.249C137.478 225.122 137.52 224.952 137.563 224.824C137.648 224.017 137.435 223.294 136.968 222.741C136.628 222.359 136.118 222.104 135.65 222.061L133.907 221.976L128.722 222.401L128.679 222.444ZM134.672 228.437C134.63 228.437 134.587 228.437 134.502 228.437L132.717 228.097L128.042 227.885C127.064 230.01 125.364 230.562 125.364 230.562C125.321 230.562 125.279 230.562 125.236 230.562C125.236 230.562 125.024 230.562 124.684 230.392C124.726 230.647 124.854 230.902 124.981 231.115C125.024 231.2 125.109 231.328 125.194 231.413C125.321 231.54 125.491 231.668 125.661 231.795C125.831 231.88 125.959 231.923 126.129 231.965L133.227 233.368C133.397 233.368 133.61 233.368 133.822 233.368C134.672 233.24 135.438 232.603 135.778 231.668C135.82 231.54 135.863 231.413 135.905 231.285C136.075 230.562 135.99 229.797 135.65 229.245C135.395 228.862 135.055 228.607 134.63 228.48L134.672 228.437ZM133.652 234.09C133.482 234.09 133.312 234.09 133.142 234.048L126.044 232.645C125.661 232.56 125.279 232.39 124.981 232.135C124.174 232.39 123.536 233.113 123.281 234.048C123.111 234.728 123.196 235.451 123.536 235.961C123.791 236.386 124.174 236.641 124.641 236.726L131.4 238.086C132.377 238.256 133.397 237.576 133.865 236.471C133.907 236.343 133.95 236.216 133.992 236.088C134.162 235.408 134.077 234.686 133.737 234.175C133.737 234.175 133.695 234.09 133.652 234.09ZM134.035 221.296C135.098 221.211 136.033 220.148 136.16 218.873C136.16 218.746 136.16 218.576 136.16 218.448C136.16 217.641 135.82 216.918 135.31 216.493C135.098 216.28 134.843 216.153 134.545 216.068C134.332 216.025 134.12 215.983 133.907 215.983L126.724 216.535C126.979 216.918 127.234 217.343 127.446 217.811C127.489 217.938 127.574 218.108 127.617 218.236C127.787 218.618 127.914 219.043 128.042 219.426C128.212 220.021 128.339 220.616 128.467 221.169C128.467 221.296 128.509 221.466 128.552 221.594L128.552 221.679L134.035 221.254L134.035 221.296Z" fill="#904790"/>
<path opacity="0.4" d="M207.604 211.298C206.159 211.723 203.226 212.616 201.993 215.039C201.611 215.846 201.441 216.739 201.526 217.674L197.445 217.674C196.893 217.674 196.383 218.014 196.213 218.524C196.17 218.694 196.128 218.822 196.128 218.992C196.128 219.332 196.255 219.672 196.51 219.927L196.425 231.658C196.17 231.913 196 232.296 196 232.679C196 233.401 196.638 233.996 197.403 233.954L201.228 233.784C201.441 234.634 201.866 235.441 202.546 236.164C204.331 238.077 207.349 239.097 210.622 238.969C211.302 238.969 211.94 238.927 212.492 238.884L215.17 240.415C216.02 240.882 216.998 241.01 217.891 240.755C218.826 240.5 219.591 239.905 220.058 239.054C220.313 238.587 220.483 238.034 220.526 237.524C220.866 237.524 221.206 237.482 221.504 237.397C222.524 237.099 223.374 236.462 223.884 235.526C224.224 234.931 224.394 234.294 224.394 233.614L228.942 235.399C231.832 236.547 235.02 235.781 236.126 233.699C236.593 232.806 236.678 231.786 236.296 230.766C235.786 229.406 234.468 228.173 232.81 227.493L223.926 224.475L230.387 224.007C233.49 223.752 235.998 221.712 236.083 219.332C236.083 218.312 235.7 217.376 234.935 216.611C233.873 215.591 232.215 215.081 230.43 215.209L217.678 215.294C217.593 215.294 217.38 215.294 216.998 215.209C218.868 212.998 220.781 209.853 219.208 207.388C218.316 205.942 217.295 205.22 216.148 205.135C215.128 205.05 214.32 205.56 213.81 205.9C213.725 205.942 213.555 206.07 213.512 206.07C212.875 206.367 211.982 207.218 210.325 208.918C209.602 209.64 208.327 210.958 207.944 211.213C207.859 211.213 207.732 211.298 207.562 211.341L207.604 211.298Z" fill="#16375E"/>
<path d="M204.671 234.039C206.456 235.951 209.474 236.972 212.747 236.844C213.427 236.844 214.065 236.802 214.618 236.759L217.295 238.289C218.146 238.757 219.123 238.884 220.016 238.629C220.951 238.374 221.716 237.779 222.184 236.929C222.439 236.462 222.609 235.909 222.651 235.399C222.991 235.399 223.331 235.356 223.629 235.271C224.649 234.974 225.499 234.336 226.009 233.401C226.349 232.806 226.519 232.168 226.519 231.488L231.067 233.274C233.958 234.421 237.146 233.656 238.251 231.573C238.718 230.681 238.803 229.661 238.421 228.64C237.911 227.28 236.593 226.048 234.935 225.367L226.052 222.35L232.513 221.882C235.615 221.627 238.123 219.587 238.208 217.206C238.208 216.186 237.826 215.251 237.061 214.486C235.998 213.466 234.34 212.956 232.555 213.083L219.803 213.168C219.718 213.168 219.506 213.168 219.123 213.083C220.993 210.873 222.906 207.728 221.333 205.262C220.441 203.817 219.421 203.094 218.273 203.009C217.253 202.924 216.445 203.434 215.935 203.775C215.85 203.817 215.68 203.945 215.638 203.945C215 204.242 214.107 205.092 212.45 206.792C211.727 207.515 210.452 208.833 210.069 209.088C209.984 209.088 209.857 209.173 209.687 209.215C208.242 209.64 205.309 210.533 204.076 212.956C203.694 213.763 203.524 214.656 203.609 215.591L199.528 215.591C198.975 215.591 198.465 215.931 198.295 216.441C198.253 216.611 198.21 216.739 198.21 216.909C198.21 217.249 198.338 217.589 198.593 217.844L198.508 229.576C198.253 229.831 198.083 230.213 198.083 230.596C198.083 231.318 198.72 231.913 199.485 231.871L203.311 231.701C203.524 232.551 203.949 233.359 204.629 234.081L204.671 234.039Z" fill="#904790"/>
<path d="M212.747 235.356C213.597 235.356 214.32 235.271 215 235.271L218.018 236.972C219.123 237.567 220.483 237.184 221.121 236.122C221.716 235.016 221.334 233.656 220.271 233.019L219.761 232.721L219.761 232.636L221.419 233.571C222.694 234.294 224.266 233.826 224.989 232.594C225.712 231.318 225.244 229.746 224.011 229.023L222.949 228.428L231.705 231.871C233.958 232.764 236.423 232.253 237.231 230.766C238.038 229.278 236.848 227.323 234.595 226.43L219.548 221.329L232.513 220.352C234.935 220.182 236.933 218.652 236.976 216.951C237.018 215.251 235.148 214.018 232.725 214.231L220.016 214.316C219.506 214.316 216.615 213.763 216.615 213.763C216.615 213.763 222.141 208.663 220.356 205.815C218.528 202.967 217.21 204.625 216.318 205.007C215.468 205.39 211.642 209.725 210.792 210.108C209.984 210.49 203.524 211.553 205.394 216.739L199.613 216.739L199.485 230.383L204.629 230.171C204.289 232.934 207.859 235.611 212.747 235.399L212.747 235.356Z" fill="#EDAC6B"/>
<path d="M210.027 210.108C208.752 210.49 206.031 211.298 205.011 213.338C204.544 214.273 204.501 215.336 204.841 216.526L199.57 216.526C199.443 216.526 199.315 216.611 199.23 216.739C199.23 216.739 199.23 216.824 199.23 216.866C199.23 216.951 199.23 217.036 199.315 217.121C199.4 217.206 199.485 217.206 199.57 217.206L205.309 217.206C205.436 217.206 205.521 217.206 205.606 217.079C205.691 216.994 205.691 216.866 205.606 216.739C205.181 215.549 205.181 214.529 205.606 213.636C206.499 211.851 209.007 211.086 210.197 210.745C210.494 210.66 210.664 210.618 210.792 210.533C211.302 210.32 212.407 209.215 213.682 207.898C214.703 206.877 215.978 205.602 216.36 205.432C216.53 205.347 216.7 205.262 216.87 205.135C217.253 204.88 217.72 204.582 218.188 204.625C218.741 204.625 219.336 205.135 219.931 206.112C221.546 208.663 216.318 213.593 216.275 213.636C216.233 213.636 216.19 213.678 216.19 213.763L216.19 213.806C216.19 213.806 216.19 213.891 216.19 213.933L216.19 214.018C218.188 219.502 211.94 223.412 211.897 223.455C211.727 223.54 211.685 223.752 211.77 223.922C211.812 224.007 211.897 224.05 211.982 224.092C212.067 224.092 212.152 224.092 212.237 224.092C212.322 224.092 218.571 220.097 216.998 214.401C218.018 214.614 219.506 214.869 219.888 214.869L232.64 214.784C233.958 214.699 235.19 215.039 235.913 215.719C236.338 216.144 236.551 216.611 236.551 217.164C236.508 218.694 234.638 220.054 232.385 220.224L219.421 221.202C219.251 221.202 219.123 221.329 219.123 221.499C219.123 221.669 219.208 221.797 219.336 221.882L234.383 226.983C235.615 227.493 236.551 228.3 236.891 229.236C237.103 229.788 237.061 230.341 236.806 230.808C236.083 232.168 233.788 232.551 231.705 231.743L222.991 228.3L217.38 225.155C216.7 224.772 215.893 224.687 215.128 224.9C214.362 225.112 213.725 225.623 213.342 226.303C212.79 227.28 212.832 228.47 213.47 229.406C212.492 229.363 211.557 229.873 211.047 230.723C210.962 230.851 210.92 230.978 210.877 231.106C210.409 232.296 210.92 233.656 212.025 234.294L213.725 235.229C213.385 235.229 213.045 235.229 212.662 235.271C209.899 235.399 207.307 234.506 205.904 233.019C205.181 232.211 204.841 231.318 204.926 230.468C204.926 230.383 204.926 230.256 204.841 230.213C204.756 230.128 204.671 230.086 204.586 230.086L199.443 230.298C199.273 230.298 199.103 230.468 199.103 230.638C199.103 230.808 199.273 230.978 199.443 230.978L204.204 230.766C204.204 231.701 204.629 232.679 205.394 233.486C206.966 235.186 209.687 236.121 212.705 235.994C213.512 235.994 214.235 235.909 214.873 235.909L217.805 237.567C218.401 237.907 219.123 237.992 219.803 237.822C220.483 237.652 221.036 237.184 221.376 236.589C221.759 235.909 221.801 235.059 221.503 234.336C222.099 234.591 222.779 234.591 223.416 234.421C224.181 234.209 224.819 233.699 225.201 233.019C225.754 232.041 225.712 230.851 225.116 229.958L231.45 232.466C233.873 233.401 236.508 232.849 237.401 231.233C237.741 230.596 237.783 229.831 237.528 229.108C237.103 228.003 236.04 226.983 234.595 226.43L221.163 221.882L232.47 221.032C235.063 220.819 237.188 219.162 237.273 217.291C237.273 216.569 237.018 215.889 236.423 215.336C235.573 214.529 234.17 214.103 232.64 214.188L219.888 214.273C219.633 214.273 218.401 214.103 217.253 213.848C218.656 212.403 222.184 208.45 220.568 205.9C219.846 204.752 219.081 204.157 218.273 204.115C217.55 204.072 216.998 204.412 216.53 204.71C216.36 204.795 216.233 204.922 216.105 204.965C215.595 205.177 214.49 206.282 213.215 207.6C212.195 208.62 210.92 209.895 210.537 210.065C210.452 210.065 210.239 210.15 210.027 210.235L210.027 210.108ZM223.714 229.448C224.691 230.001 225.116 231.191 224.734 232.253C224.734 232.381 224.649 232.466 224.606 232.551C224.309 233.061 223.841 233.444 223.246 233.614C222.651 233.784 222.056 233.699 221.503 233.401L214.83 229.618C213.852 229.066 213.427 227.875 213.81 226.813C213.81 226.685 213.895 226.6 213.98 226.515C214.277 226.005 214.745 225.623 215.34 225.453C215.935 225.283 216.53 225.368 217.083 225.665L223.756 229.448L223.714 229.448ZM211.515 231.233C211.515 231.148 211.6 231.063 211.642 230.978C212.152 230.043 213.342 229.746 214.277 230.256L220.058 233.529C220.866 233.996 221.248 235.016 220.908 235.866C220.908 235.951 220.823 236.036 220.781 236.122C220.526 236.589 220.101 236.887 219.633 237.014C219.123 237.142 218.613 237.099 218.188 236.844L212.407 233.571C211.6 233.104 211.217 232.083 211.557 231.233L211.515 231.233Z" fill="#904790"/>
<path d="M155 224.5C154.724 224.5 154.5 224.724 154.5 225C154.5 225.276 154.724 225.5 155 225.5V224.5ZM181.354 225.354C181.549 225.158 181.549 224.842 181.354 224.646L178.172 221.464C177.976 221.269 177.66 221.269 177.464 221.464C177.269 221.66 177.269 221.976 177.464 222.172L180.293 225L177.464 227.828C177.269 228.024 177.269 228.34 177.464 228.536C177.66 228.731 177.976 228.731 178.172 228.536L181.354 225.354ZM155 225.5H181V224.5H155V225.5Z" fill="black"/>
<path opacity="0.4" d="M111.215 311.687C109.77 312.112 106.837 313.005 105.604 315.428C105.222 316.235 105.052 317.128 105.137 318.063L101.056 318.063C100.504 318.063 99.9935 318.403 99.8235 318.913C99.781 319.083 99.7385 319.211 99.7385 319.381C99.7385 319.721 99.866 320.061 100.121 320.316L100.036 332.047C99.781 332.302 99.611 332.685 99.611 333.068C99.611 333.79 100.249 334.385 101.014 334.343L104.839 334.173C105.052 335.023 105.477 335.83 106.157 336.553C107.942 338.466 110.96 339.486 114.233 339.358C114.913 339.358 115.551 339.316 116.103 339.273L118.781 340.804C119.631 341.271 120.609 341.399 121.502 341.144C122.437 340.889 123.202 340.294 123.669 339.443C123.924 338.976 124.094 338.423 124.137 337.913C124.477 337.913 124.817 337.871 125.114 337.786C126.135 337.488 126.985 336.851 127.495 335.915C127.835 335.32 128.005 334.683 128.005 334.003L132.553 335.788C135.443 336.936 138.631 336.17 139.737 334.088C140.204 333.195 140.289 332.175 139.907 331.155C139.396 329.795 138.079 328.562 136.421 327.882L127.537 324.864L133.998 324.396C137.101 324.141 139.609 322.101 139.694 319.721C139.694 318.701 139.311 317.765 138.546 317C137.484 315.98 135.826 315.47 134.041 315.598L121.289 315.683C121.204 315.683 120.991 315.683 120.609 315.598C122.479 313.387 124.392 310.242 122.819 307.777C121.927 306.331 120.906 305.609 119.759 305.524C118.739 305.439 117.931 305.949 117.421 306.289C117.336 306.331 117.166 306.459 117.123 306.459C116.486 306.756 115.593 307.607 113.935 309.307C113.213 310.029 111.938 311.347 111.555 311.602C111.47 311.602 111.343 311.687 111.173 311.73L111.215 311.687Z" fill="#16375E"/>
<path d="M108.282 334.428C110.067 336.34 113.085 337.361 116.358 337.233C117.038 337.233 117.676 337.191 118.229 337.148L120.906 338.678C121.756 339.146 122.734 339.273 123.627 339.018C124.562 338.763 125.327 338.168 125.795 337.318C126.05 336.851 126.22 336.298 126.262 335.788C126.602 335.788 126.942 335.745 127.24 335.66C128.26 335.363 129.11 334.725 129.62 333.79C129.96 333.195 130.13 332.557 130.13 331.877L134.678 333.663C137.569 334.81 140.757 334.045 141.862 331.962C142.329 331.07 142.414 330.05 142.032 329.029C141.522 327.669 140.204 326.437 138.546 325.757L129.663 322.739L136.123 322.271C139.226 322.016 141.734 319.976 141.819 317.595C141.819 316.575 141.437 315.64 140.672 314.875C139.609 313.855 137.951 313.345 136.166 313.472L123.414 313.557C123.329 313.557 123.117 313.557 122.734 313.472C124.604 311.262 126.517 308.117 124.944 305.651C124.052 304.206 123.032 303.483 121.884 303.398C120.864 303.313 120.056 303.824 119.546 304.164C119.461 304.206 119.291 304.334 119.249 304.334C118.611 304.631 117.718 305.481 116.061 307.181C115.338 307.904 114.063 309.222 113.68 309.477C113.595 309.477 113.468 309.562 113.298 309.604C111.853 310.029 108.92 310.922 107.687 313.345C107.304 314.152 107.134 315.045 107.219 315.98L103.139 315.98C102.586 315.98 102.076 316.32 101.906 316.83C101.864 317 101.821 317.128 101.821 317.298C101.821 317.638 101.949 317.978 102.204 318.233L102.119 329.965C101.864 330.22 101.694 330.602 101.694 330.985C101.694 331.707 102.331 332.302 103.096 332.26L106.922 332.09C107.134 332.94 107.56 333.748 108.24 334.47L108.282 334.428Z" fill="#904790"/>
<path d="M116.358 335.745C117.208 335.745 117.931 335.66 118.611 335.66L121.629 337.361C122.734 337.956 124.094 337.573 124.732 336.511C125.327 335.405 124.944 334.045 123.882 333.408L123.372 333.11L123.372 333.025L125.029 333.96C126.305 334.683 127.877 334.215 128.6 332.983C129.323 331.707 128.855 330.135 127.622 329.412L126.56 328.817L135.316 332.26C137.569 333.153 140.034 332.643 140.842 331.155C141.649 329.667 140.459 327.712 138.206 326.819L123.159 321.719L136.124 320.741C138.546 320.571 140.544 319.041 140.587 317.34C140.629 315.64 138.759 314.408 136.336 314.62L123.627 314.705C123.117 314.705 120.226 314.152 120.226 314.152C120.226 314.152 125.752 309.052 123.967 306.204C122.139 303.356 120.821 305.014 119.929 305.396C119.079 305.779 115.253 310.114 114.403 310.497C113.595 310.88 107.135 311.942 109.005 317.128L103.224 317.128L103.096 330.772L108.24 330.56C107.9 333.323 111.47 336 116.358 335.788L116.358 335.745Z" fill="#EDAC6B"/>
<path d="M113.638 310.497C112.363 310.879 109.642 311.687 108.622 313.727C108.155 314.663 108.112 315.725 108.452 316.915L103.181 316.915C103.054 316.915 102.926 317 102.841 317.128C102.841 317.128 102.841 317.213 102.841 317.255C102.841 317.34 102.841 317.425 102.926 317.51C103.011 317.595 103.096 317.595 103.181 317.595L108.92 317.595C109.047 317.595 109.132 317.595 109.217 317.468C109.302 317.383 109.302 317.255 109.217 317.128C108.792 315.938 108.792 314.918 109.217 314.025C110.11 312.24 112.618 311.475 113.808 311.135C114.105 311.05 114.275 311.007 114.403 310.922C114.913 310.709 116.018 309.604 117.293 308.287C118.314 307.266 119.589 305.991 119.971 305.821C120.141 305.736 120.311 305.651 120.481 305.524C120.864 305.269 121.331 304.971 121.799 305.014C122.352 305.014 122.947 305.524 123.542 306.501C125.157 309.052 119.929 313.982 119.886 314.025C119.844 314.025 119.801 314.067 119.801 314.152L119.801 314.195C119.801 314.195 119.801 314.28 119.801 314.322L119.801 314.407C121.799 319.891 115.551 323.801 115.508 323.844C115.338 323.929 115.296 324.141 115.381 324.311C115.423 324.396 115.508 324.439 115.593 324.481C115.678 324.481 115.763 324.481 115.848 324.481C115.933 324.481 122.182 320.486 120.609 314.79C121.629 315.003 123.117 315.258 123.499 315.258L136.251 315.173C137.569 315.088 138.801 315.428 139.524 316.108C139.949 316.533 140.162 317 140.162 317.553C140.119 319.083 138.249 320.443 135.996 320.613L123.032 321.591C122.862 321.591 122.734 321.718 122.734 321.889C122.734 322.059 122.819 322.186 122.947 322.271L137.994 327.372C139.226 327.882 140.162 328.689 140.502 329.625C140.714 330.177 140.672 330.73 140.417 331.197C139.694 332.557 137.399 332.94 135.316 332.132L126.602 328.689L120.991 325.544C120.311 325.161 119.504 325.076 118.739 325.289C117.973 325.502 117.336 326.012 116.953 326.692C116.401 327.669 116.443 328.859 117.081 329.795C116.103 329.752 115.168 330.262 114.658 331.112C114.573 331.24 114.53 331.367 114.488 331.495C114.02 332.685 114.53 334.045 115.636 334.683L117.336 335.618C116.996 335.618 116.656 335.618 116.273 335.66C113.51 335.788 110.917 334.895 109.515 333.408C108.792 332.6 108.452 331.707 108.537 330.857C108.537 330.772 108.537 330.645 108.452 330.602C108.367 330.517 108.282 330.475 108.197 330.475L103.054 330.687C102.884 330.687 102.714 330.857 102.714 331.027C102.714 331.197 102.884 331.367 103.054 331.367L107.815 331.155C107.815 332.09 108.24 333.068 109.005 333.875C110.577 335.575 113.298 336.511 116.316 336.383C117.123 336.383 117.846 336.298 118.484 336.298L121.416 337.956C122.012 338.296 122.734 338.381 123.414 338.211C124.094 338.041 124.647 337.573 124.987 336.978C125.369 336.298 125.412 335.448 125.114 334.725C125.71 334.98 126.39 334.98 127.027 334.81C127.792 334.598 128.43 334.088 128.812 333.408C129.365 332.43 129.323 331.24 128.727 330.347L135.061 332.855C137.484 333.79 140.119 333.238 141.012 331.622C141.352 330.985 141.394 330.22 141.139 329.497C140.714 328.392 139.651 327.372 138.206 326.819L124.774 322.271L136.081 321.421C138.674 321.208 140.799 319.551 140.884 317.68C140.884 316.958 140.629 316.278 140.034 315.725C139.184 314.918 137.781 314.493 136.251 314.578L123.499 314.663C123.244 314.663 122.012 314.492 120.864 314.237C122.267 312.792 125.795 308.839 124.179 306.289C123.457 305.141 122.692 304.546 121.884 304.504C121.161 304.461 120.609 304.801 120.141 305.099C119.971 305.184 119.844 305.311 119.716 305.354C119.206 305.566 118.101 306.671 116.826 307.989C115.806 309.009 114.53 310.284 114.148 310.454C114.063 310.454 113.85 310.539 113.638 310.624L113.638 310.497ZM127.325 329.837C128.302 330.39 128.727 331.58 128.345 332.643C128.345 332.77 128.26 332.855 128.217 332.94C127.92 333.45 127.452 333.833 126.857 334.003C126.262 334.173 125.667 334.088 125.114 333.79L118.441 330.007C117.463 329.455 117.038 328.264 117.421 327.202C117.421 327.074 117.506 326.989 117.591 326.904C117.888 326.394 118.356 326.012 118.951 325.842C119.546 325.672 120.141 325.757 120.694 326.054L127.367 329.837L127.325 329.837ZM115.126 331.622C115.126 331.537 115.211 331.452 115.253 331.367C115.763 330.432 116.953 330.135 117.888 330.645L123.669 333.918C124.477 334.385 124.859 335.405 124.519 336.256C124.519 336.341 124.434 336.426 124.392 336.511C124.137 336.978 123.712 337.276 123.244 337.403C122.734 337.531 122.224 337.488 121.799 337.233L116.018 333.96C115.211 333.493 114.828 332.472 115.168 331.622L115.126 331.622Z" fill="#904790"/>
<path opacity="0.4" d="M234.214 317.819C233.789 316.586 232.769 315.693 231.494 315.226C231.621 315.056 231.706 314.886 231.791 314.673C232.216 313.695 232.216 312.59 231.791 311.655C230.856 309.615 228.221 308.595 225.841 309.402L213.301 313.483C212.026 312.208 210.581 311.57 209.008 311.485C205.778 311.358 203.1 313.95 201.995 315.183C201.91 315.226 201.825 315.311 201.782 315.396C201.655 315.523 199.019 318.796 198.892 323.472L195.236 324.279C194.471 324.449 193.961 325.215 194.174 325.98C194.259 326.32 194.429 326.575 194.684 326.787L195.789 334.311C195.789 334.311 195.789 334.353 195.746 334.396C195.576 334.736 195.491 335.118 195.619 335.501C195.704 335.884 195.959 336.181 196.299 336.351C196.639 336.521 197.022 336.564 197.362 336.479L203.865 334.651C206.458 337.159 209.051 337.711 210.836 337.711H210.879C211.049 337.711 211.176 337.711 211.346 337.711C214.024 337.584 216.107 336.309 217.254 335.161L225.501 334.438C226.946 334.268 228.136 333.546 228.773 332.526C229.284 331.675 229.411 330.698 229.114 329.763C228.986 329.38 228.773 328.998 228.476 328.658H228.603C229.836 328.402 230.856 327.765 231.494 326.915C231.579 326.787 231.664 326.617 231.749 326.49C232.216 325.597 232.259 324.619 231.876 323.727C231.749 323.429 231.621 323.174 231.409 322.919C232.557 322.537 233.492 321.814 234.044 320.836C234.554 319.901 234.639 318.796 234.257 317.819H234.214Z" fill="#16375E"/>
<path d="M232.089 315.693C231.664 314.461 230.644 313.568 229.369 313.1C229.496 312.93 229.581 312.76 229.666 312.548C230.091 311.57 230.091 310.465 229.666 309.53C228.731 307.49 226.096 306.469 223.715 307.277L211.176 311.358C209.901 310.082 208.456 309.445 206.883 309.36C203.653 309.232 200.975 311.825 199.87 313.058C199.785 313.1 199.7 313.185 199.657 313.27C199.53 313.398 196.894 316.671 196.767 321.346L193.111 322.154C192.346 322.324 191.836 323.089 192.048 323.854C192.133 324.194 192.304 324.449 192.559 324.662L193.664 332.185C193.664 332.185 193.664 332.228 193.621 332.271C193.451 332.611 193.366 332.993 193.494 333.376C193.579 333.758 193.834 334.056 194.174 334.226C194.514 334.396 194.896 334.438 195.236 334.353L201.74 332.526C204.333 335.033 206.926 335.586 208.711 335.586H208.753C208.923 335.586 209.051 335.586 209.221 335.586C211.899 335.458 213.982 334.183 215.129 333.036L223.375 332.313C224.821 332.143 226.011 331.42 226.648 330.4C227.158 329.55 227.286 328.572 226.988 327.637C226.861 327.255 226.648 326.872 226.351 326.532H226.478C227.711 326.277 228.731 325.64 229.369 324.789C229.454 324.662 229.539 324.492 229.624 324.364C230.091 323.472 230.134 322.494 229.751 321.602C229.624 321.304 229.496 321.049 229.284 320.794C230.431 320.411 231.366 319.689 231.919 318.711C232.429 317.776 232.514 316.671 232.132 315.693H232.089Z" fill="#904790"/>
<path d="M230.899 316.841C230.899 316.586 230.899 316.288 230.771 316.033C230.644 315.693 230.431 315.353 230.176 315.098C230.049 314.971 229.879 314.843 229.709 314.716C229.539 314.588 229.369 314.503 229.199 314.418C229.029 314.333 228.816 314.248 228.603 314.206C228.518 314.206 228.391 314.163 228.306 314.12C228.093 314.12 227.881 314.078 227.668 314.078C227.328 314.078 227.031 314.078 226.691 314.163L222.865 315.056L222.313 315.183L219.422 315.863L217.637 316.288L226.436 313.44C227.073 313.228 227.583 312.888 227.966 312.463C228.348 312.038 228.561 311.528 228.561 311.018C228.561 310.678 228.518 310.295 228.348 309.955C228.136 309.487 227.753 309.062 227.286 308.807C227.201 308.765 227.116 308.722 227.073 308.68C226.946 308.595 226.818 308.552 226.648 308.51C226.521 308.51 226.393 308.425 226.308 308.425C225.628 308.255 224.905 308.255 224.183 308.51L216.957 310.848L210.794 312.845C206.713 308 202.207 312.463 200.89 313.993H200.847C200.847 313.993 200.72 314.163 200.507 314.418C199.784 315.523 198.042 318.456 198.297 322.282L193.536 323.344L194.939 332.781L202.292 330.74C207.351 336.266 213.004 333.503 214.534 331.463L223.29 330.698C225.075 330.485 226.181 329.21 225.713 327.935C225.288 326.617 223.46 325.725 221.675 325.98L220.187 326.15L226.266 324.917C226.606 324.832 226.903 324.747 227.158 324.619C227.243 324.577 227.328 324.534 227.413 324.492C227.583 324.407 227.711 324.322 227.838 324.194C227.923 324.109 228.008 324.067 228.051 323.982C228.561 323.429 228.773 322.664 228.476 321.984C228.476 321.899 228.391 321.814 228.348 321.772C228.348 321.772 228.348 321.729 228.306 321.687C228.306 321.644 228.263 321.602 228.221 321.559C228.221 321.559 228.178 321.474 228.136 321.474C228.136 321.474 228.093 321.389 228.051 321.389C228.051 321.389 227.966 321.304 227.923 321.261C227.923 321.261 227.881 321.219 227.838 321.176C227.796 321.176 227.753 321.091 227.711 321.049C227.711 321.049 227.711 321.049 227.668 321.049C227.626 321.006 227.541 320.964 227.498 320.921C226.776 320.454 225.798 320.199 224.82 320.284L228.646 319.391C228.773 319.391 228.858 319.349 228.944 319.306C229.454 319.136 229.879 318.881 230.219 318.541C230.559 318.201 230.346 318.414 230.389 318.329C230.474 318.244 230.516 318.116 230.601 318.031C230.644 317.946 230.729 317.818 230.771 317.733C230.899 317.478 230.941 317.181 230.941 316.883L230.899 316.841Z" fill="#EDAC6B"/>
<path d="M198.594 322.324C198.339 318.626 200.04 315.736 200.762 314.673C200.805 314.631 200.932 314.461 201.06 314.291C201.187 314.12 201.4 313.908 201.697 313.61C202.887 312.378 204.758 310.933 206.798 311.018C208.031 311.06 209.178 311.698 210.241 312.845C210.326 312.973 210.453 313.058 210.538 313.185C210.794 313.525 211.091 313.908 211.304 314.291C215.767 321.389 212.664 324.194 212.154 324.619C211.941 324.619 211.346 324.619 210.623 324.109C209.858 323.557 208.796 322.324 208.031 319.519C207.861 318.371 207.606 317.563 207.606 317.563C207.563 317.393 207.351 317.266 207.181 317.308C207.01 317.351 206.883 317.521 206.925 317.733C207.053 318.371 207.181 319.009 207.308 319.561C207.606 321.729 207.436 324.449 204.928 325.257C204.715 325.342 204.63 325.512 204.673 325.725C204.715 325.895 204.843 325.98 205.013 325.98C205.013 325.98 205.098 325.98 205.14 325.98C206.883 325.427 207.903 324.024 208.116 321.942C208.711 323.217 209.391 324.152 210.241 324.747C211.389 325.512 212.324 325.342 212.366 325.342C212.409 325.342 212.451 325.342 212.494 325.3C212.536 325.3 217.084 322.112 211.941 313.908C211.771 313.61 211.559 313.313 211.346 313.058L224.225 308.85C225.756 308.34 227.413 308.935 227.966 310.167C228.178 310.678 228.178 311.23 227.966 311.74C227.668 312.378 227.073 312.888 226.266 313.143L214.194 317.053C214.109 317.053 214.024 317.138 213.981 317.223C213.939 317.308 213.939 317.393 213.981 317.521C214.024 317.691 214.151 317.776 214.321 317.776C214.321 317.776 214.407 317.776 214.449 317.776L217.679 316.713L226.733 314.546C228.263 314.163 229.921 314.886 230.346 316.161C230.516 316.671 230.474 317.223 230.219 317.733C229.879 318.371 229.241 318.839 228.433 319.009L224.65 319.901C224.48 319.901 224.268 319.944 224.098 319.986L221.93 320.539L214.747 322.239C214.534 322.282 214.407 322.494 214.492 322.707C214.534 322.919 214.747 323.047 214.959 323.004L224.735 320.666C225.543 320.581 226.351 320.751 226.988 321.091H227.073C227.158 321.176 227.243 321.261 227.328 321.304C227.371 321.346 227.456 321.389 227.498 321.432C227.498 321.432 227.583 321.517 227.626 321.559C227.711 321.644 227.796 321.729 227.838 321.814L227.966 321.729L227.881 321.857C227.966 321.984 228.008 322.069 228.051 322.197C228.221 322.622 228.221 323.047 228.008 323.429C228.008 323.514 227.923 323.557 227.881 323.642C227.838 323.684 227.796 323.769 227.753 323.812C227.371 324.194 226.818 324.492 226.138 324.662L214.662 327C214.577 327 214.492 327.085 214.407 327.17C214.364 327.255 214.321 327.34 214.364 327.467C214.364 327.637 214.534 327.765 214.747 327.765C214.747 327.765 214.789 327.765 214.832 327.765L220.23 326.66L221.718 326.49C223.333 326.277 224.948 327.042 225.373 328.19C225.501 328.615 225.458 329.04 225.245 329.423C224.905 329.975 224.183 330.4 223.29 330.485L214.534 331.25C214.449 331.25 214.321 331.293 214.279 331.42C213.514 332.483 211.601 333.673 209.306 333.801C207.648 333.886 205.098 333.418 202.632 330.698C202.547 330.613 202.377 330.57 202.25 330.57L194.896 332.611C194.811 332.611 194.726 332.696 194.684 332.781C194.641 332.866 194.641 332.951 194.684 333.078C194.684 333.163 194.769 333.248 194.854 333.291C194.939 333.333 195.024 333.333 195.151 333.291L202.292 331.293C204.758 333.928 207.266 334.481 208.966 334.481H209.008C209.136 334.481 209.306 334.481 209.433 334.481C211.899 334.353 213.896 333.121 214.874 331.93L223.503 331.165C224.608 331.038 225.543 330.485 226.011 329.763C226.351 329.21 226.436 328.53 226.223 327.935C225.926 327.042 225.033 326.277 223.928 325.937L226.521 325.427C227.498 325.215 228.263 324.747 228.731 324.109C228.816 324.024 228.858 323.897 228.901 323.812C229.199 323.217 229.241 322.579 228.986 321.942C228.688 321.176 227.966 320.581 227.031 320.241L228.901 319.816C229.921 319.561 230.729 318.966 231.196 318.159C231.579 317.478 231.621 316.713 231.366 315.991C230.771 314.376 228.773 313.483 226.861 313.908H226.648C226.648 313.95 226.818 313.908 226.818 313.908C227.796 313.568 228.603 312.93 228.944 312.08C229.241 311.358 229.241 310.593 228.944 309.912C228.221 308.382 226.138 307.617 224.268 308.212L211.091 312.505C209.901 311.145 208.541 310.422 207.053 310.38C204.205 310.295 201.74 312.718 200.805 313.823C200.762 313.823 200.72 313.865 200.677 313.908C200.55 314.035 197.872 317.393 198.042 322.154L193.579 323.174C193.366 323.217 193.239 323.429 193.281 323.599C193.324 323.812 193.536 323.939 193.706 323.897L198.467 322.834C198.637 322.834 198.764 322.622 198.764 322.452L198.594 322.324Z" fill="#904790"/>
<path d="M210.496 330.188C210.538 330.315 210.666 330.4 210.836 330.4C210.879 330.4 210.964 330.4 211.006 330.4C211.091 330.358 211.176 330.273 211.176 330.188C211.176 330.103 211.176 329.975 211.176 329.89C209.646 326.787 207.351 326.745 207.223 326.745C207.01 326.745 206.84 326.915 206.84 327.127C206.84 327.34 207.01 327.51 207.223 327.51C207.308 327.51 209.178 327.552 210.496 330.23V330.188Z" fill="#904790"/>
<path d="M155 322.5C154.724 322.5 154.5 322.724 154.5 323C154.5 323.276 154.724 323.5 155 323.5V322.5ZM181.354 323.354C181.549 323.158 181.549 322.842 181.354 322.646L178.172 319.464C177.976 319.269 177.66 319.269 177.464 319.464C177.269 319.66 177.269 319.976 177.464 320.172L180.293 323L177.464 325.828C177.269 326.024 177.269 326.34 177.464 326.536C177.66 326.731 177.976 326.731 178.172 326.536L181.354 323.354ZM155 323.5H181V322.5H155V323.5Z" fill="black"/>
<path opacity="0.4" d="M206.519 411.056C206.604 411.013 206.689 410.928 206.774 410.928C208.432 409.865 211.535 408.335 214.51 409.313C215.275 409.568 215.955 409.951 216.593 410.503L223.819 409.951C224.839 409.866 225.817 410.206 226.582 410.886C227.475 411.693 227.985 412.883 228.027 414.159C228.027 414.371 228.027 414.584 228.027 414.796C227.942 415.434 227.772 416.071 227.475 416.624C227.815 416.836 228.112 417.091 228.367 417.389C229.132 418.282 229.515 419.514 229.387 420.832C229.387 421.045 229.345 421.257 229.302 421.47C229.047 422.66 228.367 423.68 227.432 424.317C227.942 425.253 228.07 426.4 227.772 427.505C227.73 427.718 227.645 427.93 227.56 428.101C227.177 429.036 226.582 429.801 225.817 430.311C225.944 430.948 225.944 431.671 225.774 432.351C225.732 432.564 225.647 432.734 225.604 432.946C224.839 434.859 222.969 436.007 221.141 435.667L219.994 435.454C218.293 436.729 215.743 437.282 213.023 436.942C212.3 436.857 211.535 436.687 210.812 436.474C208.772 435.879 205.116 434.264 203.119 430.183L196.445 430.098C196.063 430.098 195.68 429.928 195.425 429.673C195.17 429.418 195 429.036 195 428.653C195 428.271 195.17 427.93 195.425 427.633C195.425 427.633 195.468 427.59 195.51 427.548L196.53 420.024C196.36 419.769 196.275 419.429 196.275 419.132C196.318 418.324 196.998 417.729 197.805 417.772L201.503 417.984C202.949 413.478 206.349 411.141 206.519 411.013L206.519 411.056Z" fill="#16375E"/>
<path d="M199.931 419.897L203.629 420.109C205.074 415.604 208.474 413.266 208.644 413.138C208.729 413.096 208.814 413.011 208.899 413.011C210.557 411.948 213.66 410.418 216.636 411.396C217.401 411.651 218.081 412.033 218.718 412.586L225.944 412.033C226.964 411.948 227.942 412.288 228.707 412.968C229.6 413.776 230.11 414.966 230.152 416.241C230.152 416.454 230.152 416.666 230.152 416.879C230.067 417.517 229.897 418.154 229.6 418.707C229.94 418.919 230.237 419.174 230.492 419.472C231.258 420.364 231.64 421.597 231.513 422.915C231.513 423.127 231.47 423.34 231.428 423.552C231.173 424.743 230.492 425.763 229.557 426.4C230.067 427.335 230.195 428.483 229.897 429.588C229.855 429.801 229.77 430.013 229.685 430.183C229.302 431.118 228.707 431.884 227.942 432.394C228.07 433.031 228.07 433.754 227.9 434.434C227.857 434.646 227.772 434.816 227.73 435.029C226.964 436.942 225.094 438.089 223.266 437.749L222.119 437.537C220.419 438.812 217.868 439.365 215.148 439.024C214.425 438.939 213.66 438.769 212.938 438.557C210.897 437.962 207.242 436.347 205.244 432.266L198.571 432.181C198.188 432.181 197.805 432.011 197.55 431.756C197.295 431.501 197.125 431.118 197.125 430.736C197.125 430.353 197.295 430.013 197.55 429.716C197.55 429.716 197.593 429.673 197.635 429.631L198.656 422.107C198.486 421.852 198.401 421.512 198.401 421.215C198.443 420.407 199.123 419.812 199.931 419.854L199.931 419.897Z" fill="#904790"/>
<path d="M204.734 421.512C205.541 417.772 208.007 415.434 209.027 414.584C209.282 414.371 209.452 414.244 209.452 414.244C209.452 414.244 209.452 414.244 209.495 414.244C210.982 413.266 215.403 410.843 218.208 414.031C218.336 414.031 218.421 413.989 218.548 413.989L226.072 413.393C227.475 413.266 228.665 414.541 228.75 416.241C228.75 416.411 228.75 416.539 228.75 416.709C228.58 418.197 227.56 419.387 226.284 419.472L226.072 419.472L227.857 419.557C229.302 419.642 230.322 421.045 230.152 422.702C230.152 422.872 230.152 423 230.067 423.17C229.727 424.615 228.58 425.678 227.262 425.593L225.009 425.508L226.837 425.848C228.155 426.103 228.962 427.59 228.537 429.163C228.537 429.291 228.452 429.461 228.41 429.588C227.985 430.693 227.049 431.416 226.029 431.543C226.539 432.139 226.794 433.074 226.539 434.051C226.539 434.179 226.454 434.349 226.412 434.476C225.902 435.752 224.712 436.517 223.564 436.304L221.694 435.922C218.506 439.067 209.027 438.004 206.179 430.778L198.571 430.693L199.846 421.257L204.734 421.555L204.734 421.512Z" fill="#EDAC6B"/>
<path d="M223.479 436.602L221.821 436.262C220.376 437.579 217.953 438.132 215.275 437.834C214.595 437.749 213.915 437.622 213.235 437.409C211.237 436.814 207.667 435.199 205.967 431.076L198.613 430.991C198.528 430.991 198.4 430.991 198.358 430.863C198.273 430.778 198.23 430.693 198.23 430.608C198.23 430.523 198.23 430.396 198.358 430.353C198.443 430.268 198.528 430.226 198.613 430.268L206.222 430.353C206.392 430.353 206.519 430.438 206.562 430.608C208.219 434.816 212.172 436.729 215.36 437.112C217.528 437.367 219.568 436.984 220.886 436.092L216.72 435.284C216.083 435.156 215.488 434.774 215.148 434.179C214.723 433.456 214.595 432.564 214.808 431.671C215.063 430.651 215.785 429.758 216.678 429.376C216.678 429.376 216.678 429.376 216.678 429.333C216.38 428.866 216.21 428.313 216.21 427.718C215.998 427.548 215.828 427.378 215.7 427.208C215.063 426.443 214.638 425.338 214.425 423.935C213.618 425.89 212.257 426.953 210.472 427.038C210.26 427.038 210.09 426.868 210.09 426.698C210.09 426.485 210.26 426.315 210.43 426.315C213.065 426.23 214 423.637 214.298 421.512C214.298 420.917 214.34 420.279 214.425 419.599C214.425 419.387 214.595 419.259 214.808 419.259C215.02 419.259 215.148 419.429 215.148 419.599C215.148 419.599 215.148 420.407 215.02 421.512C214.935 424.487 215.658 426.018 216.253 426.74C216.338 426.868 216.423 426.953 216.508 427.038C216.635 427.165 216.763 427.25 216.891 427.335C217.188 427.548 217.443 427.59 217.571 427.633C217.868 427.505 219.016 426.995 219.738 425.465C219.781 425.338 219.866 425.21 219.908 425.04C219.908 424.955 219.993 424.828 220.036 424.743C220.036 424.615 220.121 424.487 220.163 424.36C220.461 423.212 220.504 421.81 220.291 420.237C220.291 420.109 220.291 419.982 220.206 419.812C220.206 419.727 220.206 419.599 220.163 419.514C220.163 419.387 220.121 419.217 220.078 419.089C219.951 418.579 219.823 418.027 219.696 417.474C219.568 417.006 219.398 416.581 219.228 416.199C219.186 416.071 219.101 415.901 219.058 415.774C218.803 415.264 218.506 414.796 218.208 414.414C218.123 414.286 217.996 414.201 217.911 414.074C217.443 413.606 216.891 413.266 216.295 413.053L216.168 413.053C214.255 412.458 212.13 413.308 210.685 414.116C210.387 414.286 210.132 414.456 209.877 414.584C209.665 414.711 209.494 414.839 209.452 414.881C208.474 415.689 206.052 417.984 205.244 421.64C205.244 421.81 205.031 421.937 204.861 421.937L199.973 421.64C199.888 421.64 199.803 421.597 199.718 421.512C199.633 421.427 199.633 421.342 199.633 421.257C199.633 421.045 199.803 420.917 200.016 420.917L204.606 421.215C205.754 416.581 209.282 414.116 209.409 414.031C209.409 414.031 209.495 413.989 209.537 413.989C210.77 413.223 213.788 411.523 216.465 412.416C217.231 412.671 217.911 413.096 218.506 413.734C218.548 413.734 218.633 413.734 218.676 413.734L226.199 413.138C226.922 413.096 227.602 413.308 228.155 413.819C228.835 414.414 229.217 415.349 229.26 416.326C229.26 416.496 229.26 416.666 229.26 416.836C229.175 417.814 228.707 418.707 227.985 419.302C228.707 419.302 229.345 419.642 229.855 420.237C230.45 420.917 230.747 421.852 230.62 422.872C230.62 423.042 230.577 423.212 230.535 423.382C230.195 424.785 229.217 425.848 227.985 426.06C228.24 426.23 228.495 426.485 228.665 426.783C229.132 427.505 229.26 428.483 229.005 429.376C229.005 429.546 228.92 429.673 228.835 429.843C228.452 430.863 227.645 431.586 226.752 431.884C227.134 432.564 227.219 433.414 227.007 434.221C227.007 434.391 226.922 434.519 226.879 434.689C226.284 436.134 224.924 437.027 223.606 436.729L223.479 436.602ZM220.886 420.237C221.099 421.81 221.014 423.212 220.716 424.445C220.716 424.573 220.631 424.743 220.589 424.87C220.589 424.87 220.589 424.87 220.589 424.913L221.906 424.913L222.119 424.913L227.262 425.21C228.367 425.253 229.387 424.317 229.685 423.042C229.685 422.915 229.727 422.745 229.77 422.617C229.855 421.81 229.642 421.087 229.175 420.534C228.835 420.152 228.325 419.897 227.857 419.854L226.114 419.769L220.929 420.194L220.886 420.237ZM226.879 426.23C226.837 426.23 226.794 426.23 226.709 426.23L224.924 425.89L220.248 425.678C219.271 427.803 217.571 428.356 217.571 428.356C217.528 428.356 217.486 428.356 217.443 428.356C217.443 428.356 217.231 428.356 216.891 428.186C216.933 428.441 217.061 428.696 217.188 428.908C217.231 428.993 217.316 429.121 217.401 429.206C217.528 429.333 217.698 429.461 217.868 429.588C218.038 429.673 218.166 429.716 218.336 429.758L225.434 431.161C225.604 431.161 225.817 431.161 226.029 431.161C226.879 431.033 227.645 430.396 227.985 429.461C228.027 429.333 228.07 429.206 228.112 429.078C228.282 428.356 228.197 427.59 227.857 427.038C227.602 426.655 227.262 426.4 226.837 426.273L226.879 426.23ZM225.859 431.884C225.689 431.884 225.519 431.884 225.349 431.841L218.251 430.438C217.868 430.353 217.486 430.183 217.188 429.928C216.38 430.183 215.743 430.906 215.488 431.841C215.318 432.521 215.403 433.244 215.743 433.754C215.998 434.179 216.38 434.434 216.848 434.519L223.606 435.879C224.584 436.049 225.604 435.369 226.072 434.264C226.114 434.136 226.157 434.009 226.199 433.881C226.369 433.201 226.284 432.479 225.944 431.969C225.944 431.969 225.902 431.884 225.859 431.884ZM226.242 419.089C227.304 419.004 228.24 417.942 228.367 416.666C228.367 416.539 228.367 416.369 228.367 416.241C228.367 415.434 228.027 414.711 227.517 414.286C227.304 414.074 227.049 413.946 226.752 413.861C226.539 413.819 226.327 413.776 226.114 413.776L218.931 414.329C219.186 414.711 219.441 415.136 219.653 415.604C219.696 415.731 219.781 415.901 219.823 416.029C219.993 416.411 220.121 416.836 220.248 417.219C220.419 417.814 220.546 418.409 220.674 418.962C220.674 419.089 220.716 419.259 220.759 419.387L220.759 419.472L226.242 419.047L226.242 419.089Z" fill="#904790"/>
<path opacity="0.4" d="M147.214 418.819C146.789 417.586 145.769 416.693 144.494 416.226C144.621 416.056 144.706 415.886 144.791 415.673C145.216 414.695 145.216 413.59 144.791 412.655C143.856 410.615 141.221 409.595 138.841 410.402L126.301 414.483C125.026 413.208 123.581 412.57 122.008 412.485C118.778 412.358 116.1 414.95 114.995 416.183C114.91 416.226 114.825 416.311 114.782 416.396C114.655 416.523 112.019 419.796 111.892 424.472L108.236 425.279C107.471 425.449 106.961 426.215 107.174 426.98C107.259 427.32 107.429 427.575 107.684 427.787L108.789 435.311C108.789 435.311 108.789 435.353 108.746 435.396C108.576 435.736 108.491 436.118 108.619 436.501C108.704 436.884 108.959 437.181 109.299 437.351C109.639 437.521 110.022 437.564 110.362 437.479L116.865 435.651C119.458 438.159 122.051 438.711 123.836 438.711H123.879C124.049 438.711 124.176 438.711 124.346 438.711C127.024 438.584 129.107 437.309 130.254 436.161L138.501 435.438C139.946 435.268 141.136 434.546 141.773 433.526C142.284 432.675 142.411 431.698 142.114 430.763C141.986 430.38 141.773 429.998 141.476 429.658H141.603C142.836 429.402 143.856 428.765 144.494 427.915C144.579 427.787 144.664 427.617 144.749 427.49C145.216 426.597 145.259 425.619 144.876 424.727C144.749 424.429 144.621 424.174 144.409 423.919C145.557 423.537 146.492 422.814 147.044 421.836C147.554 420.901 147.639 419.796 147.257 418.819H147.214Z" fill="#16375E"/>
<path d="M145.089 416.693C144.664 415.461 143.644 414.568 142.369 414.1C142.496 413.93 142.581 413.76 142.666 413.548C143.091 412.57 143.091 411.465 142.666 410.53C141.731 408.49 139.096 407.469 136.715 408.277L124.176 412.358C122.901 411.082 121.456 410.445 119.883 410.36C116.653 410.232 113.975 412.825 112.87 414.058C112.785 414.1 112.7 414.185 112.657 414.27C112.53 414.398 109.894 417.671 109.767 422.346L106.111 423.154C105.346 423.324 104.836 424.089 105.048 424.854C105.133 425.194 105.304 425.449 105.559 425.662L106.664 433.185C106.664 433.185 106.664 433.228 106.621 433.271C106.451 433.611 106.366 433.993 106.494 434.376C106.579 434.758 106.834 435.056 107.174 435.226C107.514 435.396 107.896 435.438 108.236 435.353L114.74 433.526C117.333 436.033 119.926 436.586 121.711 436.586H121.753C121.923 436.586 122.051 436.586 122.221 436.586C124.899 436.458 126.982 435.183 128.129 434.036L136.375 433.313C137.821 433.143 139.011 432.42 139.648 431.4C140.158 430.55 140.286 429.572 139.988 428.637C139.861 428.255 139.648 427.872 139.351 427.532H139.478C140.711 427.277 141.731 426.64 142.369 425.789C142.454 425.662 142.539 425.492 142.624 425.364C143.091 424.472 143.134 423.494 142.751 422.602C142.624 422.304 142.496 422.049 142.284 421.794C143.431 421.411 144.366 420.689 144.919 419.711C145.429 418.776 145.514 417.671 145.132 416.693H145.089Z" fill="#904790"/>
<path d="M143.899 417.841C143.899 417.586 143.899 417.288 143.771 417.033C143.644 416.693 143.431 416.353 143.176 416.098C143.049 415.971 142.879 415.843 142.709 415.716C142.539 415.588 142.369 415.503 142.199 415.418C142.029 415.333 141.816 415.248 141.603 415.206C141.518 415.206 141.391 415.163 141.306 415.12C141.093 415.12 140.881 415.078 140.668 415.078C140.328 415.078 140.031 415.078 139.691 415.163L135.865 416.056L135.313 416.183L132.422 416.863L130.637 417.288L139.436 414.44C140.073 414.228 140.583 413.888 140.966 413.463C141.348 413.038 141.561 412.528 141.561 412.018C141.561 411.678 141.518 411.295 141.348 410.955C141.136 410.487 140.753 410.062 140.286 409.807C140.201 409.765 140.116 409.722 140.073 409.68C139.946 409.595 139.818 409.552 139.648 409.51C139.521 409.51 139.393 409.425 139.308 409.425C138.628 409.255 137.905 409.255 137.183 409.51L129.957 411.848L123.794 413.845C119.713 409 115.207 413.463 113.89 414.993H113.847C113.847 414.993 113.72 415.163 113.507 415.418C112.784 416.523 111.042 419.456 111.297 423.282L106.536 424.344L107.939 433.781L115.292 431.74C120.351 437.266 126.004 434.503 127.534 432.463L136.29 431.698C138.075 431.485 139.181 430.21 138.713 428.935C138.288 427.617 136.46 426.725 134.675 426.98L133.187 427.15L139.266 425.917C139.606 425.832 139.903 425.747 140.158 425.619C140.243 425.577 140.328 425.534 140.413 425.492C140.583 425.407 140.711 425.322 140.838 425.194C140.923 425.109 141.008 425.067 141.051 424.982C141.561 424.429 141.773 423.664 141.476 422.984C141.476 422.899 141.391 422.814 141.348 422.772C141.348 422.772 141.348 422.729 141.306 422.687C141.306 422.644 141.263 422.602 141.221 422.559C141.221 422.559 141.178 422.474 141.136 422.474C141.136 422.474 141.093 422.389 141.051 422.389C141.051 422.389 140.966 422.304 140.923 422.261C140.923 422.261 140.881 422.219 140.838 422.176C140.796 422.176 140.753 422.091 140.711 422.049C140.711 422.049 140.711 422.049 140.668 422.049C140.626 422.006 140.541 421.964 140.498 421.921C139.776 421.454 138.798 421.199 137.82 421.284L141.646 420.391C141.773 420.391 141.858 420.349 141.944 420.306C142.454 420.136 142.879 419.881 143.219 419.541C143.559 419.201 143.346 419.414 143.389 419.329C143.474 419.244 143.516 419.116 143.601 419.031C143.644 418.946 143.729 418.818 143.771 418.733C143.899 418.478 143.941 418.181 143.941 417.883L143.899 417.841Z" fill="#EDAC6B"/>
<path d="M111.594 423.324C111.339 419.626 113.04 416.736 113.762 415.673C113.805 415.631 113.932 415.461 114.06 415.291C114.187 415.12 114.4 414.908 114.697 414.61C115.887 413.378 117.758 411.933 119.798 412.018C121.031 412.06 122.178 412.698 123.241 413.845C123.326 413.973 123.453 414.058 123.538 414.185C123.794 414.525 124.091 414.908 124.304 415.291C128.767 422.389 125.664 425.194 125.154 425.619C124.941 425.619 124.346 425.619 123.623 425.109C122.858 424.557 121.796 423.324 121.031 420.519C120.861 419.371 120.606 418.563 120.606 418.563C120.563 418.393 120.351 418.266 120.181 418.308C120.01 418.351 119.883 418.521 119.925 418.733C120.053 419.371 120.181 420.009 120.308 420.561C120.606 422.729 120.436 425.449 117.928 426.257C117.715 426.342 117.63 426.512 117.673 426.725C117.715 426.895 117.843 426.98 118.013 426.98C118.013 426.98 118.098 426.98 118.14 426.98C119.883 426.427 120.903 425.024 121.116 422.942C121.711 424.217 122.391 425.152 123.241 425.747C124.389 426.512 125.324 426.342 125.366 426.342C125.409 426.342 125.451 426.342 125.494 426.3C125.536 426.3 130.084 423.112 124.941 414.908C124.771 414.61 124.559 414.313 124.346 414.058L137.225 409.85C138.756 409.34 140.413 409.935 140.966 411.167C141.178 411.678 141.178 412.23 140.966 412.74C140.668 413.378 140.073 413.888 139.266 414.143L127.194 418.053C127.109 418.053 127.024 418.138 126.981 418.223C126.939 418.308 126.939 418.393 126.981 418.521C127.024 418.691 127.151 418.776 127.321 418.776C127.321 418.776 127.407 418.776 127.449 418.776L130.679 417.713L139.733 415.546C141.263 415.163 142.921 415.886 143.346 417.161C143.516 417.671 143.474 418.223 143.219 418.733C142.879 419.371 142.241 419.839 141.433 420.009L137.65 420.901C137.48 420.901 137.268 420.944 137.098 420.986L134.93 421.539L127.747 423.239C127.534 423.282 127.407 423.494 127.492 423.707C127.534 423.919 127.747 424.047 127.959 424.004L137.735 421.666C138.543 421.581 139.351 421.751 139.988 422.091H140.073C140.158 422.176 140.243 422.261 140.328 422.304C140.371 422.346 140.456 422.389 140.498 422.432C140.498 422.432 140.583 422.517 140.626 422.559C140.711 422.644 140.796 422.729 140.838 422.814L140.966 422.729L140.881 422.857C140.966 422.984 141.008 423.069 141.051 423.197C141.221 423.622 141.221 424.047 141.008 424.429C141.008 424.514 140.923 424.557 140.881 424.642C140.838 424.684 140.796 424.769 140.753 424.812C140.371 425.194 139.818 425.492 139.138 425.662L127.662 428C127.577 428 127.492 428.085 127.407 428.17C127.364 428.255 127.321 428.34 127.364 428.467C127.364 428.637 127.534 428.765 127.747 428.765C127.747 428.765 127.789 428.765 127.832 428.765L133.23 427.66L134.718 427.49C136.333 427.277 137.948 428.042 138.373 429.19C138.501 429.615 138.458 430.04 138.245 430.423C137.905 430.975 137.183 431.4 136.29 431.485L127.534 432.25C127.449 432.25 127.321 432.293 127.279 432.42C126.514 433.483 124.601 434.673 122.306 434.801C120.648 434.886 118.098 434.418 115.632 431.698C115.547 431.613 115.377 431.57 115.25 431.57L107.896 433.611C107.811 433.611 107.726 433.696 107.684 433.781C107.641 433.866 107.641 433.951 107.684 434.078C107.684 434.163 107.769 434.248 107.854 434.291C107.939 434.333 108.024 434.333 108.151 434.291L115.292 432.293C117.758 434.928 120.266 435.481 121.966 435.481H122.008C122.136 435.481 122.306 435.481 122.433 435.481C124.899 435.353 126.896 434.121 127.874 432.93L136.503 432.165C137.608 432.038 138.543 431.485 139.011 430.763C139.351 430.21 139.436 429.53 139.223 428.935C138.926 428.042 138.033 427.277 136.928 426.937L139.521 426.427C140.498 426.215 141.263 425.747 141.731 425.109C141.816 425.024 141.858 424.897 141.901 424.812C142.199 424.217 142.241 423.579 141.986 422.942C141.688 422.176 140.966 421.581 140.031 421.241L141.901 420.816C142.921 420.561 143.729 419.966 144.196 419.159C144.579 418.478 144.621 417.713 144.366 416.991C143.771 415.376 141.773 414.483 139.861 414.908H139.648C139.648 414.95 139.818 414.908 139.818 414.908C140.796 414.568 141.603 413.93 141.944 413.08C142.241 412.358 142.241 411.593 141.944 410.912C141.221 409.382 139.138 408.617 137.268 409.212L124.091 413.505C122.901 412.145 121.541 411.422 120.053 411.38C117.205 411.295 114.74 413.718 113.805 414.823C113.762 414.823 113.72 414.865 113.677 414.908C113.55 415.035 110.872 418.393 111.042 423.154L106.579 424.174C106.366 424.217 106.239 424.429 106.281 424.599C106.324 424.812 106.536 424.939 106.706 424.897L111.467 423.834C111.637 423.834 111.764 423.622 111.764 423.452L111.594 423.324Z" fill="#904790"/>
<path d="M123.496 431.188C123.538 431.315 123.666 431.4 123.836 431.4C123.879 431.4 123.964 431.4 124.006 431.4C124.091 431.358 124.176 431.273 124.176 431.188C124.176 431.103 124.176 430.975 124.176 430.89C122.646 427.787 120.351 427.745 120.223 427.745C120.01 427.745 119.84 427.915 119.84 428.127C119.84 428.34 120.01 428.51 120.223 428.51C120.308 428.51 122.178 428.552 123.496 431.23V431.188Z" fill="#904790"/>
<path d="M155 423.5C154.724 423.5 154.5 423.724 154.5 424C154.5 424.276 154.724 424.5 155 424.5V423.5ZM181.354 424.354C181.549 424.158 181.549 423.842 181.354 423.646L178.172 420.464C177.976 420.269 177.66 420.269 177.464 420.464C177.269 420.66 177.269 420.976 177.464 421.172L180.293 424L177.464 426.828C177.269 427.024 177.269 427.34 177.464 427.536C177.66 427.731 177.976 427.731 178.172 427.536L181.354 424.354ZM155 424.5H181V423.5H155V424.5Z" fill="black"/>
</svg>
