<svg width="61" height="55" viewBox="0 0 61 55" fill="none" xmlns="http://www.w3.org/2000/svg">
<path opacity="0.4" d="M16.5668 11.8468C14.5036 12.4536 10.3164 13.728 8.55657 17.1869C8.01041 18.3399 7.76767 19.6143 7.88904 20.9493L2.0634 20.9493C1.27451 20.9493 0.546306 21.4348 0.30357 22.163C0.242887 22.4057 0.182214 22.5878 0.182214 22.8305C0.182214 23.316 0.364262 23.8015 0.728364 24.1656L0.606988 40.9143C0.242886 41.2784 0.000150809 41.8245 0.000150785 42.3707C0.00015074 43.4023 0.910418 44.2519 2.00273 44.1912L7.46426 43.9485C7.76768 45.1622 8.37451 46.3151 9.34545 47.3468C11.8942 50.0775 16.2027 51.5339 20.8754 51.3519C21.8463 51.3519 22.7566 51.2912 23.5455 51.2305L27.3685 53.4151C28.5822 54.0827 29.9779 54.2647 31.2523 53.9006C32.5873 53.5365 33.6796 52.6869 34.3472 51.4733C34.7113 50.8057 34.954 50.0168 35.0147 49.2886C35.5002 49.2886 35.9856 49.228 36.4104 49.1066C37.8668 48.6818 39.0805 47.7715 39.8087 46.4365C40.2942 45.5869 40.5369 44.6767 40.5369 43.7057L47.0301 46.2545C51.1566 47.8929 55.7079 46.8006 57.2856 43.8271C57.9532 42.5527 58.0745 41.0963 57.5284 39.6399C56.8002 37.6981 54.919 35.9382 52.5523 34.9673L39.8694 30.6587L49.0933 29.9912C53.5232 29.6271 57.1036 26.7143 57.2249 23.316C57.2249 21.8596 56.6788 20.5245 55.5865 19.4322C54.0694 17.9758 51.7027 17.2476 49.154 17.4297L30.9489 17.551C30.8275 17.551 30.5241 17.551 29.9779 17.4297C32.648 14.2741 35.3788 9.78352 33.1335 6.26386C31.8591 4.20061 30.4027 3.16898 28.7643 3.04761C27.3078 2.92624 26.1549 3.65446 25.4266 4.13993C25.3053 4.20061 25.0626 4.38266 25.0019 4.38266C24.0916 4.80745 22.8173 6.02113 20.4506 8.44848C19.419 9.4801 17.5984 11.3613 17.0523 11.7254C16.9309 11.7254 16.7489 11.8468 16.5061 11.9074L16.5668 11.8468Z" fill="#16375E"/>
<path d="M12.3795 44.3126C14.9282 47.0433 19.2368 48.4998 23.9094 48.3177C24.8804 48.3177 25.7906 48.257 26.5795 48.1964L30.4026 50.381C31.6163 51.0485 33.012 51.2305 34.2863 50.8664C35.6214 50.5023 36.7137 49.6528 37.3812 48.4391C37.7453 47.7716 37.9881 46.9827 38.0487 46.2545C38.5342 46.2545 39.0197 46.1938 39.4445 46.0724C40.9009 45.6476 42.1146 44.7374 42.8428 43.4023C43.3282 42.5527 43.571 41.6425 43.571 40.6716L50.0641 43.2203C54.1906 44.8587 58.7419 43.7664 60.3197 40.7929C60.9872 39.5186 61.1086 38.0622 60.5624 36.6058C59.8342 34.6639 57.953 32.904 55.5864 31.9331L42.9034 27.6245L52.1274 26.957C56.5573 26.5929 60.1376 23.6801 60.259 20.2818C60.259 18.8254 59.7128 17.4904 58.6205 16.398C57.1034 14.9416 54.7368 14.2134 52.1881 14.3955L33.9829 14.5169C33.8616 14.5169 33.5581 14.5169 33.012 14.3955C35.6821 11.2399 38.4128 6.74934 36.1675 3.22968C34.8932 1.16643 33.4368 0.134798 31.7983 0.0134305C30.3419 -0.107937 29.1889 0.620279 28.4607 1.10575C28.3393 1.16643 28.0966 1.34848 28.0359 1.34848C27.1257 1.77327 25.8513 2.98695 23.4846 5.4143C22.453 6.44592 20.6325 8.32712 20.0864 8.69122C19.965 8.69122 19.7829 8.81258 19.5402 8.87326C17.477 9.4801 13.2898 10.7545 11.5299 14.2134C10.9838 15.3664 10.741 16.6408 10.8624 17.9758L5.03678 17.9758C4.2479 17.9758 3.51968 18.4613 3.27694 19.1895C3.21626 19.4322 3.15558 19.6143 3.15558 19.857C3.15558 20.3425 3.33763 20.828 3.70173 21.1921L3.58036 37.9408C3.21626 38.3049 2.97352 38.8511 2.97352 39.3972C2.97352 40.4288 3.88379 41.2784 4.9761 41.2177L10.4376 40.975C10.7411 42.1886 11.3479 43.3416 12.3188 44.3733L12.3795 44.3126Z" fill="#133037"/>
<path d="M23.9093 46.1938C25.123 46.1938 26.1547 46.0725 27.1256 46.0725L31.4342 48.4998C33.0119 49.3494 34.9538 48.8032 35.8641 47.2861C36.7136 45.7084 36.1675 43.7665 34.6504 42.8562L33.9222 42.4314L33.9222 42.3101L36.2889 43.6451C38.1094 44.6767 40.3547 44.0092 41.3863 42.2494C42.4179 40.4289 41.7504 38.1836 39.9905 37.1519L38.4735 36.3024L50.9743 41.2178C54.1906 42.4921 57.7102 41.7639 58.8632 39.64C60.0162 37.516 58.317 34.7246 55.1008 33.4502L33.6188 26.1682L52.1273 24.7725C55.5863 24.5297 58.4384 22.3451 58.4991 19.9178C58.5598 17.4904 55.8897 15.7306 52.4307 16.034L34.2863 16.1554C33.5581 16.1554 29.4316 15.3665 29.4316 15.3665C29.4316 15.3665 37.3205 8.08442 34.7718 4.0186C32.1624 -0.0472088 30.2812 2.31946 29.0068 2.86562C27.7931 3.41177 22.3316 9.60151 21.1179 10.1477C19.9649 10.6938 10.741 12.2109 13.4111 19.6143L5.15807 19.6143L4.97603 39.0938L12.3188 38.7904C11.8333 42.7349 16.9307 46.5579 23.9093 46.2545L23.9093 46.1938Z" fill="#EDAC6B"/>
<path d="M20.0258 10.1476C18.2053 10.6938 14.3215 11.8468 12.8651 14.7596C12.1976 16.0947 12.1369 17.6117 12.6224 19.3109L5.0976 19.3109C4.91554 19.3109 4.7335 19.4323 4.61213 19.6143C4.61213 19.6143 4.61213 19.7357 4.61213 19.7964C4.61213 19.9177 4.61214 20.0391 4.73351 20.1605C4.85488 20.2818 4.97623 20.2818 5.0976 20.2818L13.2899 20.2818C13.472 20.2818 13.5933 20.2818 13.7147 20.0998C13.8361 19.9784 13.8361 19.7964 13.7147 19.6143C13.1079 17.9152 13.1079 16.4587 13.7147 15.1844C14.9891 12.6357 18.5694 11.5434 20.2685 11.0579C20.6933 10.9365 20.9361 10.8758 21.1181 10.7545C21.8463 10.4511 23.4241 8.87327 25.2446 6.99208C26.701 5.53567 28.5215 3.71516 29.0677 3.47242C29.3104 3.35106 29.5532 3.22968 29.7959 3.04763C30.3421 2.68353 31.0096 2.25875 31.6771 2.31944C32.466 2.31944 33.3156 3.04764 34.1651 4.44337C36.4711 8.0844 29.007 15.1237 28.9463 15.1844C28.8856 15.1844 28.825 15.2451 28.825 15.3664L28.825 15.4271C28.825 15.4271 28.825 15.5485 28.825 15.6092L28.825 15.7306C31.6771 23.5588 22.7566 29.1417 22.6959 29.2023C22.4532 29.3237 22.3925 29.6271 22.5138 29.8699C22.5745 29.9912 22.6959 30.0519 22.8173 30.1126C22.9386 30.1126 23.06 30.1126 23.1814 30.1126C23.3027 30.1126 32.2232 24.4083 29.9779 16.2767C31.4344 16.5801 33.5583 16.9442 34.1044 16.9442L52.3096 16.8229C54.1908 16.7015 55.9506 17.187 56.9822 18.1579C57.5891 18.7647 57.8925 19.4323 57.8925 20.2211C57.8318 22.4058 55.1617 24.3476 51.9455 24.5904L33.4369 25.9861C33.1942 25.9861 33.0121 26.1681 33.0121 26.4109C33.0121 26.6536 33.1335 26.8357 33.3155 26.9571L54.7976 34.2391C56.5574 34.9673 57.8925 36.1203 58.378 37.4553C58.6814 38.2442 58.6207 39.0331 58.2566 39.7006C57.225 41.6425 53.948 42.1887 50.9745 41.0357L38.5344 36.1203L30.5241 31.6297C29.5532 31.0835 28.4002 30.9622 27.3079 31.2656C26.2156 31.569 25.3053 32.2972 24.7592 33.2682C23.9703 34.6639 24.0309 36.363 24.9412 37.6981C23.5455 37.6374 22.2104 38.3656 21.4822 39.5793C21.3608 39.7613 21.3002 39.9434 21.2395 40.1254C20.572 41.8246 21.3002 43.7664 22.878 44.6767L25.3053 46.0118C24.8198 46.0118 24.3344 46.0118 23.7882 46.0724C19.8438 46.2545 16.1421 44.9801 14.1395 42.8562C13.1079 41.7032 12.6224 40.4288 12.7438 39.2152C12.7438 39.0938 12.7438 38.9117 12.6224 38.8511C12.501 38.7297 12.3797 38.669 12.2583 38.669L4.91555 38.9724C4.67282 38.9724 4.43009 39.2152 4.43009 39.4579C4.43009 39.7006 4.67282 39.9434 4.91555 39.9434L11.7121 39.64C11.7121 40.975 12.319 42.3707 13.4113 43.5237C15.6566 45.9511 19.5403 47.2861 23.8489 47.1041C25.0019 47.1041 26.0335 46.9827 26.9438 46.9827L31.1309 49.3494C31.9805 49.8348 33.0121 49.9562 33.9831 49.7135C34.954 49.4707 35.7429 48.8032 36.2284 47.9536C36.7745 46.9827 36.8352 45.769 36.4104 44.7374C37.26 45.1015 38.2309 45.1015 39.1412 44.8588C40.2335 44.5553 41.1438 43.8271 41.6899 42.8562C42.4788 41.4605 42.4181 39.7613 41.5685 38.487L50.6104 42.0673C54.0694 43.4024 57.8318 42.6135 59.1062 40.3075C59.5916 39.3972 59.6523 38.3049 59.2882 37.2733C58.6814 35.6955 57.1643 34.2391 55.101 33.4502L35.925 26.9571L52.0668 25.7434C55.7685 25.44 58.8027 23.0733 58.9241 20.4032C58.9241 19.3716 58.56 18.4006 57.7104 17.6117C56.4968 16.4587 54.4942 15.8519 52.3096 15.9733L34.1044 16.0946C33.7403 16.0946 31.9805 15.8519 30.342 15.4878C32.3446 13.4246 37.3814 7.78098 35.0754 4.13995C34.0438 2.50149 32.9514 1.65191 31.7985 1.59122C30.7668 1.53054 29.978 2.01601 29.3104 2.44079C29.0677 2.56216 28.8856 2.74422 28.7036 2.8049C27.9754 3.10832 26.3976 4.6861 24.5771 6.5673C23.1207 8.02371 21.3002 9.84422 20.754 10.087C20.6327 10.087 20.3292 10.2083 20.0258 10.3297L20.0258 10.1476ZM39.566 37.7588C40.9617 38.5476 41.5685 40.2468 41.0224 41.7639C41.0224 41.9459 40.901 42.0673 40.8403 42.1887C40.4156 42.9169 39.748 43.463 38.8985 43.7058C38.0489 43.9485 37.1993 43.8271 36.4104 43.4023L26.8831 38.0015C25.4874 37.2126 24.8805 35.5134 25.4267 33.9964C25.4267 33.8143 25.548 33.6929 25.6694 33.5716C26.0942 32.8434 26.7617 32.2972 27.6113 32.0545C28.4609 31.8117 29.3104 31.9331 30.0993 32.3579L39.6267 37.7588L39.566 37.7588ZM22.1497 40.3075C22.1497 40.1861 22.2711 40.0647 22.3318 39.9434C23.06 38.6083 24.7591 38.1835 26.0942 38.9117L34.3472 43.5844C35.5002 44.2519 36.0463 45.7083 35.5609 46.922C35.5609 47.0434 35.4395 47.1647 35.3788 47.2861C35.0147 47.9536 34.4079 48.3784 33.7403 48.5605C33.0121 48.7425 32.2839 48.6818 31.6771 48.3177L23.4241 43.6451C22.2711 42.9776 21.725 41.5212 22.2104 40.3075L22.1497 40.3075Z" fill="#133037"/>
<path d="M20.0258 10.1476C18.2053 10.6938 14.3215 11.8468 12.8651 14.7596C12.1976 16.0947 12.1369 17.6117 12.6224 19.3109L5.0976 19.3109C4.91554 19.3109 4.7335 19.4323 4.61213 19.6143C4.61213 19.6143 4.61213 19.7357 4.61213 19.7964C4.61213 19.9177 4.61214 20.0391 4.73351 20.1605C4.85488 20.2818 4.97623 20.2818 5.0976 20.2818L13.2899 20.2818C13.472 20.2818 13.5933 20.2818 13.7147 20.0998C13.8361 19.9784 13.8361 19.7964 13.7147 19.6143C13.1079 17.9152 13.1079 16.4587 13.7147 15.1844C14.9891 12.6357 18.5694 11.5434 20.2685 11.0579C20.6933 10.9365 20.9361 10.8758 21.1181 10.7545C21.8463 10.4511 23.4241 8.87327 25.2446 6.99208C26.701 5.53567 28.5215 3.71516 29.0677 3.47242C29.3104 3.35106 29.5532 3.22968 29.7959 3.04763C30.3421 2.68353 31.0096 2.25875 31.6771 2.31944C32.466 2.31944 33.3156 3.04764 34.1651 4.44337C36.4711 8.0844 29.007 15.1237 28.9463 15.1844C28.8856 15.1844 28.825 15.2451 28.825 15.3664L28.825 15.4271C28.825 15.4271 28.825 15.5485 28.825 15.6092L28.825 15.7306C31.6771 23.5588 22.7566 29.1417 22.6959 29.2023C22.4532 29.3237 22.3925 29.6271 22.5138 29.8699C22.5745 29.9912 22.6959 30.0519 22.8173 30.1126C22.9386 30.1126 23.06 30.1126 23.1814 30.1126C23.3027 30.1126 32.2232 24.4083 29.9779 16.2767C31.4344 16.5801 33.5583 16.9442 34.1044 16.9442L52.3096 16.8229C54.1908 16.7015 55.9506 17.187 56.9822 18.1579C57.5891 18.7647 57.8925 19.4323 57.8925 20.2211C57.8318 22.4058 55.1617 24.3476 51.9455 24.5904L33.4369 25.9861C33.1942 25.9861 33.0121 26.1681 33.0121 26.4109C33.0121 26.6536 33.1335 26.8357 33.3155 26.9571L54.7976 34.2391C56.5574 34.9673 57.8925 36.1203 58.378 37.4553C58.6814 38.2442 58.6207 39.0331 58.2566 39.7006C57.225 41.6425 53.948 42.1887 50.9745 41.0357L38.5344 36.1203L30.5241 31.6297C29.5532 31.0835 28.4002 30.9622 27.3079 31.2656C26.2156 31.569 25.3053 32.2972 24.7592 33.2682C23.9703 34.6639 24.0309 36.363 24.9412 37.6981C23.5455 37.6374 22.2104 38.3656 21.4822 39.5793C21.3608 39.7613 21.3002 39.9434 21.2395 40.1254C20.572 41.8246 21.3002 43.7664 22.878 44.6767L25.3053 46.0118C24.8198 46.0118 24.3344 46.0118 23.7882 46.0724C19.8438 46.2545 16.1421 44.9801 14.1395 42.8562C13.1079 41.7032 12.6224 40.4288 12.7438 39.2152C12.7438 39.0938 12.7438 38.9117 12.6224 38.8511C12.501 38.7297 12.3797 38.669 12.2583 38.669L4.91555 38.9724C4.67282 38.9724 4.43009 39.2152 4.43009 39.4579C4.43009 39.7006 4.67282 39.9434 4.91555 39.9434L11.7121 39.64C11.7121 40.975 12.319 42.3707 13.4113 43.5237C15.6566 45.9511 19.5403 47.2861 23.8489 47.1041C25.0019 47.1041 26.0335 46.9827 26.9438 46.9827L31.1309 49.3494C31.9805 49.8348 33.0121 49.9562 33.9831 49.7135C34.954 49.4707 35.7429 48.8032 36.2284 47.9536C36.7745 46.9827 36.8352 45.769 36.4104 44.7374C37.26 45.1015 38.2309 45.1015 39.1412 44.8588C40.2335 44.5553 41.1438 43.8271 41.6899 42.8562C42.4788 41.4605 42.4181 39.7613 41.5685 38.487L50.6104 42.0673C54.0694 43.4024 57.8318 42.6135 59.1062 40.3075C59.5916 39.3972 59.6523 38.3049 59.2882 37.2733C58.6814 35.6955 57.1643 34.2391 55.101 33.4502L35.925 26.9571L52.0668 25.7434C55.7685 25.44 58.8027 23.0733 58.9241 20.4032C58.9241 19.3716 58.56 18.4006 57.7104 17.6117C56.4968 16.4587 54.4942 15.8519 52.3096 15.9733L34.1044 16.0946C33.7403 16.0946 31.9805 15.8519 30.342 15.4878C32.3446 13.4246 37.3814 7.78098 35.0754 4.13995C34.0438 2.50149 32.9514 1.65191 31.7985 1.59122C30.7668 1.53054 29.978 2.01601 29.3104 2.44079C29.0677 2.56216 28.8856 2.74422 28.7036 2.8049C27.9754 3.10832 26.3976 4.6861 24.5771 6.5673C23.1207 8.02371 21.3002 9.84422 20.754 10.087C20.6327 10.087 20.3292 10.2083 20.0258 10.3297L20.0258 10.1476ZM39.566 37.7588C40.9617 38.5476 41.5685 40.2468 41.0224 41.7639C41.0224 41.9459 40.901 42.0673 40.8403 42.1887C40.4156 42.9169 39.748 43.463 38.8985 43.7058C38.0489 43.9485 37.1993 43.8271 36.4104 43.4023L26.8831 38.0015C25.4874 37.2126 24.8805 35.5134 25.4267 33.9964C25.4267 33.8143 25.548 33.6929 25.6694 33.5716C26.0942 32.8434 26.7617 32.2972 27.6113 32.0545C28.4609 31.8117 29.3104 31.9331 30.0993 32.3579L39.6267 37.7588L39.566 37.7588ZM22.1497 40.3075C22.1497 40.1861 22.2711 40.0647 22.3318 39.9434C23.06 38.6083 24.7591 38.1835 26.0942 38.9117L34.3472 43.5844C35.5002 44.2519 36.0463 45.7083 35.5609 46.922C35.5609 47.0434 35.4395 47.1647 35.3788 47.2861C35.0147 47.9536 34.4079 48.3784 33.7403 48.5605C33.0121 48.7425 32.2839 48.6818 31.6771 48.3177L23.4241 43.6451C22.2711 42.9776 21.725 41.5212 22.2104 40.3075L22.1497 40.3075Z" fill="#133037"/>
</svg>
