<svg width="57" height="47" viewBox="0 0 57 47" fill="none" xmlns="http://www.w3.org/2000/svg">
<path opacity="0.4" d="M17.8001 3.17657C17.9315 3.11089 18.0629 2.97951 18.1942 2.97951C20.7559 1.33744 25.5507 -1.02714 30.1485 0.483566C31.3308 0.877664 32.3818 1.4688 33.367 2.32268L44.5331 1.46881C46.1095 1.33745 47.6202 1.86292 48.8025 2.91384C50.1818 4.16182 50.97 6.00093 51.0357 7.97142C51.0357 8.29983 51.0357 8.62825 51.0357 8.95666C50.9043 9.9419 50.6416 10.9272 50.1818 11.781C50.7073 12.1095 51.1671 12.5035 51.5612 12.9633C52.7435 14.3427 53.3346 16.2475 53.1376 18.2836C53.1376 18.6121 53.0719 18.9405 53.0062 19.2689C52.6121 21.108 51.5612 22.6844 50.1161 23.6696C50.9043 25.1147 51.1014 26.8881 50.6416 28.5959C50.5759 28.9243 50.4446 29.2527 50.3132 29.5154C49.722 30.9604 48.8025 32.1427 47.6202 32.9309C47.8172 33.9162 47.8172 35.0328 47.5545 36.0837C47.4888 36.4121 47.3575 36.6749 47.2918 37.0033C46.1095 39.959 43.2194 41.7324 40.3951 41.207L38.6216 40.8786C35.9943 42.8491 32.0533 43.7029 27.8496 43.1775C26.733 43.0461 25.5507 42.7834 24.4341 42.455C21.2813 41.5354 15.6326 39.0394 12.5455 32.7339L2.23328 32.6025C1.64214 32.6025 1.05099 32.3398 0.656896 31.9457C0.262799 31.5516 6.68971e-05 30.9604 6.69229e-05 30.3693C6.69487e-05 29.7782 0.262799 29.2527 0.656896 28.7929C0.656896 28.7929 0.722587 28.7272 0.78827 28.6615L2.36466 17.0357C2.10193 16.6416 1.97056 16.1161 1.97056 15.6563C2.03624 14.4083 3.08717 13.4888 4.33514 13.5545L10.0496 13.8829C12.2828 6.92049 17.5374 3.30793 17.8001 3.11088L17.8001 3.17657Z" fill="#16375E"/>
<path d="M7.61923 16.8385L13.3337 17.1669C15.5669 10.2046 20.8215 6.592 21.0842 6.39495C21.2156 6.32927 21.347 6.19791 21.4783 6.19791C24.04 4.55584 28.8348 2.19124 33.4326 3.70195C34.6149 4.09605 35.6658 4.68721 36.6511 5.54108L47.8172 4.68719C49.3936 4.55583 50.9043 5.0813 52.0866 6.13223C53.4659 7.3802 54.2541 9.21931 54.3198 11.1898C54.3198 11.5182 54.3198 11.8466 54.3198 12.175C54.1884 13.1603 53.9257 14.1455 53.4659 14.9994C53.9914 15.3278 54.4512 15.7219 54.8452 16.1817C56.0275 17.561 56.6187 19.4659 56.4216 21.502C56.4216 21.8304 56.356 22.1589 56.2903 22.4873C55.8962 24.3264 54.8453 25.9028 53.4002 26.888C54.1884 28.3331 54.3855 30.1065 53.9257 31.8142C53.86 32.1427 53.7286 32.4711 53.5973 32.7338C53.0061 34.1788 52.0866 35.3611 50.9043 36.1493C51.1013 37.1346 51.1013 38.2512 50.8386 39.3021C50.7729 39.6305 50.6415 39.8932 50.5759 40.2217C49.3936 43.1774 46.5035 44.9508 43.6792 44.4254L41.9057 44.0969C39.2784 46.0674 35.3374 46.9213 31.1337 46.3959C30.0171 46.2645 28.8348 46.0018 27.7182 45.6733C24.5654 44.7538 18.9167 42.2578 15.8296 35.9523L5.51737 35.8209C4.92622 35.8209 4.33508 35.5582 3.94098 35.1641C3.54689 34.77 3.28416 34.1788 3.28416 33.5877C3.28416 32.9965 3.54689 32.4711 3.94098 32.0113C3.94098 32.0113 4.00668 31.9456 4.07236 31.8799L5.64874 20.2541C5.38601 19.86 5.25464 19.3345 5.25464 18.8747C5.32033 17.6267 6.37126 16.7072 7.61923 16.7728L7.61923 16.8385Z" fill="#133037"/>
<path d="M15.0412 19.3345C16.2892 13.5544 20.0988 9.94181 21.6752 8.62815C22.0693 8.29974 22.332 8.1027 22.332 8.1027C22.332 8.1027 22.332 8.1027 22.3977 8.1027C24.6966 6.59199 31.5276 2.84806 35.8627 7.77428C36.0597 7.77428 36.1911 7.70859 36.3881 7.70859L48.014 6.78904C50.1816 6.59199 52.0207 8.56247 52.152 11.1898C52.152 11.4525 52.152 11.6496 52.152 11.9123C51.8893 14.2112 50.3129 16.0503 48.3424 16.1817L48.014 16.1817L50.7727 16.3131C53.0059 16.4444 54.5823 18.612 54.3196 21.1736C54.3196 21.4363 54.3196 21.6334 54.1882 21.8961C53.6627 24.1293 51.8893 25.7714 49.8531 25.64L46.3719 25.5087L49.1963 26.0341C51.2325 26.4282 52.4805 28.7271 51.8236 31.1574C51.8236 31.3544 51.6923 31.6172 51.6266 31.8142C50.9697 33.522 49.5247 34.6386 47.9483 34.8356C48.7365 35.7552 49.1306 37.2002 48.7365 38.7109C48.7365 38.908 48.6052 39.1707 48.5395 39.3678C47.7513 41.3382 45.9122 42.5205 44.1387 42.1921L41.2487 41.601C36.3225 46.4615 21.6752 44.8194 17.2744 33.6533L5.51716 33.522L7.48765 18.9404L15.0412 19.4002L15.0412 19.3345Z" fill="#EDAC6B"/>
<path d="M44.0074 42.6519L41.4458 42.1264C39.2126 44.1626 35.4686 45.0165 31.3306 44.5567C30.2797 44.4253 29.2287 44.2283 28.1778 43.8999C25.0907 42.9803 19.5734 40.4843 16.946 34.1131L5.58289 33.9817C5.45152 33.9817 5.25447 33.9817 5.18879 33.7847C5.05742 33.6533 4.99175 33.522 4.99175 33.3906C4.99175 33.2592 4.99174 33.0622 5.18879 32.9965C5.32015 32.8651 5.45152 32.7994 5.58289 32.8651L17.3401 32.9965C17.6029 32.9965 17.7999 33.1279 17.8656 33.3906C20.4272 39.8932 26.5357 42.8489 31.462 43.4401C34.8118 43.8342 37.9646 43.243 40.0007 41.8637L33.5638 40.6157C32.5786 40.4187 31.659 39.8275 31.1335 38.908C30.4767 37.7913 30.2797 36.412 30.6081 35.0327C31.0022 33.4563 32.1188 32.0769 33.4981 31.4858C33.4981 31.4858 33.4981 31.4858 33.4981 31.4201C33.0384 30.6976 32.7756 29.8437 32.7756 28.9242C32.4472 28.6614 32.1845 28.3987 31.9874 28.136C31.0022 26.9537 30.3454 25.2459 30.0169 23.0784C28.769 26.0998 26.6671 27.7419 23.9084 27.8732C23.58 27.8732 23.3173 27.6105 23.3173 27.3478C23.3173 27.0193 23.58 26.7566 23.8428 26.7566C27.9151 26.6253 29.3601 22.6186 29.8199 19.3344C29.8199 18.4149 29.8856 17.4297 30.0169 16.3787C30.0169 16.0503 30.2797 15.8533 30.6081 15.8533C30.9365 15.8533 31.1335 16.116 31.1335 16.3787C31.1335 16.3787 31.1336 17.6267 30.9365 19.3344C30.8051 23.9323 31.9217 26.2968 32.8413 27.4134C32.9727 27.6105 33.104 27.7419 33.2354 27.8732C33.4325 28.0703 33.6295 28.2016 33.8265 28.333C34.2863 28.6614 34.6804 28.7271 34.8775 28.7928C35.3373 28.5957 37.1107 27.8075 38.2273 25.443C38.293 25.2459 38.4244 25.0489 38.49 24.7861C38.49 24.6548 38.6214 24.4577 38.6871 24.3264C38.6871 24.1293 38.8185 23.9323 38.8841 23.7352C39.3439 21.9618 39.4096 19.7942 39.0812 17.364C39.0812 17.1669 39.0812 16.9699 38.9498 16.7071C38.9498 16.5758 38.9498 16.3787 38.8841 16.2474C38.8841 16.0503 38.8185 15.7876 38.7528 15.5905C38.5557 14.8023 38.3587 13.9485 38.1616 13.0946C37.9646 12.3721 37.7018 11.7152 37.4391 11.1241C37.3734 10.927 37.2421 10.6643 37.1764 10.4673C36.7823 9.67907 36.3225 8.95655 35.8627 8.3654C35.7314 8.16836 35.5343 8.037 35.4029 7.83995C34.6804 7.11744 33.8266 6.59196 32.907 6.26354L32.71 6.26354C29.7542 5.34398 26.4701 6.65764 24.2368 7.90562C23.7771 8.16835 23.383 8.43108 22.9889 8.62813C22.6605 8.82518 22.3977 9.02224 22.332 9.08792C20.8213 10.3359 17.0774 13.8828 15.8294 19.5315C15.8294 19.7942 15.501 19.9913 15.2383 19.9913L7.68475 19.5315C7.55339 19.5315 7.42202 19.4658 7.29065 19.3344C7.15928 19.2031 7.15928 19.0717 7.15928 18.9404C7.15928 18.6119 7.42202 18.4149 7.75044 18.4149L14.8442 18.8747C16.6176 11.7152 22.0693 7.90563 22.2664 7.77426C22.2664 7.77426 22.3977 7.70857 22.4634 7.70857C24.3682 6.52628 29.0317 3.89896 33.1697 5.2783C34.352 5.6724 35.403 6.32923 36.3225 7.31447C36.3882 7.31447 36.5196 7.31447 36.5852 7.31447L48.2111 6.39492C49.3277 6.32923 50.3786 6.65765 51.2325 7.44585C52.2835 8.36541 52.8746 9.81043 52.9403 11.3211C52.9403 11.5839 52.9403 11.8466 52.9403 12.1093C52.8089 13.62 52.0864 14.9994 50.9698 15.9189C52.0864 15.9189 53.0716 16.4444 53.8598 17.364C54.7794 18.4149 55.2392 19.8599 55.0421 21.4363C55.0421 21.699 54.9765 21.9618 54.9108 22.2245C54.3853 24.392 52.8746 26.0341 50.9698 26.3625C51.3639 26.6253 51.758 27.0194 52.0207 27.4791C52.7432 28.5957 52.9403 30.1064 52.5462 31.4858C52.5462 31.7485 52.4148 31.9456 52.2835 32.2083C51.6923 33.7847 50.4443 34.9013 49.065 35.3611C49.6561 36.412 49.7875 37.7257 49.4591 38.9736C49.4591 39.2364 49.3277 39.4334 49.262 39.6962C48.3425 41.9294 46.2406 43.3087 44.2045 42.8489L44.0074 42.6519ZM40.0007 17.364C40.3292 19.7942 40.1978 21.9618 39.738 23.8666C39.738 24.0636 39.6067 24.3264 39.541 24.5234C39.541 24.5234 39.541 24.5234 39.541 24.5891L41.5771 24.5891L41.9056 24.5891L49.8532 25.0489C51.5609 25.1145 53.1373 23.6695 53.5971 21.699C53.5971 21.502 53.6628 21.2393 53.7285 21.0422C53.8598 19.7942 53.5314 18.6776 52.8089 17.8237C52.2835 17.2326 51.4953 16.8385 50.7727 16.7728L48.0798 16.6415L40.0664 17.2983L40.0007 17.364ZM49.262 26.6253C49.1964 26.6253 49.1307 26.6253 48.9993 26.6253L46.2406 26.0998L39.0155 25.7714C37.5048 29.0555 34.8775 29.9094 34.8775 29.9094C34.8118 29.9094 34.7461 29.9094 34.6804 29.9094C34.6804 29.9094 34.352 29.9094 33.8265 29.6467C33.8922 30.0408 34.0893 30.4349 34.2863 30.7633C34.352 30.8946 34.4834 31.0917 34.6148 31.2231C34.8118 31.4201 35.0745 31.6172 35.3373 31.8142C35.6 31.9456 35.797 32.0113 36.0598 32.0769L47.0288 34.2445C47.2916 34.2445 47.62 34.2445 47.9484 34.2445C49.262 34.0474 50.4443 33.0622 50.9698 31.6172C51.0355 31.4201 51.1012 31.2231 51.1668 31.026C51.4296 29.9094 51.2982 28.7271 50.7727 27.8732C50.3786 27.2821 49.8532 26.888 49.1963 26.6909L49.262 26.6253ZM47.6856 35.3611C47.4229 35.3611 47.1602 35.3611 46.8974 35.2954L35.9284 33.1279C35.3373 32.9965 34.7461 32.7338 34.2863 32.3397C33.0384 32.7338 32.0531 33.8504 31.659 35.2954C31.3963 36.3463 31.5277 37.4629 32.0531 38.2511C32.4472 38.908 33.0383 39.3021 33.7609 39.4334L44.2045 41.5353C45.7152 41.798 47.2916 40.7471 48.0141 39.0393C48.0797 38.8423 48.1454 38.6452 48.2111 38.4482C48.4738 37.3973 48.3425 36.2806 47.817 35.4925C47.817 35.4925 47.7513 35.3611 47.6856 35.3611ZM48.2768 15.5905C49.9189 15.4592 51.3639 13.8171 51.5609 11.8466C51.5609 11.6495 51.5609 11.3868 51.5609 11.1898C51.5609 9.94179 51.0355 8.82519 50.2473 8.16836C49.9189 7.83995 49.5248 7.6429 49.065 7.51153C48.7366 7.44585 48.4082 7.38016 48.0798 7.38016L36.9793 8.23403C37.3734 8.82518 37.7675 9.48201 38.0959 10.2045C38.1616 10.4016 38.293 10.6643 38.3587 10.8613C38.6214 11.4525 38.8184 12.1093 39.0155 12.7005C39.2782 13.62 39.4753 14.5396 39.6723 15.3935C39.6723 15.5905 39.738 15.8533 39.8037 16.0503L39.8037 16.1817L48.2768 15.5248L48.2768 15.5905Z" fill="#133037"/>
</svg>
