<svg width="124" height="228" viewBox="0 0 124 228" fill="none" xmlns="http://www.w3.org/2000/svg">
<path d="M18.1984 34.3386C28.0776 34.3386 33.4504 39.7115 33.4504 49.6773V54.5302C33.4504 64.496 28.0776 69.8688 18.1984 69.8688H14.1254V95H4.93957V34.3386H18.1984ZM17.8518 42.8312H14.1254V61.3762H17.8518C22.2714 61.3762 24.2646 59.0365 24.2646 53.9236V50.2839C24.2646 45.171 22.2714 42.8312 17.8518 42.8312ZM47.5088 34.3386V95H38.323V34.3386H47.5088ZM68.63 33.472C77.6425 33.472 82.9287 38.8449 82.9287 48.0307V53.4903L74.0895 53.9236V48.984C74.0895 44.1311 72.2697 41.9646 68.89 41.9646C65.5103 41.9646 63.6904 44.1311 63.6904 48.1174V81.2212C63.6904 85.2075 65.5103 87.374 68.89 87.374C72.2697 87.374 74.0895 85.2075 74.0895 80.3546V73.5952L82.9287 74.0285V81.3079C82.9287 90.4937 77.6425 95.8666 68.63 95.8666C59.7041 95.8666 54.5045 90.4937 54.5045 81.3079V48.0307C54.5045 38.8449 59.7041 33.472 68.63 33.472ZM120.558 34.3386L108.08 58.4298L120.818 95H111.026L102.013 68.4823L98.0271 76.2816V95H88.8412V34.3386H98.0271V59.6431H98.2004L110.939 34.3386H120.558Z" fill="white"/>
<path d="M31.716 104.705L20.7244 133.813V157.768H12.6891V133.738L1.54591 104.705H10.036L16.7826 123.504H16.9342L23.3775 104.705H31.716ZM44.8479 103.947C52.8831 103.947 57.8104 109.026 57.8104 117.364V145.108C57.8104 153.447 52.8831 158.526 44.8479 158.526C36.8126 158.526 31.8854 153.447 31.8854 145.108V117.364C31.8854 109.026 36.8126 103.947 44.8479 103.947ZM44.8479 111.375C41.6641 111.375 39.9206 113.498 39.9206 117.44V145.033C39.9206 148.974 41.6641 151.097 44.8479 151.097C48.0317 151.097 49.7752 148.974 49.7752 145.033V117.44C49.7752 113.498 48.0317 111.375 44.8479 111.375ZM88.3287 104.705V145.866C88.3287 154.205 83.5531 158.526 75.821 158.526C68.2406 158.526 63.4649 154.205 63.4649 145.866V104.705H71.197V145.639C71.197 149.505 72.9405 150.945 75.7452 150.945C78.55 150.945 80.2935 149.505 80.2935 145.639V104.705H88.3287ZM121.431 157.768H112.941L106.574 135.33H102.859V157.768H94.8242V104.705H106.422C115.064 104.705 119.764 109.405 119.764 118.122V121.912C119.764 127.522 117.793 131.464 114.078 133.586L121.431 157.768ZM106.119 112.133H102.859V127.901H106.119C109.985 127.901 111.729 125.854 111.729 121.382V118.653C111.729 114.18 109.985 112.133 106.119 112.133Z" fill="white"/>
<path d="M13.8738 166.109C19.5933 166.109 22.948 169.519 22.948 175.348V178.813L17.3385 179.088V175.953C17.3385 172.873 16.1836 171.499 14.0387 171.499C11.8939 171.499 10.739 172.873 10.739 175.403V196.411C10.739 198.941 11.8939 200.316 14.0387 200.316C16.1836 200.316 17.3385 198.941 17.3385 195.861V191.572L22.948 191.847V196.466C22.948 202.296 19.5933 205.706 13.8738 205.706C8.20925 205.706 4.90954 202.296 4.90954 196.466V175.348C4.90954 169.519 8.20925 166.109 13.8738 166.109ZM45.2885 166.659V205.156H39.459V188.382H32.5296V205.156H26.7001V166.659H32.5296V182.883H39.459V166.659H45.2885ZM59.1555 166.109C64.985 166.109 68.5596 169.794 68.5596 175.843V195.971C68.5596 202.021 64.985 205.706 59.1555 205.706C53.326 205.706 49.7513 202.021 49.7513 195.971V175.843C49.7513 169.794 53.326 166.109 59.1555 166.109ZM59.1555 171.499C56.8457 171.499 55.5808 173.038 55.5808 175.898V195.916C55.5808 198.776 56.8457 200.316 59.1555 200.316C61.4653 200.316 62.7301 198.776 62.7301 195.916V175.898C62.7301 173.038 61.4653 171.499 59.1555 171.499ZM78.8214 166.659V205.156H72.9919V166.659H78.8214ZM92.2252 166.109C97.9447 166.109 101.299 169.519 101.299 175.348V178.813L95.6899 179.088V175.953C95.6899 172.873 94.535 171.499 92.3902 171.499C90.2454 171.499 89.0905 172.873 89.0905 175.403V196.411C89.0905 198.941 90.2454 200.316 92.3902 200.316C94.535 200.316 95.6899 198.941 95.6899 195.861V191.572L101.299 191.847V196.466C101.299 202.296 97.9447 205.706 92.2252 205.706C86.5607 205.706 83.261 202.296 83.261 196.466V175.348C83.261 169.519 86.5607 166.109 92.2252 166.109ZM121.44 166.659V172.049H110.881V182.938H119.405V188.327H110.881V199.766H121.44V205.156H105.052V166.659H121.44Z" fill="white"/>
</svg>
