<svg width="51" height="51" viewBox="0 0 51 51" fill="none" xmlns="http://www.w3.org/2000/svg">
<circle cx="25.2406" cy="25.2406" r="25.2406" fill="white"/>
<path d="M13.5463 25.2405H11.7191C11.7193 22.433 12.5933 19.6952 14.2197 17.407C15.8461 15.1187 18.1443 13.3934 20.7955 12.4704C23.4466 11.5475 26.3193 11.4726 29.015 12.2562C31.7106 13.0398 34.0956 14.643 35.8389 16.8435V14.8242H37.6662V21.2202H31.2708V19.3927H35.3681C34.3408 17.6157 32.8643 16.1401 31.0868 15.1137C29.3094 14.0873 27.2933 13.5464 25.2408 13.545C18.7924 13.545 13.5463 18.7915 13.5463 25.2405ZM36.9353 25.2405C36.9353 31.6895 31.6892 36.936 25.2408 36.936C23.1883 36.9346 21.1723 36.3936 19.3948 35.3673C17.6173 34.3409 16.1409 32.8652 15.1135 31.0882H19.2109V29.2608H12.8154V35.6568H14.6427V33.6375C16.3861 35.8379 18.771 37.4412 21.4667 38.2248C24.1623 39.0084 27.035 38.9335 29.6862 38.0106C32.3374 37.0876 34.6356 35.3623 36.262 33.074C37.8884 30.7857 38.7623 28.0479 38.7626 25.2405H36.9353Z" fill="#133239"/>
</svg>
