<svg width="125" height="128" viewBox="0 0 125 128" fill="none" xmlns="http://www.w3.org/2000/svg">
<path d="M11.4228 28.5532V51.2023H0.00610352V1.4417H17.3275C19.1014 1.4417 20.6174 1.67494 21.8819 2.14756C23.1402 2.61405 24.1345 3.22785 24.8649 3.98896C25.5892 4.75007 26.1662 5.7567 26.5836 7.02112C27.0009 8.27941 27.271 9.54384 27.3999 10.8021C27.5288 12.0604 27.5902 13.5888 27.5902 15.3811C27.5902 16.3202 27.5718 17.0813 27.5411 17.6767C27.5104 18.272 27.3938 19.0209 27.1851 19.9232C26.9825 20.8316 26.7002 21.5865 26.338 22.1881C25.9759 22.7896 25.4235 23.385 24.6869 23.9681C23.9504 24.5512 23.0542 24.9993 22.0108 25.3123C23.0604 25.5026 23.9258 25.8463 24.6071 26.3619C25.2885 26.8714 25.7856 27.5036 26.0802 28.2524C26.381 29.0012 26.5836 29.6948 26.6879 30.327C26.7923 30.9654 26.8475 31.6774 26.8475 32.4692C26.8475 40.6941 26.8045 46.9426 26.7186 51.2146H15.6825V31.8186C15.6825 31.0452 15.6027 30.4314 15.4431 29.9772C15.2835 29.5168 14.9828 29.1915 14.547 28.9951C14.1112 28.7987 13.6877 28.6759 13.2826 28.633C12.8775 28.59 12.2575 28.5716 11.4228 28.5716V28.5532ZM11.4903 10.6548V19.9293H14.3137C15.8114 19.9293 16.5602 18.4071 16.5602 15.3688C16.5602 13.3494 16.2656 12.0604 15.6764 11.4957C15.0871 10.931 13.8964 10.6548 12.0979 10.6548H11.4903Z" fill="white"/>
<path d="M31.3098 37.7663V14.0553C31.3098 9.91212 32.4576 6.70195 34.7594 4.41862C37.055 2.14143 40.5168 0.969074 45.1326 0.901556C49.8772 0.962936 53.4004 2.13529 55.7022 4.41862C57.9978 6.70195 59.1517 9.91212 59.1517 14.0553V37.7663C59.1517 39.7857 58.8878 41.6271 58.366 43.2782C57.8443 44.9354 57.0464 46.4085 55.9784 47.6975C54.9104 48.9865 53.4618 49.987 51.6327 50.699C49.8036 51.4049 47.7044 51.7302 45.329 51.6688C42.8247 51.7302 40.6641 51.411 38.835 50.699C37.0059 49.9931 35.5573 48.9926 34.4893 47.6975C33.4213 46.4085 32.6233 44.9354 32.1016 43.2782C31.5799 41.6209 31.316 39.7857 31.316 37.7663H31.3098ZM45.2308 41.9217C45.6359 41.9217 45.9919 41.8419 46.3049 41.6885C46.6118 41.535 46.8635 41.2956 47.0415 40.9703C47.2256 40.645 47.3668 40.3381 47.4773 40.0496C47.5816 39.7611 47.6614 39.3683 47.7044 38.8772C47.7473 38.3862 47.7719 38.0118 47.7842 37.754C47.7964 37.4962 47.8026 37.1341 47.8026 36.6737V16.4307C47.8026 16.3079 47.8026 16.0562 47.821 15.6818C47.8333 15.3074 47.8333 15.0251 47.821 14.8409C47.8087 14.6506 47.7964 14.3806 47.7903 14.0123C47.778 13.6501 47.7473 13.3678 47.6921 13.1714C47.6368 12.975 47.5755 12.7233 47.5018 12.4226C47.4282 12.1218 47.3238 11.8885 47.1949 11.7351C47.066 11.5816 46.9187 11.4098 46.7468 11.2379C46.575 11.0599 46.3601 10.9372 46.1085 10.8635C45.8507 10.7898 45.5622 10.753 45.243 10.753C44.795 10.753 44.4021 10.8267 44.0707 10.974C43.7392 11.1213 43.4753 11.3545 43.285 11.6798C43.0947 12.0052 42.9352 12.2936 42.8063 12.5514C42.6774 12.8092 42.5914 13.1959 42.5485 13.7054C42.5055 14.2148 42.4871 14.5831 42.4871 14.7979V36.3054C42.4871 36.7658 42.4871 37.1279 42.5055 37.398C42.5178 37.6681 42.5423 38.067 42.5853 38.5826C42.6283 39.1044 42.7081 39.5279 42.8247 39.8471C42.9413 40.1724 43.0947 40.51 43.2912 40.8598C43.4814 41.2158 43.7454 41.4797 44.0768 41.6577C44.4083 41.8357 44.8011 41.9217 45.2492 41.9217H45.2308Z" fill="white"/>
<path d="M91.3148 29.7746V39.178C91.3148 43.5114 90.0503 46.6909 87.5276 48.7226C85.0049 50.7542 81.4756 51.767 76.9458 51.767C72.9254 51.767 69.6538 50.6499 67.1311 48.4095C64.6084 46.1692 63.344 42.9897 63.344 38.865V15.78C63.344 10.8451 64.4611 7.15616 66.6953 4.7071C68.9296 2.25805 72.4282 1.03659 77.1974 1.03659C79.1432 1.03659 80.9416 1.26983 82.5866 1.74245C84.2315 2.20894 85.6924 2.90254 86.9629 3.8171C88.2335 4.73166 89.234 5.9347 89.9644 7.42623C90.6887 8.91776 91.057 10.6303 91.057 12.5637V21.341H79.8981V15.5591C79.8981 12.5821 79.002 11.0906 77.2036 11.0906C76.1355 11.0906 75.4297 11.4159 75.086 12.0727C74.7422 12.7294 74.5704 13.6379 74.5704 14.8041V38.3248C74.5704 39.3437 74.8097 40.2276 75.2946 40.9826C75.7734 41.7314 76.4118 42.1058 77.2036 42.1058C77.9278 42.1058 78.5601 41.8296 79.0941 41.2772C79.6281 40.7248 79.8981 39.7427 79.8981 38.3248V29.7685H91.3148V29.7746Z" fill="white"/>
<path d="M112.325 1.4417H123.68L117.364 24.2136L125 51.2023H113.295L107.138 27.0862V51.2023H95.9121V1.4417H107.071V21.341L112.331 1.4417H112.325Z" fill="white"/>
<path d="M0.00610352 96.8075V54.3266H12.7363C14.4181 54.3266 15.8851 54.5414 17.1434 54.9649C18.4016 55.3946 19.5187 56.082 20.4824 57.0457C21.4522 58.0032 22.1826 59.3351 22.6859 61.0354C23.1893 62.7356 23.4409 64.7918 23.4409 67.2102C23.4409 69.2909 23.2875 71.071 22.9867 72.5563C22.6859 74.0417 22.1704 75.3614 21.4399 76.5154C20.7095 77.6693 19.6722 78.5347 18.3341 79.1179C16.9899 79.6948 15.3449 79.9833 13.393 79.9833H9.47701V96.8075H0.00610352ZM9.47701 62.0604V72.3292H10.0233C10.5327 72.3292 10.9194 72.317 11.1895 72.2863C11.4534 72.2617 11.7665 72.2003 12.1225 72.1021C12.4785 72.0039 12.7424 71.8443 12.9143 71.6234C13.0861 71.4024 13.2641 71.1016 13.4483 70.715C13.6324 70.3344 13.7552 69.8372 13.8166 69.2357C13.8779 68.6342 13.9148 67.9038 13.9148 67.0506C13.9148 65.1846 13.6631 63.8895 13.1598 63.1591C12.6565 62.4287 11.7849 62.0665 10.545 62.0665H9.47701V62.0604Z" fill="white"/>
<path d="M43.7884 54.3266L48.6068 96.8075H39.2955L38.608 90.4056H33.7344L33.1329 96.8075H23.7664L28.6952 54.3266H43.7823H43.7884ZM36.5825 62.2998H35.7047L34.4157 82.6718H37.8653L36.5763 62.2998H36.5825Z" fill="white"/>
<path d="M51.5591 96.8075V54.3266H64.2893C65.9711 54.3266 67.438 54.5414 68.6963 54.9649C69.9546 55.3946 71.0717 56.082 72.0354 57.0457C73.0052 58.0032 73.7356 59.3351 74.2389 61.0354C74.7422 62.7356 74.9939 64.7918 74.9939 67.2102C74.9939 69.291 74.8404 71.071 74.5397 72.5564C74.2389 74.0417 73.7233 75.3614 72.9929 76.5154C72.2625 77.6693 71.2252 78.5347 69.8871 79.1179C68.5429 79.6948 66.8979 79.9833 64.946 79.9833H61.03V96.8075H51.5591ZM61.0361 62.0604V72.3293H61.5824C62.0919 72.3293 62.4785 72.317 62.7486 72.2863C63.0126 72.2617 63.3256 72.2004 63.6816 72.1021C64.0376 72.0039 64.3015 71.8444 64.4734 71.6234C64.6453 71.4024 64.8233 71.1017 65.0074 70.715C65.1915 70.3344 65.3143 69.8372 65.3757 69.2357C65.4371 68.6342 65.4739 67.9038 65.4739 67.0506C65.4739 65.1846 65.2222 63.8895 64.7189 63.1591C64.2156 62.4287 63.344 62.0665 62.1041 62.0665H61.0361V62.0604Z" fill="white"/>
<path d="M77.8481 96.8075V54.3266H97.1214V62.5637H87.6505V70.8561H96.7408V78.8294H87.6505V88.509H97.7536V96.8014H77.8481V96.8075Z" fill="white"/>
<path d="M111.196 77.4729V96.8075H101.448V54.3266H116.235C117.751 54.3266 119.046 54.5291 120.12 54.9281C121.194 55.327 122.048 55.8549 122.667 56.4994C123.287 57.15 123.778 58.0093 124.134 59.0835C124.49 60.1576 124.724 61.2318 124.834 62.3121C124.945 63.3862 125 64.6875 125 66.2158C125 67.0138 124.988 67.6705 124.957 68.1738C124.932 68.6833 124.828 69.3217 124.656 70.095C124.484 70.8684 124.239 71.5129 123.932 72.0285C123.619 72.5441 123.152 73.0535 122.52 73.5507C121.888 74.0479 121.127 74.4285 120.237 74.6985C121.133 74.8581 121.87 75.1589 122.453 75.5947C123.036 76.0305 123.453 76.5706 123.711 77.209C123.969 77.8473 124.141 78.4427 124.233 78.9828C124.325 79.523 124.368 80.1368 124.368 80.8119C124.368 87.8338 124.331 93.1677 124.257 96.8137H114.842V80.2534C114.842 79.5966 114.774 79.0688 114.639 78.6821C114.504 78.2892 114.246 78.013 113.872 77.8412C113.497 77.6754 113.135 77.5711 112.791 77.5343C112.442 77.4974 111.914 77.479 111.202 77.479L111.196 77.4729ZM111.251 62.1955V70.1135H113.663C114.94 70.1135 115.578 68.8183 115.578 66.222C115.578 64.4972 115.326 63.3924 114.823 62.9136C114.32 62.4348 113.301 62.1955 111.773 62.1955H111.251Z" fill="white"/>
<path d="M7.86275 127.092C5.03314 127.092 3.01989 126.46 1.8107 125.202C0.607658 123.944 0 121.998 0 119.371V116.744H6.02136V119.156C6.02136 120.887 6.50626 121.752 7.47606 121.752C7.92413 121.752 8.28013 121.587 8.53793 121.249C8.79572 120.911 8.92463 120.469 8.92463 119.917C8.92463 119.199 8.82641 118.591 8.62386 118.094C8.42131 117.597 8.11441 117.13 7.7093 116.688C7.29806 116.247 6.62902 115.627 5.69605 114.841L3.1181 112.668C1.04346 110.925 0 108.961 0 106.769C0 104.388 0.626073 102.614 1.87822 101.448C3.13037 100.282 4.85514 99.7047 7.0464 99.7047H8.12055C8.68524 99.7047 9.41566 99.8335 10.2995 100.085C11.1895 100.337 11.9813 100.76 12.6688 101.35C13.3624 101.939 13.878 102.761 14.2278 103.811C14.5716 104.861 14.7496 106.143 14.7496 107.666H8.56862L8.5318 106.045C8.51952 105.744 8.38448 105.474 8.13283 105.235C7.88117 105.002 7.59882 104.879 7.28578 104.879C6.88067 104.879 6.53695 105.002 6.2546 105.241C5.97225 105.48 5.83108 105.794 5.83108 106.174C5.83108 106.935 6.40192 107.77 7.54358 108.672L11.2325 111.569C11.834 112.042 12.3558 112.521 12.7977 113.012C13.2396 113.503 13.5956 113.982 13.8534 114.46C14.1112 114.939 14.326 115.369 14.4856 115.755C14.6452 116.142 14.7618 116.566 14.8232 117.02C14.8846 117.474 14.9214 117.818 14.9337 118.051C14.946 118.284 14.9521 118.579 14.9521 118.953C14.9521 119.899 14.8907 120.752 14.7618 121.525C14.6329 122.292 14.412 123.035 14.0867 123.753C13.7614 124.465 13.3378 125.061 12.8161 125.539C12.2882 126.018 11.6131 126.399 10.7722 126.675C9.93739 126.957 8.96145 127.098 7.85661 127.098L7.86275 127.092Z" fill="white"/>
<path d="M31.856 115.221V120.298C31.856 122.636 31.1747 124.355 29.8121 125.447C28.4494 126.546 26.5467 127.092 24.0976 127.092C21.9309 127.092 20.1632 126.491 18.8005 125.282C17.4379 124.072 16.7566 122.36 16.7566 120.132V107.672C16.7566 105.008 17.3581 103.019 18.5673 101.693C19.7703 100.374 21.6608 99.7108 24.2388 99.7108C25.2884 99.7108 26.2582 99.8397 27.1482 100.091C28.0382 100.343 28.8239 100.717 29.5113 101.215C30.1988 101.712 30.7389 102.356 31.1317 103.16C31.5246 103.964 31.721 104.891 31.721 105.935V110.673H25.6996V107.555C25.6996 105.947 25.2147 105.143 24.2449 105.143C23.668 105.143 23.2874 105.321 23.1033 105.677C22.9191 106.033 22.8271 106.524 22.8271 107.15V119.843C22.8271 120.396 22.956 120.875 23.2138 121.274C23.4715 121.679 23.8153 121.881 24.2449 121.881C24.6378 121.881 24.9753 121.734 25.2638 121.433C25.5523 121.138 25.6996 120.604 25.6996 119.837V115.215H31.8622L31.856 115.221Z" fill="white"/>
<path d="M34.3298 126.785V99.9317H40.2162V126.785H34.3298Z" fill="white"/>
<path d="M50.4114 127.092C47.5818 127.092 45.5685 126.46 44.3593 125.202C43.1563 123.944 42.5486 121.998 42.5486 119.371V116.744H48.57V119.156C48.57 120.887 49.0549 121.752 50.0247 121.752C50.4728 121.752 50.8288 121.587 51.0865 121.249C51.3443 120.911 51.4732 120.469 51.4732 119.917C51.4732 119.199 51.375 118.591 51.1725 118.094C50.9699 117.597 50.663 117.13 50.2579 116.688C49.8528 116.247 49.1776 115.627 48.2385 114.841L45.6606 112.668C43.5859 110.925 42.5425 108.961 42.5425 106.769C42.5425 104.388 43.1686 102.614 44.4207 101.448C45.6728 100.282 47.3976 99.7047 49.5889 99.7047H50.663C51.2277 99.7047 51.9581 99.8335 52.842 100.085C53.732 100.337 54.5238 100.76 55.2113 101.35C55.9049 101.939 56.4205 102.761 56.7703 103.811C57.1141 104.861 57.292 106.143 57.292 107.666H51.1111L51.0743 106.045C51.062 105.744 50.927 105.474 50.6753 105.235C50.4236 105.002 50.1413 104.879 49.8283 104.879C49.4232 104.879 49.0794 105.002 48.7971 105.241C48.5147 105.48 48.3736 105.794 48.3736 106.174C48.3736 106.935 48.9444 107.77 50.0861 108.666L53.775 111.563C54.3765 112.036 54.8982 112.515 55.3402 113.006C55.7821 113.497 56.1381 113.975 56.3959 114.454C56.6537 114.933 56.8685 115.363 57.0281 115.749C57.1877 116.136 57.3043 116.56 57.3657 117.014C57.4271 117.468 57.4639 117.812 57.4762 118.045C57.4885 118.278 57.4946 118.573 57.4946 118.947C57.4946 119.892 57.4332 120.746 57.3043 121.519C57.1754 122.286 56.9545 123.029 56.6291 123.747C56.3038 124.459 55.8803 125.055 55.3586 125.533C54.8307 126.012 54.1555 126.393 53.3146 126.669C52.4799 126.951 51.5039 127.092 50.3991 127.092H50.4114Z" fill="white"/>
<path d="M66.8671 127.092C64.0375 127.092 62.0243 126.46 60.8151 125.202C59.6121 123.944 59.0044 121.998 59.0044 119.371V116.744H65.0258V119.156C65.0258 120.887 65.5107 121.752 66.4805 121.752C66.9285 121.752 67.2845 121.587 67.5423 121.249C67.8001 120.911 67.929 120.469 67.929 119.917C67.929 119.199 67.8308 118.591 67.6283 118.094C67.4257 117.597 67.1188 117.13 66.7137 116.688C66.3025 116.247 65.6334 115.627 64.7004 114.841L62.1225 112.668C60.0478 110.925 59.0044 108.961 59.0044 106.769C59.0044 104.388 59.6305 102.614 60.8826 101.448C62.1348 100.282 63.8595 99.7047 66.0508 99.7047H67.1249C67.6896 99.7047 68.4201 99.8335 69.3039 100.085C70.1939 100.337 70.9857 100.76 71.6732 101.35C72.3668 101.939 72.8824 102.761 73.2322 103.811C73.576 104.861 73.754 106.143 73.754 107.666H67.573L67.5362 106.045C67.5239 105.744 67.3889 105.474 67.1372 105.235C66.8856 105.002 66.6032 104.879 66.2902 104.879C65.8851 104.879 65.5413 105.002 65.259 105.241C64.9766 105.48 64.8355 105.794 64.8355 106.174C64.8355 106.935 65.4063 107.77 66.548 108.666L70.2369 111.563C70.8384 112.036 71.3601 112.515 71.8021 113.006C72.244 113.497 72.6 113.975 72.8578 114.454C73.1156 114.933 73.3304 115.363 73.49 115.749C73.6496 116.136 73.7662 116.56 73.8276 117.014C73.889 117.468 73.9258 117.812 73.9381 118.045C73.9504 118.278 73.9565 118.573 73.9565 118.947C73.9565 119.892 73.8951 120.746 73.7662 121.519C73.6373 122.286 73.4164 123.029 73.0911 123.747C72.7657 124.459 72.3422 125.055 71.8205 125.533C71.2926 126.012 70.6174 126.393 69.7765 126.669C68.9418 126.951 67.9658 127.092 66.861 127.092H66.8671Z" fill="white"/>
<path d="M75.7856 119.536V106.739C75.7856 104.505 76.4056 102.767 77.6455 101.54C78.8853 100.306 80.7513 99.6801 83.2433 99.6433C85.8028 99.6801 87.7056 100.312 88.9455 101.54C90.1854 102.767 90.8053 104.505 90.8053 106.739V119.536C90.8053 120.629 90.6641 121.617 90.3818 122.513C90.0994 123.41 89.6698 124.201 89.0928 124.901C88.5158 125.601 87.7363 126.135 86.7481 126.521C85.7599 126.902 84.6305 127.08 83.3476 127.043C81.9973 127.08 80.8311 126.902 79.8429 126.521C78.8546 126.141 78.0751 125.601 77.4981 124.901C76.9212 124.207 76.4915 123.41 76.2092 122.513C75.9268 121.617 75.7856 120.629 75.7856 119.536ZM83.2985 121.777C83.5195 121.777 83.7098 121.734 83.8755 121.648C84.0412 121.562 84.1763 121.433 84.2745 121.261C84.3727 121.089 84.4525 120.924 84.5077 120.764C84.563 120.604 84.6059 120.396 84.6305 120.132C84.655 119.868 84.6673 119.665 84.6734 119.524C84.6734 119.383 84.6796 119.187 84.6796 118.941V108.015C84.6796 107.948 84.6796 107.813 84.6857 107.61C84.6857 107.408 84.6857 107.254 84.6857 107.156C84.6857 107.058 84.6734 106.904 84.6673 106.708C84.6673 106.512 84.6428 106.358 84.6182 106.254C84.5875 106.15 84.5568 106.014 84.5139 105.849C84.4709 105.683 84.4156 105.56 84.3481 105.48C84.2806 105.395 84.2008 105.309 84.1087 105.21C84.0167 105.118 83.9001 105.045 83.765 105.008C83.6238 104.971 83.4704 104.946 83.2985 104.946C83.0591 104.946 82.8443 104.983 82.6663 105.063C82.4883 105.143 82.3471 105.266 82.2428 105.444C82.1385 105.616 82.0525 105.775 81.985 105.916C81.9175 106.057 81.8684 106.266 81.8438 106.542C81.8193 106.819 81.807 107.015 81.807 107.132V118.739C81.807 118.984 81.807 119.18 81.8131 119.328C81.8131 119.475 81.8316 119.69 81.8561 119.966C81.8807 120.248 81.9236 120.476 81.985 120.647C82.0464 120.819 82.1323 121.003 82.2367 121.194C82.341 121.384 82.4822 121.525 82.6602 121.623C82.8382 121.722 83.0469 121.765 83.2924 121.765L83.2985 121.777Z" fill="white"/>
<path d="M99.6193 114.565V126.785H93.4568V99.9317H102.805C103.762 99.9317 104.579 100.061 105.26 100.312C105.941 100.564 106.475 100.895 106.868 101.307C107.261 101.718 107.568 102.264 107.795 102.939C108.022 103.621 108.17 104.302 108.237 104.977C108.305 105.658 108.341 106.481 108.341 107.445C108.341 107.948 108.335 108.365 108.317 108.685C108.298 109.004 108.237 109.409 108.127 109.9C108.016 110.391 107.863 110.796 107.666 111.121C107.47 111.447 107.175 111.766 106.776 112.085C106.377 112.398 105.898 112.644 105.334 112.809C105.898 112.907 106.365 113.098 106.733 113.374C107.102 113.65 107.365 113.988 107.531 114.393C107.691 114.798 107.801 115.172 107.863 115.516C107.918 115.86 107.949 116.247 107.949 116.67C107.949 121.108 107.924 124.484 107.881 126.785H101.927V116.314C101.927 115.897 101.884 115.565 101.798 115.32C101.712 115.074 101.553 114.896 101.313 114.792C101.074 114.687 100.847 114.62 100.632 114.595C100.411 114.571 100.08 114.565 99.6255 114.565H99.6193ZM99.6562 104.904V109.912H101.178C101.989 109.912 102.388 109.09 102.388 107.451C102.388 106.358 102.228 105.665 101.909 105.358C101.59 105.057 100.951 104.904 99.9815 104.904H99.65H99.6562Z" fill="white"/>
<path d="M117.898 127.092C115.069 127.092 113.056 126.46 111.846 125.202C110.643 123.944 110.036 121.998 110.036 119.371V116.744H116.057V119.156C116.057 120.887 116.542 121.752 117.512 121.752C117.96 121.752 118.316 121.587 118.574 121.249C118.831 120.911 118.96 120.469 118.96 119.917C118.96 119.199 118.862 118.591 118.66 118.094C118.457 117.597 118.15 117.13 117.745 116.688C117.334 116.247 116.665 115.627 115.726 114.841L113.148 112.668C111.073 110.925 110.03 108.961 110.03 106.769C110.03 104.388 110.656 102.614 111.908 101.448C113.16 100.282 114.885 99.7047 117.076 99.7047H118.15C118.715 99.7047 119.445 99.8335 120.329 100.085C121.219 100.337 122.011 100.76 122.698 101.35C123.392 101.939 123.908 102.761 124.257 103.811C124.601 104.861 124.779 106.143 124.779 107.666H118.598L118.561 106.045C118.549 105.744 118.414 105.474 118.162 105.235C117.911 105.002 117.628 104.879 117.315 104.879C116.91 104.879 116.566 105.002 116.284 105.241C116.002 105.48 115.861 105.794 115.861 106.174C115.861 106.935 116.431 107.77 117.573 108.666L121.262 111.563C121.864 112.036 122.385 112.515 122.827 113.006C123.269 113.497 123.625 113.975 123.883 114.454C124.141 114.933 124.356 115.363 124.515 115.749C124.675 116.136 124.791 116.56 124.853 117.014C124.914 117.468 124.951 117.812 124.963 118.045C124.976 118.278 124.982 118.573 124.982 118.947C124.982 119.892 124.92 120.746 124.791 121.519C124.663 122.286 124.442 123.029 124.116 123.747C123.791 124.459 123.367 125.055 122.846 125.533C122.318 126.012 121.643 126.393 120.802 126.669C119.967 126.951 118.991 127.092 117.886 127.092H117.898Z" fill="white"/>
</svg>
