<svg width="62" height="55" viewBox="0 0 62 55" fill="none" xmlns="http://www.w3.org/2000/svg">
<path opacity="0.4" d="M17.516 12.1703C15.4527 12.7771 11.2655 14.0515 9.50569 17.5105C8.95954 18.6634 8.7168 19.9378 8.83817 21.2728L3.01252 21.2728C2.22364 21.2728 1.49543 21.7583 1.2527 22.4865C1.19202 22.7292 1.13134 22.9113 1.13134 23.154C1.13134 23.6395 1.31339 24.125 1.67749 24.4891L1.55612 41.2378C1.19201 41.6019 0.949278 42.1481 0.949278 42.6942C0.949278 43.7258 1.85954 44.5754 2.95185 44.5147L8.41339 44.272C8.71681 45.4857 9.32363 46.6386 10.2946 47.6703C12.8433 50.401 17.1518 51.8575 21.8245 51.6754C22.7954 51.6754 23.7057 51.6147 24.4946 51.554L28.3177 53.7386C29.5313 54.4062 30.9271 54.5882 32.2014 54.2241C33.5365 53.86 34.6288 53.0105 35.2963 51.7968C35.6604 51.1293 35.9031 50.3404 35.9638 49.6122C36.4493 49.6122 36.9347 49.5515 37.3595 49.4301C38.8159 49.0053 40.0296 48.0951 40.7578 46.76C41.2433 45.9104 41.486 45.0002 41.486 44.0292L47.9792 46.578C52.1057 48.2164 56.657 47.1241 58.2348 44.1506C58.9023 42.8763 59.0236 41.4199 58.4775 39.9634C57.7493 38.0216 55.8681 36.2617 53.5014 35.2908L40.8185 30.9822L50.0424 30.3147C54.4724 29.9506 58.0527 27.0378 58.1741 23.6395C58.1741 22.1831 57.6279 20.8481 56.5356 19.7557C55.0185 18.2993 52.6518 17.5711 50.1031 17.7532L31.898 17.8746C31.7766 17.8746 31.4732 17.8746 30.9271 17.7532C33.5971 14.5976 36.3279 10.107 34.0826 6.58738C32.8083 4.52413 31.3518 3.49249 29.7134 3.37113C28.257 3.24976 27.104 3.97798 26.3758 4.46345C26.2544 4.52413 26.0117 4.70618 25.951 4.70618C25.0407 5.13096 23.7664 6.34465 21.3997 8.772C20.3681 9.80362 18.5476 11.6848 18.0014 12.0489C17.8801 12.0489 17.698 12.1703 17.4553 12.231L17.516 12.1703Z" fill="#16375E"/>
<path d="M13.3286 44.6361C15.8773 47.3669 20.1859 48.8233 24.8585 48.6412C25.8295 48.6412 26.7398 48.5806 27.5286 48.5199L31.3517 50.7045C32.5654 51.372 33.9611 51.5541 35.2355 51.19C36.5705 50.8259 37.6628 49.9763 38.3303 48.7626C38.6945 48.0951 38.9372 47.3062 38.9979 46.578C39.4833 46.578 39.9688 46.5173 40.3936 46.3959C41.85 45.9712 43.0637 45.0609 43.7919 43.7258C44.2774 42.8763 44.5201 41.966 44.5201 40.9951L51.0133 43.5438C55.1397 45.1823 59.691 44.0899 61.2688 41.1164C61.9363 39.8421 62.0577 38.3857 61.5115 36.9293C60.7833 34.9874 58.9021 33.2276 56.5355 32.2566L43.8526 27.9481L53.0765 27.2806C57.5064 26.9165 61.0868 24.0036 61.2081 20.6053C61.2081 19.1489 60.662 17.8139 59.5697 16.7216C58.0526 15.2652 55.6859 14.537 53.1372 14.719L34.9321 14.8404C34.8107 14.8404 34.5073 14.8404 33.9611 14.719C36.6312 11.5635 39.362 7.07286 37.1167 3.5532C35.8423 1.48995 34.3859 0.458315 32.7474 0.336947C31.291 0.21558 30.138 0.943796 29.4098 1.42927C29.2885 1.48995 29.0457 1.672 28.9851 1.672C28.0748 2.09678 26.8004 3.31047 24.4338 5.73782C23.4021 6.76944 21.5816 8.65063 21.0355 9.01474C20.9141 9.01474 20.7321 9.1361 20.4893 9.19678C18.4261 9.80362 14.2389 11.078 12.4791 14.537C11.9329 15.69 11.6902 16.9643 11.8115 18.2993L5.98591 18.2993C5.19702 18.2993 4.4688 18.7848 4.22607 19.513C4.16539 19.7558 4.10471 19.9378 4.10471 20.1805C4.10471 20.666 4.28676 21.1515 4.65086 21.5156L4.52949 38.2643C4.16538 38.6284 3.92265 39.1746 3.92265 39.7207C3.92265 40.7523 4.83291 41.6019 5.92522 41.5412L11.3868 41.2985C11.6902 42.5122 12.297 43.6652 13.268 44.6968L13.3286 44.6361Z" fill="#133037"/>
<path d="M24.8585 46.5174C26.0722 46.5174 27.1038 46.396 28.0747 46.396L32.3833 48.8234C33.9611 49.6729 35.9029 49.1268 36.8132 47.6097C37.6628 46.0319 37.1166 44.09 35.5995 43.1798L34.8713 42.755L34.8713 42.6336L37.238 43.9687C39.0585 45.0003 41.3038 44.3328 42.3354 42.5729C43.3671 40.7524 42.6995 38.5071 40.9397 37.4755L39.4226 36.6259L51.9235 41.5413C55.1397 42.8157 58.6594 42.0875 59.8123 39.9635C60.9653 37.8396 59.2662 35.0481 56.05 33.7738L34.5679 26.4917L53.0765 25.096C56.5354 24.8533 59.3876 22.6687 59.4482 20.2413C59.5089 17.814 56.8388 16.0541 53.3799 16.3575L35.2354 16.4789C34.5072 16.4789 30.3807 15.69 30.3807 15.69C30.3807 15.69 38.2696 8.40796 35.7209 4.34215C33.1115 0.276338 31.2303 2.64301 29.9559 3.18916C28.7423 3.73532 23.2807 9.92506 22.0671 10.4712C20.9141 11.0174 11.6901 12.5345 14.3602 19.9379L6.10722 19.9379L5.92517 39.4174L13.2679 39.114C12.7824 43.0584 17.8799 46.8815 24.8585 46.5781L24.8585 46.5174Z" fill="#EDAC6B"/>
<path d="M20.9749 10.4712C19.1544 11.0173 15.2707 12.1703 13.8142 15.0831C13.1467 16.4182 13.086 17.9353 13.5715 19.6344L6.04671 19.6344C5.86466 19.6344 5.68261 19.7558 5.56124 19.9378C5.56124 19.9378 5.56124 20.0592 5.56124 20.1199C5.56124 20.2412 5.56125 20.3626 5.68262 20.484C5.80399 20.6053 5.92534 20.6054 6.04671 20.6054L14.239 20.6054C14.4211 20.6054 14.5424 20.6053 14.6638 20.4233C14.7852 20.3019 14.7852 20.1199 14.6638 19.9378C14.057 18.2387 14.057 16.7823 14.6638 15.5079C15.9382 12.9592 19.5185 11.8669 21.2177 11.3814C21.6424 11.26 21.8852 11.1994 22.0672 11.078C22.7954 10.7746 24.3732 9.19679 26.1937 7.31559C27.6501 5.85918 29.4706 4.03868 30.0168 3.79594C30.2595 3.67457 30.5023 3.5532 30.745 3.37115C31.2912 3.00705 31.9587 2.58227 32.6262 2.64295C33.4151 2.64295 34.2647 3.37116 35.1142 4.76689C37.4202 8.40791 29.9561 15.4472 29.8954 15.5079C29.8348 15.5079 29.7741 15.5686 29.7741 15.69L29.7741 15.7507C29.7741 15.7507 29.7741 15.872 29.7741 15.9327L29.7741 16.0541C32.6262 23.8823 23.7057 29.4652 23.645 29.5259C23.4023 29.6472 23.3416 29.9506 23.463 30.1934C23.5236 30.3147 23.645 30.3754 23.7664 30.4361C23.8877 30.4361 24.0091 30.4361 24.1305 30.4361C24.2518 30.4361 33.1724 24.7318 30.9271 16.6002C32.3835 16.9036 34.5074 17.2677 35.0536 17.2677L53.2587 17.1464C55.1399 17.025 56.8997 17.5105 57.9313 18.4814C58.5382 19.0883 58.8416 19.7558 58.8416 20.5447C58.7809 22.7293 56.1108 24.6712 52.8946 24.9139L34.386 26.3096C34.1433 26.3096 33.9612 26.4917 33.9612 26.7344C33.9612 26.9771 34.0826 27.1592 34.2647 27.2806L55.7467 34.5626C57.5065 35.2908 58.8416 36.4438 59.3271 37.7789C59.6305 38.5677 59.5698 39.3566 59.2057 40.0242C58.1741 41.966 54.8971 42.5122 51.9236 41.3592L39.4835 36.4438L31.4732 31.9532C30.5023 31.4071 29.3493 31.2857 28.257 31.5891C27.1647 31.8925 26.2544 32.6207 25.7083 33.5917C24.9194 34.9874 24.9801 36.6865 25.8903 38.0216C24.4946 37.9609 23.1595 38.6891 22.4313 39.9028C22.31 40.0848 22.2493 40.2669 22.1886 40.4489C21.5211 42.1481 22.2493 44.09 23.8271 45.0002L26.2544 46.3353C25.7689 46.3353 25.2835 46.3353 24.7373 46.396C20.7929 46.578 17.0912 45.3036 15.0886 43.1797C14.057 42.0267 13.5715 40.7524 13.6929 39.5387C13.6929 39.4173 13.6929 39.2353 13.5715 39.1746C13.4501 39.0532 13.3288 38.9925 13.2074 38.9925L5.86466 39.2959C5.62193 39.2959 5.3792 39.5387 5.3792 39.7814C5.3792 40.0241 5.62193 40.2669 5.86466 40.2669L12.6613 39.9635C12.6613 41.2985 13.2681 42.6942 14.3604 43.8472C16.6057 46.2746 20.4895 47.6096 24.798 47.4276C25.951 47.4276 26.9826 47.3062 27.8929 47.3062L32.0801 49.6729C32.9296 50.1583 33.9612 50.2797 34.9322 50.037C35.9031 49.7942 36.692 49.1267 37.1775 48.2771C37.7236 47.3062 37.7843 46.0925 37.3595 45.0609C38.2091 45.425 39.18 45.425 40.0903 45.1823C41.1826 44.8789 42.0929 44.1506 42.639 43.1797C43.4279 41.784 43.3672 40.0848 42.5177 38.8105L51.5595 42.3908C55.0185 43.7259 58.7809 42.937 60.0553 40.631C60.5407 39.7207 60.6014 38.6284 60.2373 37.5968C59.6305 36.019 58.1134 34.5626 56.0501 33.7737L36.8741 27.2806L53.0159 26.0669C56.7177 25.7635 59.7518 23.3968 59.8732 20.7267C59.8732 19.6951 59.5091 18.7241 58.6595 17.9353C57.4459 16.7823 55.4433 16.1754 53.2587 16.2968L35.0536 16.4182C34.6895 16.4182 32.9296 16.1754 31.2912 15.8113C33.2937 13.7481 38.3305 8.10449 36.0245 4.46347C34.9929 2.82501 33.9006 1.97543 32.7476 1.91474C31.7159 1.85406 30.9271 2.33952 30.2595 2.76431C30.0168 2.88568 29.8348 3.06773 29.6527 3.12842C28.9245 3.43184 27.3467 5.00962 25.5262 6.89082C24.0698 8.34723 22.2493 10.1677 21.7031 10.4105C21.5818 10.4105 21.2783 10.5318 20.9749 10.6532L20.9749 10.4712ZM40.5151 38.0823C41.9108 38.8712 42.5177 40.5703 41.9715 42.0874C41.9715 42.2695 41.8501 42.3908 41.7895 42.5122C41.3647 43.2404 40.6971 43.7865 39.8476 44.0293C38.998 44.272 38.1484 44.1506 37.3595 43.7259L27.8322 38.325C26.4365 37.5361 25.8296 35.837 26.3758 34.3199C26.3758 34.1378 26.4972 34.0165 26.6185 33.8951C27.0433 33.1669 27.7108 32.6207 28.5604 32.378C29.41 32.1353 30.2595 32.2566 31.0484 32.6814L40.5758 38.0823L40.5151 38.0823ZM23.0988 40.631C23.0988 40.5096 23.2202 40.3883 23.2809 40.2669C24.0091 38.9318 25.7083 38.5071 27.0433 39.2353L35.2963 43.9079C36.4493 44.5754 36.9954 46.0318 36.51 47.2455C36.51 47.3669 36.3886 47.4883 36.3279 47.6096C35.9638 48.2772 35.357 48.7019 34.6895 48.884C33.9612 49.066 33.233 49.0053 32.6262 48.6412L24.3732 43.9686C23.2202 43.3011 22.6741 41.8447 23.1595 40.631L23.0988 40.631Z" fill="#133037"/>
</svg>
