<svg width="61" height="44" viewBox="0 0 61 44" fill="none" xmlns="http://www.w3.org/2000/svg">
<path opacity="0.4" d="M60.0001 15.3766C59.3959 13.6246 57.946 12.3559 56.1335 11.6913C56.3148 11.4497 56.4356 11.208 56.5564 10.906C57.1606 9.51642 57.1606 7.94564 56.5564 6.61652C55.2273 3.71662 51.4816 2.26666 48.0984 3.41454L30.2761 9.21433C28.4637 7.4019 26.4096 6.49569 24.1742 6.37486C19.5827 6.19362 15.7766 9.87889 14.2058 11.6309C14.085 11.6913 13.9642 11.8122 13.9038 11.933C13.7225 12.1142 9.97683 16.7661 9.79559 23.4117L4.59994 24.5596C3.51248 24.8013 2.7875 25.8887 3.08957 26.9762C3.2104 27.4595 3.45206 27.822 3.81455 28.1241L5.38532 38.8174C5.38532 38.8174 5.38532 38.8779 5.32491 38.9383C5.08325 39.4216 4.96243 39.9653 5.14367 40.5091C5.2645 41.0528 5.62698 41.4757 6.1103 41.7174C6.59362 41.959 7.13735 42.0194 7.62066 41.8986L16.8641 39.3008C20.5494 42.8652 24.2347 43.6506 26.7721 43.6506H26.8325C27.0741 43.6506 27.2554 43.6506 27.497 43.6506C31.3032 43.4694 34.2635 41.6569 35.8947 40.0257L47.6151 38.9987C49.6692 38.757 51.3608 37.73 52.267 36.2801C52.992 35.0718 53.1732 33.6822 52.7503 32.3531C52.5691 31.8094 52.267 31.2656 51.8441 30.7823H52.0253C53.7774 30.4198 55.2273 29.5136 56.1335 28.3053C56.2544 28.1241 56.3752 27.8824 56.496 27.7012C57.1606 26.4325 57.221 25.0429 56.6773 23.7742C56.496 23.3513 56.3148 22.9889 56.0127 22.6264C57.6439 22.0826 58.973 21.0556 59.7584 19.6661C60.4834 18.3369 60.6042 16.7662 60.0605 15.3766H60.0001Z" fill="#16375E"/>
<path d="M56.9794 12.3559C56.3753 10.6038 54.9253 9.33513 53.1129 8.67057C53.2941 8.42892 53.4149 8.18727 53.5358 7.88519C54.1399 6.49566 54.1399 4.92488 53.5358 3.59576C52.2066 0.69586 48.4609 -0.754091 45.0777 0.393785L27.2554 6.19357C25.443 4.38114 23.3889 3.47493 21.1536 3.3541C16.5621 3.17286 12.756 6.85813 11.1852 8.61016C11.0644 8.67057 10.9435 8.7914 10.8831 8.91223C10.7019 9.09347 6.95617 13.7454 6.77493 20.391L1.57928 21.5389C0.491816 21.7805 -0.233158 22.868 0.0689142 23.9554C0.189743 24.4388 0.431399 24.8013 0.793887 25.1033L2.36466 35.7967C2.36466 35.7967 2.36466 35.8571 2.30425 35.9175C2.06259 36.4009 1.94177 36.9446 2.12301 37.4883C2.24384 38.032 2.60632 38.4549 3.08964 38.6966C3.57296 38.9383 4.11669 38.9987 4.6 38.8778L13.8434 36.28C17.5287 39.8445 21.214 40.6299 23.7514 40.6299H23.8118C24.0535 40.6299 24.2347 40.6299 24.4764 40.6299C28.2825 40.4486 31.2428 38.6362 32.874 37.005L44.5944 35.978C46.6485 35.7363 48.3401 34.7092 49.2463 33.2593C49.9713 32.051 50.1526 30.6615 49.7297 29.3324C49.5484 28.7886 49.2463 28.2449 48.8234 27.7616H49.0047C50.7567 27.3991 52.2066 26.4929 53.1129 25.2846C53.2337 25.1033 53.3545 24.8617 53.4754 24.6804C54.1399 23.4117 54.2003 22.0222 53.6566 20.7535C53.4754 20.3306 53.2941 19.9681 52.992 19.6056C54.6232 19.0619 55.9523 18.0348 56.7377 16.6453C57.4627 15.3162 57.5835 13.7454 57.0398 12.3559H56.9794Z" fill="#133037"/>
<path d="M55.2877 13.9871C55.2877 13.6246 55.2877 13.2017 55.1065 12.8392C54.9252 12.3559 54.6232 11.8726 54.2607 11.5101C54.0794 11.3288 53.8378 11.1476 53.5961 10.9663C53.3545 10.7851 53.1128 10.6643 52.8711 10.5434C52.6295 10.4226 52.3274 10.3018 52.0253 10.2414C51.9045 10.2414 51.7233 10.1809 51.6024 10.1205C51.3004 10.1205 50.9983 10.0601 50.6962 10.0601C50.2129 10.0601 49.79 10.0601 49.3067 10.1809L43.8694 11.4497L43.084 11.6309L38.9758 12.5975L36.4384 13.2017L48.9442 9.15389C49.8504 8.85182 50.5754 8.36851 51.1191 7.76437C51.6628 7.16022 51.9649 6.43525 51.9649 5.71028C51.9649 5.22696 51.9045 4.68323 51.6628 4.19991C51.3608 3.53535 50.817 2.9312 50.1525 2.56871C50.0317 2.5083 49.9108 2.44789 49.8504 2.38748C49.6692 2.26665 49.4879 2.20624 49.2463 2.14582C49.065 2.14582 48.8838 2.02499 48.763 2.02499C47.7963 1.78333 46.7693 1.78333 45.7422 2.14582L35.4718 5.46862L26.7116 8.30809C20.9119 1.42084 14.5079 7.76437 12.6351 9.93929H12.5746C12.5746 9.93929 12.3934 10.181 12.0913 10.5434C11.0643 12.1142 8.58729 16.2828 8.94977 21.7201L2.18335 23.2305L4.17703 36.6425L14.6287 33.7426C21.8181 41.5965 29.8532 37.6696 32.0281 34.7697L44.4735 33.6822C47.0109 33.3801 48.5817 31.5677 47.9172 29.7553C47.313 27.8824 44.7152 26.6137 42.1778 26.9762L40.0633 27.2179L48.7025 25.4658C49.1858 25.345 49.6088 25.2242 49.9712 25.0429C50.0921 24.9825 50.2129 24.9221 50.3337 24.8617C50.5754 24.7408 50.7566 24.62 50.9379 24.4388C51.0587 24.318 51.1795 24.2575 51.2399 24.1367C51.9649 23.3513 52.267 22.2638 51.8441 21.2972C51.8441 21.1764 51.7233 21.0556 51.6628 20.9951C51.6628 20.9951 51.6628 20.9347 51.6024 20.8743C51.6024 20.8139 51.542 20.7535 51.4816 20.6931C51.4816 20.6931 51.4212 20.5723 51.3608 20.5723C51.3608 20.5723 51.3004 20.4514 51.2399 20.4514C51.2399 20.4514 51.1191 20.3306 51.0587 20.2702C51.0587 20.2702 50.9983 20.2098 50.9379 20.1493C50.8775 20.1493 50.817 20.0285 50.7566 19.9681C50.7566 19.9681 50.7566 19.9681 50.6962 19.9681C50.6358 19.9077 50.515 19.8473 50.4546 19.7869C49.4275 19.1223 48.038 18.7598 46.6484 18.8806L52.0857 17.6119C52.267 17.6119 52.3878 17.5515 52.5086 17.4911C53.2336 17.2495 53.8378 16.887 54.3211 16.4036C54.8044 15.9203 54.5023 16.2224 54.5627 16.1016C54.6836 15.9807 54.744 15.7995 54.8648 15.6787C54.9252 15.5578 55.0461 15.3766 55.1065 15.2558C55.2877 14.8933 55.3481 14.4704 55.3481 14.0475L55.2877 13.9871Z" fill="#EDAC6B"/>
<path d="M9.3726 21.7805C9.01011 16.5244 11.4267 12.4163 12.4537 10.9059C12.5141 10.8455 12.6954 10.6038 12.8766 10.3621C13.0579 10.1205 13.36 9.81843 13.7829 9.39553C15.4745 7.64351 18.1327 5.58941 21.0326 5.71024C22.7846 5.77065 24.4158 6.67687 25.9262 8.30806C26.047 8.4893 26.2282 8.61014 26.3491 8.79139C26.7116 9.2747 27.1345 9.81842 27.4365 10.3621C33.7801 20.4514 29.3698 24.4387 28.6448 25.0429C28.3428 25.0429 27.4969 25.0429 26.4699 24.3179C25.3824 23.5325 23.8721 21.7805 22.7846 17.7931C22.543 16.162 22.1805 15.0141 22.1805 15.0141C22.1201 14.7724 21.818 14.5912 21.5763 14.6516C21.3347 14.712 21.1534 14.9537 21.2138 15.2557C21.3951 16.1619 21.5763 17.0682 21.7576 17.8536C22.1805 20.9347 21.9388 24.8012 18.3744 25.9491C18.0723 26.0699 17.9515 26.3116 18.0119 26.6137C18.0723 26.8553 18.2535 26.9761 18.4952 26.9761C18.4952 26.9761 18.616 26.9761 18.6764 26.9761C21.1534 26.1908 22.6034 24.1971 22.9054 21.2368C23.7512 23.0492 24.7179 24.3783 25.9262 25.2241C27.5574 26.3116 28.8865 26.0699 28.9469 26.0699C29.0073 26.0699 29.0677 26.0699 29.1281 26.0095C29.1886 26.0095 35.6529 21.4784 28.3428 9.81842C28.1011 9.39552 27.799 8.97262 27.497 8.61013L45.8026 2.6291C47.9775 1.90412 50.3336 2.74993 51.119 4.50195C51.4211 5.22692 51.4211 6.0123 51.119 6.73728C50.6961 7.64349 49.8503 8.36848 48.7024 8.73097L31.5447 14.2891C31.4239 14.2891 31.3031 14.4099 31.2427 14.5308C31.1822 14.6516 31.1822 14.7724 31.2427 14.9537C31.3031 15.1953 31.4843 15.3161 31.726 15.3161C31.726 15.3161 31.8468 15.3161 31.9072 15.3161L36.4987 13.8058L49.367 10.7246C51.5419 10.1809 53.8981 11.208 54.5022 13.0204C54.7439 13.7454 54.6835 14.5308 54.321 15.2557C53.8377 16.1619 52.9315 16.8265 51.7836 17.0682L46.4067 18.3369C46.165 18.3369 45.863 18.3973 45.6213 18.4577L42.5402 19.2431L32.3301 21.6597C32.028 21.7201 31.8468 22.0222 31.9676 22.3242C32.028 22.6263 32.3301 22.8075 32.6322 22.7471L46.5275 19.4243C47.6754 19.3035 48.8233 19.5452 49.7295 20.0285H49.8503C49.9712 20.1493 50.092 20.2701 50.2128 20.3305C50.2732 20.391 50.3941 20.4514 50.4545 20.5118C50.4545 20.5118 50.5753 20.6326 50.6357 20.693C50.7565 20.8139 50.8774 20.9347 50.9378 21.0555L51.119 20.9347L50.9982 21.1159C51.119 21.2972 51.1794 21.418 51.2399 21.5993C51.4815 22.2034 51.4815 22.8075 51.1794 23.3513C51.1794 23.4721 51.0586 23.5325 50.9982 23.6533C50.9378 23.7138 50.8774 23.8346 50.817 23.895C50.2732 24.4387 49.4878 24.8616 48.5212 25.1033L32.2093 28.4261C32.0885 28.4261 31.9676 28.5469 31.8468 28.6678C31.7864 28.7886 31.726 28.9094 31.7864 29.0907C31.7864 29.3323 32.028 29.5136 32.3301 29.5136C32.3301 29.5136 32.3905 29.5136 32.4509 29.5136L40.1236 27.9428L42.2381 27.7011C44.5338 27.3991 46.8296 28.4865 47.4337 30.1177C47.615 30.7219 47.5546 31.326 47.2525 31.8697C46.7692 32.6551 45.7421 33.2593 44.4734 33.3801L32.028 34.4676C31.9072 34.4676 31.726 34.528 31.6656 34.7092C30.5781 36.2196 27.8594 37.9112 24.5971 38.0924C22.2409 38.2133 18.616 37.5487 15.112 33.6822C14.9911 33.5613 14.7495 33.5009 14.5682 33.5009L4.11653 36.4008C3.9957 36.4008 3.87487 36.5216 3.81446 36.6425C3.75404 36.7633 3.75404 36.8841 3.81446 37.0654C3.81446 37.1862 3.93529 37.307 4.05612 37.3674C4.17694 37.4279 4.29777 37.4279 4.47902 37.3674L14.6287 34.528C18.1327 38.2737 21.6972 39.059 24.1137 39.059H24.1742C24.3554 39.059 24.5971 39.059 24.7783 39.059C28.2823 38.8778 31.1218 37.1258 32.5114 35.4342L44.7755 34.3467C46.3463 34.1655 47.6754 33.3801 48.34 32.3531C48.8233 31.5677 48.9441 30.601 48.642 29.7552C48.2191 28.4865 46.9504 27.3991 45.3796 26.9157L49.0649 26.1908C50.4545 25.8887 51.5419 25.2241 52.2065 24.3179C52.3273 24.1971 52.3877 24.0158 52.4481 23.895C52.8711 23.0492 52.9315 22.143 52.569 21.2368C52.1461 20.1493 51.119 19.3035 49.7899 18.8202L52.4481 18.216C53.8981 17.8535 55.046 17.0077 55.7105 15.8599C56.2543 14.8932 56.3147 13.8058 55.9522 12.7787C55.1064 10.483 52.2669 9.21428 49.5483 9.81842H49.2462C49.2462 9.87884 49.4878 9.81842 49.4878 9.81842C50.8774 9.3351 52.0252 8.42889 52.5086 7.2206C52.9315 6.19356 52.9315 5.10609 52.5086 4.13946C51.4815 1.96454 48.5212 0.877074 45.863 1.72288L27.1345 7.82475C25.4429 5.89148 23.5096 4.86444 21.3951 4.80402C17.3473 4.68319 13.8433 8.12683 12.5141 9.6976C12.4537 9.6976 12.3933 9.75801 12.3329 9.81842C12.1517 9.99966 8.34555 14.7724 8.5872 21.5388L2.24368 22.9888C1.94161 23.0492 1.76037 23.3513 1.82078 23.5929C1.88119 23.895 2.18327 24.0762 2.42492 24.0158L9.19135 22.5055C9.43301 22.5055 9.61425 22.2034 9.61425 21.9617L9.3726 21.7805Z" fill="#133037"/>
<path d="M26.2889 32.9573C26.3493 33.1385 26.5306 33.2594 26.7722 33.2594C26.8326 33.2594 26.9535 33.2594 27.0139 33.2594C27.1347 33.199 27.2555 33.0781 27.2555 32.9573C27.2555 32.8365 27.2555 32.6552 27.2555 32.5344C25.0806 28.1241 21.8182 28.0637 21.637 28.0637C21.3349 28.0637 21.0933 28.3054 21.0933 28.6074C21.0933 28.9095 21.3349 29.1512 21.637 29.1512C21.7578 29.1512 24.4161 29.2116 26.2889 33.0177V32.9573Z" fill="#266B36"/>
</svg>
