<svg width="62" height="45" viewBox="0 0 62 45" fill="none" xmlns="http://www.w3.org/2000/svg">
<path opacity="0.4" d="M60.6594 16.0991C60.0552 14.347 58.6053 13.0783 56.7929 12.4138C56.9741 12.1721 57.0949 11.9305 57.2158 11.6284C57.8199 10.2389 57.8199 8.66808 57.2158 7.33896C55.8866 4.43906 52.1409 2.9891 48.7577 4.13698L30.9354 9.93678C29.123 8.12434 27.0689 7.21813 24.8336 7.0973C20.2421 6.91606 16.436 10.6013 14.8652 12.3534C14.7444 12.4138 14.6235 12.5346 14.5631 12.6554C14.3819 12.8367 10.6362 17.4886 10.4549 24.1342L5.25927 25.2821C4.17181 25.5237 3.44683 26.6112 3.74891 27.6986C3.86974 28.182 4.11139 28.5445 4.47388 28.8465L6.04466 39.5399C6.04466 39.5399 6.04466 39.6003 5.98424 39.6607C5.74258 40.144 5.62176 40.6878 5.803 41.2315C5.92383 41.7752 6.28632 42.1981 6.76963 42.4398C7.25295 42.6815 7.79668 42.7419 8.28 42.621L17.5234 40.0232C21.2087 43.5877 24.894 44.3731 27.4314 44.3731H27.4918C27.7335 44.3731 27.9147 44.3731 28.1564 44.3731C31.9625 44.1918 34.9228 42.3794 36.554 40.7482L48.2744 39.7211C50.3285 39.4795 52.0201 38.4524 52.9263 37.0025C53.6513 35.7942 53.8325 34.4047 53.4096 33.0755C53.2284 32.5318 52.9263 31.9881 52.5034 31.5048H52.6847C54.4367 31.1423 55.8866 30.2361 56.7929 29.0278C56.9137 28.8465 57.0345 28.6049 57.1553 28.4236C57.8199 27.1549 57.8803 25.7654 57.3366 24.4967C57.1553 24.0738 56.9741 23.7113 56.672 23.3488C58.3032 22.8051 59.6323 21.778 60.4177 20.3885C61.1427 19.0594 61.2635 17.4886 60.7198 16.0991H60.6594Z" fill="#16375E"/>
<path d="M57.6387 13.0783C57.0346 11.3263 55.5846 10.0576 53.7722 9.39302C53.9534 9.15136 54.0743 8.90971 54.1951 8.60764C54.7992 7.2181 54.7992 5.64732 54.1951 4.3182C52.866 1.4183 49.1203 -0.0316483 45.7371 1.11623L27.9148 6.91602C26.1023 5.10358 24.0483 4.19737 21.8129 4.07655C17.2214 3.8953 13.4153 7.58058 11.8445 9.3326C11.7237 9.39301 11.6029 9.51384 11.5424 9.63467C11.3612 9.81592 7.6155 14.4678 7.43426 21.1134L2.23861 22.2613C1.15115 22.503 0.426174 23.5904 0.728246 24.6779C0.849076 25.1612 1.09073 25.5237 1.45322 25.8258L3.024 36.5191C3.024 36.5191 3.024 36.5796 2.96358 36.64C2.72192 37.1233 2.6011 37.667 2.78234 38.2108C2.90317 38.7545 3.26566 39.1774 3.74897 39.419C4.23229 39.6607 4.77602 39.7211 5.25934 39.6003L14.5028 37.0025C18.188 40.5669 21.8733 41.3523 24.4107 41.3523H24.4711C24.7128 41.3523 24.8941 41.3523 25.1357 41.3523C28.9418 41.1711 31.9021 39.3586 33.5333 37.7274L45.2537 36.7004C47.3078 36.4587 48.9995 35.4317 49.9057 33.9817C50.6306 32.7734 50.8119 31.3839 50.389 30.0548C50.2077 29.5111 49.9057 28.9673 49.4828 28.484H49.664C51.416 28.1215 52.866 27.2153 53.7722 26.007C53.893 25.8258 54.0139 25.5841 54.1347 25.4029C54.7992 24.1342 54.8597 22.7446 54.3159 21.4759C54.1347 21.053 53.9534 20.6905 53.6514 20.3281C55.2826 19.7843 56.6117 18.7573 57.3971 17.3677C58.122 16.0386 58.2429 14.4678 57.6991 13.0783H57.6387Z" fill="#133037"/>
<path d="M55.9471 14.7095C55.9471 14.347 55.9471 13.9241 55.7658 13.5616C55.5846 13.0783 55.2825 12.595 54.92 12.2325C54.7388 12.0513 54.4971 11.87 54.2554 11.6888C54.0138 11.5075 53.7721 11.3867 53.5305 11.2659C53.2888 11.1451 52.9867 11.0242 52.6847 10.9638C52.5638 10.9638 52.3826 10.9034 52.2618 10.843C51.9597 10.843 51.6576 10.7826 51.3555 10.7826C50.8722 10.7826 50.4493 10.7826 49.966 10.9034L44.5287 12.1721L43.7433 12.3533L39.6351 13.32L37.0977 13.9241L49.6035 9.87633C50.5097 9.57426 51.2347 9.09095 51.7784 8.48681C52.3222 7.88266 52.6243 7.15769 52.6243 6.43272C52.6243 5.9494 52.5638 5.40567 52.3222 4.92235C52.0201 4.25779 51.4764 3.65364 50.8118 3.29115C50.691 3.23074 50.5702 3.17033 50.5097 3.10992C50.3285 2.98909 50.1473 2.92868 49.9056 2.86826C49.7244 2.86826 49.5431 2.74743 49.4223 2.74743C48.4557 2.50577 47.4286 2.50578 46.4016 2.86826L36.1311 6.19106L27.371 9.03054C21.5712 2.14328 15.1672 8.48681 13.2944 10.6617H13.234C13.234 10.6617 13.0527 10.9034 12.7507 11.2659C11.7236 12.8367 9.24662 17.0053 9.60911 22.4426L2.84268 23.9529L4.83636 37.3649L15.2881 34.4651C22.4774 42.3189 30.5125 38.392 32.6875 35.4921L45.1328 34.4046C47.6703 34.1026 49.241 32.2901 48.5765 30.4777C47.9723 28.6048 45.3745 27.3361 42.8371 27.6986L40.7226 27.9403L49.3619 26.1883C49.8452 26.0674 50.2681 25.9466 50.6306 25.7654C50.7514 25.705 50.8722 25.6445 50.9931 25.5841C51.2347 25.4633 51.416 25.3425 51.5972 25.1612C51.718 25.0404 51.8389 24.98 51.8993 24.8591C52.6243 24.0738 52.9263 22.9863 52.5034 22.0197C52.5034 21.8988 52.3826 21.778 52.3222 21.7176C52.3222 21.7176 52.3222 21.6572 52.2618 21.5968C52.2618 21.5364 52.2014 21.4759 52.1409 21.4155C52.1409 21.4155 52.0805 21.2947 52.0201 21.2947C52.0201 21.2947 51.9597 21.1739 51.8993 21.1739C51.8993 21.1739 51.7785 21.053 51.718 20.9926C51.718 20.9926 51.6576 20.9322 51.5972 20.8718C51.5368 20.8718 51.4764 20.751 51.416 20.6905C51.416 20.6905 51.416 20.6905 51.3555 20.6905C51.2951 20.6301 51.1743 20.5697 51.1139 20.5093C50.0868 19.8447 48.6973 19.4822 47.3078 19.6031L52.7451 18.3344C52.9263 18.3344 53.0472 18.274 53.168 18.2136C53.893 17.9719 54.4971 17.6094 54.9804 17.1261C55.4637 16.6428 55.1617 16.9448 55.2221 16.824C55.3429 16.7032 55.4033 16.5219 55.5242 16.4011C55.5846 16.2803 55.7054 16.099 55.7658 15.9782C55.9471 15.6157 56.0075 15.1928 56.0075 14.7699L55.9471 14.7095Z" fill="#EDAC6B"/>
<path d="M10.0319 22.503C9.66944 17.2469 12.086 13.1387 13.1131 11.6284C13.1735 11.568 13.3547 11.3263 13.536 11.0846C13.7172 10.843 14.0193 10.5409 14.4422 10.118C16.1338 8.36598 18.792 6.31188 21.6919 6.43271C23.4439 6.49313 25.0751 7.39934 26.5855 9.03053C26.7063 9.21177 26.8876 9.33261 27.0084 9.51386C27.3709 9.99717 27.7938 10.5409 28.0959 11.0846C34.4394 21.1738 30.0291 25.1612 29.3042 25.7654C29.0021 25.7654 28.1563 25.7654 27.1292 25.0404C26.0418 24.255 24.5314 22.503 23.444 18.5156C23.2023 16.8844 22.8398 15.7365 22.8398 15.7365C22.7794 15.4949 22.4773 15.3136 22.2357 15.3741C21.994 15.4345 21.8128 15.6761 21.8732 15.9782C22.0544 16.8844 22.2357 17.7906 22.4169 18.576C22.8398 21.6572 22.5981 25.5237 19.0337 26.6716C18.7316 26.7924 18.6108 27.0341 18.6712 27.3361C18.7316 27.5778 18.9129 27.6986 19.1545 27.6986C19.1545 27.6986 19.2753 27.6986 19.3358 27.6986C21.8128 26.9132 23.2627 24.9195 23.5648 21.9592C24.4106 23.7717 25.3772 25.1008 26.5855 25.9466C28.2167 27.0341 29.5458 26.7924 29.6062 26.7924C29.6666 26.7924 29.7271 26.7924 29.7875 26.732C29.8479 26.732 36.3122 22.2009 29.0021 10.5409C28.7604 10.118 28.4584 9.69509 28.1563 9.3326L46.4619 3.35157C48.6368 2.62659 50.993 3.4724 51.7784 5.22442C52.0804 5.9494 52.0804 6.73478 51.7784 7.45975C51.3555 8.36597 50.5097 9.09095 49.3618 9.45344L32.2041 15.0116C32.0832 15.0116 31.9624 15.1324 31.902 15.2532C31.8416 15.3741 31.8416 15.4949 31.902 15.6761C31.9624 15.9178 32.1436 16.0386 32.3853 16.0386C32.3853 16.0386 32.5061 16.0386 32.5665 16.0386L37.158 14.5283L50.0263 11.4471C52.2013 10.9034 54.5574 11.9304 55.1616 13.7429C55.4032 14.4678 55.3428 15.2532 54.9803 15.9782C54.497 16.8844 53.5908 17.549 52.4429 17.7906L47.066 19.0593C46.8244 19.0593 46.5223 19.1198 46.2806 19.1802L43.1995 19.9656L32.9894 22.3821C32.6874 22.4426 32.5061 22.7446 32.627 23.0467C32.6874 23.3488 32.9894 23.53 33.2915 23.4696L47.1869 20.1468C48.3347 20.026 49.4826 20.2676 50.3888 20.7509H50.5097C50.6305 20.8718 50.7513 20.9926 50.8721 21.053C50.9326 21.1134 51.0534 21.1739 51.1138 21.2343C51.1138 21.2343 51.2346 21.3551 51.295 21.4155C51.4159 21.5363 51.5367 21.6572 51.5971 21.778L51.7784 21.6572L51.6575 21.8384C51.7784 22.0197 51.8388 22.1405 51.8992 22.3217C52.1409 22.9259 52.1408 23.53 51.8388 24.0737C51.8388 24.1946 51.7179 24.255 51.6575 24.3758C51.5971 24.4362 51.5367 24.5571 51.4763 24.6175C50.9326 25.1612 50.1472 25.5841 49.1805 25.8258L32.8686 29.1486C32.7478 29.1486 32.627 29.2694 32.5061 29.3902C32.4457 29.5111 32.3853 29.6319 32.4457 29.8131C32.4457 30.0548 32.6874 30.236 32.9894 30.236C32.9894 30.236 33.0499 30.236 33.1103 30.236L40.7829 28.6653L42.8974 28.4236C45.1932 28.1215 47.4889 29.209 48.0931 30.8402C48.2743 31.4443 48.2139 32.0485 47.9118 32.5922C47.4285 33.3776 46.4015 33.9817 45.1328 34.1026L32.6874 35.19C32.5665 35.19 32.3853 35.2504 32.3249 35.4317C31.2374 36.9421 28.5188 38.6337 25.2564 38.8149C22.9002 38.9357 19.2754 38.2712 15.7713 34.4046C15.6505 34.2838 15.4088 34.2234 15.2276 34.2234L4.77586 37.1233C4.65503 37.1233 4.5342 37.2441 4.47379 37.3649C4.41337 37.4858 4.41337 37.6066 4.47379 37.7878C4.47379 37.9087 4.59462 38.0295 4.71545 38.0899C4.83628 38.1503 4.9571 38.1503 5.13835 38.0899L15.288 35.2504C18.792 38.9961 22.3565 39.7815 24.7731 39.7815H24.8335C25.0147 39.7815 25.2564 39.7815 25.4376 39.7815C28.9417 39.6003 31.7812 37.8483 33.1707 36.1567L45.4348 35.0692C47.0056 34.888 48.3347 34.1026 48.9993 33.0755C49.4826 32.2901 49.6034 31.3235 49.3014 30.4777C48.8785 29.209 47.6098 28.1215 46.039 27.6382L49.7243 26.9132C51.1138 26.6112 52.2013 25.9466 52.8658 25.0404C52.9866 24.9195 53.0471 24.7383 53.1075 24.6175C53.5304 23.7717 53.5908 22.8655 53.2283 21.9592C52.8054 20.8718 51.7784 20.026 50.4492 19.5427L53.1075 18.9385C54.5574 18.576 55.7053 17.7302 56.3699 16.5823C56.9136 15.6157 56.974 14.5282 56.6115 13.5012C55.7657 11.2055 52.9262 9.93675 50.2076 10.5409H49.9055C49.9055 10.6013 50.1472 10.5409 50.1472 10.5409C51.5367 10.0576 52.6846 9.15137 53.1679 7.94308C53.5908 6.91603 53.5908 5.82856 53.1679 4.86193C52.1408 2.68701 49.1805 1.59955 46.5223 2.44535L27.7938 8.54722C26.1022 6.61396 24.1689 5.58691 22.0544 5.5265C18.0066 5.40567 14.5026 8.8493 13.1735 10.4201C13.1131 10.4201 13.0527 10.4805 12.9922 10.5409C12.811 10.7221 9.00488 15.4949 9.24654 22.2613L2.90301 23.7113C2.60094 23.7717 2.4197 24.0738 2.48011 24.3154C2.54053 24.6175 2.8426 24.7987 3.08426 24.7383L9.85068 23.2279C10.0923 23.2279 10.2736 22.9259 10.2736 22.6842L10.0319 22.503Z" fill="#133037"/>
<path d="M26.9482 33.6797C27.0087 33.8609 27.1899 33.9818 27.4316 33.9818C27.492 33.9818 27.6128 33.9818 27.6732 33.9818C27.794 33.9213 27.9149 33.8005 27.9149 33.6797C27.9149 33.5589 27.9149 33.3776 27.9149 33.2568C25.74 28.8465 22.4776 28.7861 22.2963 28.7861C21.9943 28.7861 21.7526 29.0278 21.7526 29.3298C21.7526 29.6319 21.9943 29.8736 22.2963 29.8736C22.4172 29.8736 25.0754 29.934 26.9482 33.7401V33.6797Z" fill="#266B36"/>
</svg>
