<svg width="57" height="47" viewBox="0 0 57 47" fill="none" xmlns="http://www.w3.org/2000/svg">
<path opacity="0.4" d="M18.2836 3.26718C18.415 3.20149 18.5463 3.07012 18.6777 3.07012C21.2393 1.42804 26.0342 -0.936536 30.632 0.574172C31.8143 0.968272 32.8652 1.55941 33.8505 2.41329L45.0166 1.55942C46.593 1.42805 48.1037 1.95352 49.286 3.00445C50.6653 4.25243 51.4535 6.09154 51.5192 8.06202C51.5192 8.39044 51.5192 8.71885 51.5192 9.04727C51.3878 10.0325 51.1251 11.0178 50.6653 11.8716C51.1907 12.2001 51.6505 12.5941 52.0446 13.0539C53.2269 14.4333 53.8181 16.3381 53.621 18.3743C53.621 18.7027 53.5553 19.0311 53.4897 19.3595C53.0956 21.1986 52.0446 22.775 50.5996 23.7602C51.3878 25.2053 51.5848 26.9787 51.1251 28.6865C51.0594 29.0149 50.928 29.3433 50.7966 29.606C50.2055 31.0511 49.2859 32.2333 48.1036 33.0215C48.3007 34.0068 48.3007 35.1234 48.038 36.1743C47.9723 36.5027 47.8409 36.7655 47.7752 37.0939C46.5929 40.0496 43.7029 41.8231 40.8785 41.2976L39.1051 40.9692C36.4778 42.9397 32.5368 43.7935 28.3331 43.2681C27.2165 43.1367 26.0342 42.874 24.9176 42.5456C21.7648 41.626 16.1161 39.1301 13.029 32.8245L2.71674 32.6931C2.1256 32.6931 1.53445 32.4304 1.14035 32.0363C0.746258 31.6422 0.483525 31.051 0.483525 30.4599C0.483525 29.8688 0.746258 29.3433 1.14035 28.8835C1.14035 28.8835 1.20605 28.8178 1.27173 28.7521L2.84812 17.1263C2.58539 16.7322 2.45402 16.2067 2.45402 15.7469C2.5197 14.499 3.57063 13.5794 4.8186 13.6451L10.533 13.9735C12.7662 7.0111 18.0209 3.39854 18.2836 3.20149L18.2836 3.26718Z" fill="#16375E"/>
<path d="M8.10269 16.9292L13.8171 17.2576C16.0503 10.2952 21.305 6.68267 21.5677 6.48562C21.6991 6.41994 21.8304 6.28858 21.9618 6.28858C24.5234 4.64651 29.3183 2.28191 33.9161 3.79262C35.0984 4.18672 36.1493 4.77787 37.1345 5.63175L48.3006 4.77786C49.877 4.6465 51.3877 5.17197 52.57 6.2229C53.9494 7.47087 54.7376 9.30998 54.8033 11.2805C54.8033 11.6089 54.8033 11.9373 54.8033 12.2657C54.6719 13.251 54.4092 14.2362 53.9494 15.0901C54.4748 15.4185 54.9346 15.8126 55.3287 16.2724C56.511 17.6517 57.1022 19.5565 56.9051 21.5927C56.9051 21.9211 56.8394 22.2495 56.7737 22.5779C56.3796 24.4171 55.3287 25.9935 53.8837 26.9787C54.6719 28.4237 54.8689 30.1972 54.4092 31.9049C54.3435 32.2333 54.2121 32.5617 54.0807 32.8245C53.4896 34.2695 52.57 35.4518 51.3877 36.24C51.5848 37.2252 51.5848 38.3418 51.3221 39.3928C51.2564 39.7212 51.125 39.9839 51.0593 40.3123C49.877 43.2681 46.987 45.0415 44.1626 44.516L42.3892 44.1876C39.7619 46.1581 35.8209 47.012 31.6172 46.4865C30.5006 46.3552 29.3183 46.0924 28.2017 45.764C25.0489 44.8445 19.4002 42.3485 16.3131 36.0429L6.00083 35.9116C5.40968 35.9116 4.81854 35.6488 4.42444 35.2547C4.03035 34.8606 3.76761 34.2695 3.76761 33.6783C3.76761 33.0872 4.03035 32.5617 4.42444 32.102C4.42444 32.102 4.49014 32.0363 4.55582 31.9706L6.1322 20.3447C5.86947 19.9506 5.7381 19.4252 5.7381 18.9654C5.80378 17.7174 6.85472 16.7978 8.10269 16.8635L8.10269 16.9292Z" fill="#133037"/>
<path d="M15.5246 19.4252C16.7726 13.6451 20.5822 10.0325 22.1586 8.71885C22.5527 8.39043 22.8155 8.19339 22.8155 8.19339C22.8155 8.19339 22.8155 8.19339 22.8811 8.19339C25.18 6.68269 32.0111 2.93876 36.3461 7.86498C36.5432 7.86498 36.6745 7.79929 36.8716 7.79929L48.4975 6.87974C50.665 6.68269 52.5041 8.65316 52.6355 11.2805C52.6355 11.5432 52.6355 11.7403 52.6355 12.003C52.3728 14.3019 50.7964 16.141 48.8259 16.2724L48.4975 16.2724L51.2562 16.4038C53.4894 16.5351 55.0658 18.7027 54.803 21.2643C54.803 21.527 54.803 21.7241 54.6717 21.9868C54.1462 24.22 52.3728 25.8621 50.3366 25.7307L46.8554 25.5994L49.6798 26.1248C51.7159 26.5189 52.9639 28.8178 52.3071 31.2481C52.3071 31.4451 52.1757 31.7079 52.11 31.9049C51.4532 33.6127 50.0082 34.7293 48.4318 34.9263C49.22 35.8459 49.6141 37.2909 49.22 38.8016C49.22 38.9987 49.0886 39.2614 49.0229 39.4585C48.2347 41.4289 46.3956 42.6112 44.6222 42.2828L41.7321 41.6917C36.8059 46.5522 22.1586 44.9101 17.7579 33.744L6.00062 33.6127L7.97111 19.0311L15.5246 19.4909L15.5246 19.4252Z" fill="#EDAC6B"/>
<path d="M44.4909 42.7426L41.9292 42.2171C39.696 44.2533 35.9521 45.1072 31.8141 44.6474C30.7631 44.516 29.7122 44.319 28.6613 43.9906C25.5742 43.071 20.0568 40.575 17.4295 34.2038L6.06635 34.0724C5.93498 34.0724 5.73793 34.0724 5.67225 33.8754C5.54088 33.744 5.4752 33.6127 5.4752 33.4813C5.4752 33.3499 5.4752 33.1529 5.67225 33.0872C5.80361 32.9558 5.93498 32.8901 6.06635 32.9558L17.8236 33.0872C18.0863 33.0872 18.2834 33.2186 18.3491 33.4813C20.9107 39.9839 27.0192 42.9396 31.9454 43.5308C35.2952 43.9249 38.448 43.3337 40.4842 41.9544L34.0473 40.7064C33.062 40.5094 32.1425 39.9182 31.617 38.9987C30.9602 37.882 30.7631 36.5027 31.0915 35.1234C31.4856 33.547 32.6023 32.1676 33.9816 31.5765C33.9816 31.5765 33.9816 31.5765 33.9816 31.5108C33.5218 30.7883 33.2591 29.9344 33.2591 29.0149C32.9307 28.7521 32.6679 28.4894 32.4709 28.2267C31.4857 27.0444 30.8288 25.3366 30.5004 23.1691C29.2524 26.1905 27.1506 27.8326 24.3919 27.9639C24.0635 27.9639 23.8007 27.7012 23.8007 27.4385C23.8007 27.11 24.0635 26.8473 24.3262 26.8473C28.3986 26.716 29.8436 22.7093 30.3033 19.4251C30.3033 18.5056 30.369 17.5204 30.5004 16.4694C30.5004 16.141 30.7631 15.944 31.0916 15.944C31.42 15.944 31.617 16.2067 31.617 16.4694C31.617 16.4694 31.617 17.7174 31.42 19.4251C31.2886 24.023 32.4052 26.3875 33.3248 27.5041C33.4561 27.7012 33.5875 27.8326 33.7189 27.9639C33.9159 28.161 34.113 28.2923 34.31 28.4237C34.7698 28.7521 35.1639 28.8178 35.3609 28.8835C35.8207 28.6864 37.5942 27.8982 38.7108 25.5337C38.7765 25.3366 38.9078 25.1396 38.9735 24.8768C38.9735 24.7455 39.1049 24.5484 39.1705 24.4171C39.1705 24.22 39.3019 24.0229 39.3676 23.8259C39.8274 22.0525 39.8931 19.8849 39.5646 17.4547C39.5646 17.2576 39.5647 17.0606 39.4333 16.7978C39.4333 16.6665 39.4333 16.4694 39.3676 16.3381C39.3676 16.141 39.3019 15.8783 39.2362 15.6812C39.0392 14.893 38.8421 14.0392 38.6451 13.1853C38.448 12.4628 38.1853 11.8059 37.9226 11.2148C37.8569 11.0177 37.7255 10.755 37.6598 10.558C37.2657 9.76977 36.806 9.04725 36.3462 8.4561C36.2148 8.25906 36.0178 8.1277 35.8864 7.93065C35.1639 7.20813 34.31 6.68265 33.3905 6.35424L33.1934 6.35424C30.2377 5.43468 26.9535 6.74834 24.7203 7.99631C24.2605 8.25904 23.8664 8.52178 23.4723 8.71883C23.1439 8.91588 22.8812 9.11294 22.8155 9.17862C21.3048 10.4266 17.5609 13.9735 16.3129 19.6222C16.3129 19.8849 15.9845 20.082 15.7217 20.082L8.16821 19.6222C8.03684 19.6222 7.90548 19.5565 7.77411 19.4251C7.64274 19.2938 7.64274 19.1624 7.64274 19.0311C7.64274 18.7026 7.90548 18.5056 8.2339 18.5056L15.3276 18.9654C17.1011 11.8059 22.5528 7.99633 22.7498 7.86496C22.7498 7.86496 22.8812 7.79927 22.9469 7.79927C24.8517 6.61698 29.5152 3.98966 33.6532 5.369C34.8355 5.76309 35.8864 6.41993 36.806 7.40517C36.8717 7.40517 37.003 7.40517 37.0687 7.40517L48.6946 6.48561C49.8112 6.41993 50.8621 6.74835 51.716 7.53654C52.7669 8.45611 53.3581 9.90113 53.4237 11.4118C53.4237 11.6746 53.4237 11.9373 53.4237 12.2C53.2924 13.7107 52.5699 15.0901 51.4533 16.0096C52.5699 16.0096 53.5551 16.5351 54.3433 17.4547C55.2629 18.5056 55.7226 19.9506 55.5256 21.527C55.5256 21.7897 55.4599 22.0525 55.3942 22.3152C54.8688 24.4827 53.3581 26.1248 51.4533 26.4532C51.8474 26.7159 52.2415 27.1101 52.5042 27.5698C53.2267 28.6864 53.4237 30.1971 53.0296 31.5765C53.0296 31.8392 52.8983 32.0363 52.7669 32.299C52.1758 33.8754 50.9278 34.992 49.5485 35.4518C50.1396 36.5027 50.271 37.8164 49.9425 39.0643C49.9425 39.3271 49.8112 39.5241 49.7455 39.7869C48.8259 42.0201 46.7241 43.3994 44.6879 42.9396L44.4909 42.7426ZM40.4842 17.4547C40.8126 19.8849 40.6813 22.0525 40.2215 23.9573C40.2215 24.1543 40.0901 24.4171 40.0244 24.6141C40.0244 24.6141 40.0244 24.6141 40.0244 24.6798L42.0606 24.6798L42.389 24.6798L50.3366 25.1396C52.0444 25.2052 53.6208 23.7602 54.0806 21.7897C54.0806 21.5927 54.1463 21.33 54.2119 21.1329C54.3433 19.8849 54.0149 18.7683 53.2924 17.9144C52.7669 17.3233 51.9787 16.9292 51.2562 16.8635L48.5632 16.7322L40.5499 17.389L40.4842 17.4547ZM49.7455 26.716C49.6798 26.716 49.6141 26.716 49.4828 26.716L46.7241 26.1905L39.499 25.8621C37.9882 29.1462 35.3609 30.0001 35.3609 30.0001C35.2953 30.0001 35.2296 30.0001 35.1639 30.0001C35.1639 30.0001 34.8355 30.0001 34.31 29.7374C34.3757 30.1315 34.5727 30.5256 34.7698 30.854C34.8355 30.9853 34.9668 31.1824 35.0982 31.3138C35.2953 31.5108 35.558 31.7079 35.8207 31.9049C36.0835 32.0363 36.2805 32.102 36.5432 32.1676L47.5123 34.3352C47.775 34.3352 48.1034 34.3352 48.4318 34.3352C49.7455 34.1381 50.9278 33.1529 51.4533 31.7079C51.5189 31.5108 51.5846 31.3138 51.6503 31.1167C51.913 30.0001 51.7817 28.8178 51.2562 27.9639C50.8621 27.3728 50.3366 26.9787 49.6798 26.7816L49.7455 26.716ZM48.1691 35.4518C47.9064 35.4518 47.6436 35.4518 47.3809 35.3861L36.4119 33.2186C35.8207 33.0872 35.2296 32.8245 34.7698 32.4304C33.5218 32.8245 32.5366 33.9411 32.1425 35.3861C31.8797 36.437 32.0111 37.5536 32.5366 38.3418C32.9307 38.9987 33.5218 39.3928 34.2443 39.5241L44.6879 41.626C46.1986 41.8887 47.775 40.8378 48.4975 39.13C48.5632 38.933 48.6289 38.7359 48.6946 38.5389C48.9573 37.488 48.8259 36.3713 48.3005 35.5831C48.3005 35.5831 48.2348 35.4518 48.1691 35.4518ZM48.7603 15.6812C50.4023 15.5499 51.8473 13.9078 52.0444 11.9373C52.0444 11.7402 52.0444 11.4775 52.0444 11.2805C52.0444 10.0325 51.5189 8.91589 50.7307 8.25906C50.4023 7.93065 50.0082 7.7336 49.5485 7.60223C49.22 7.53655 48.8916 7.47086 48.5632 7.47086L37.4628 8.32473C37.8569 8.91587 38.251 9.5727 38.5794 10.2952C38.6451 10.4923 38.7764 10.755 38.8421 10.952C39.1049 11.5432 39.3019 12.2 39.499 12.7912C39.7617 13.7107 39.9587 14.6303 40.1558 15.4842C40.1558 15.6812 40.2215 15.944 40.2872 16.141L40.2872 16.2724L48.7603 15.6155L48.7603 15.6812Z" fill="#133037"/>
</svg>
