<svg width="176" height="176" viewBox="0 0 176 176" fill="none" xmlns="http://www.w3.org/2000/svg">
<path d="M114.162 75.4688C114.162 75.3192 114.162 75.1608 114.162 75.0112C114.25 73.0048 114.118 70.9984 113.907 69.0008C113.414 64.3456 112.358 59.84 110.15 55.6688C108.522 52.5888 106.251 49.8696 103.4 47.8544C100.338 45.6896 96.6064 44.4752 92.9016 44.0088C86.5832 43.208 79.7632 44.308 74.3688 47.8192C68.7104 51.4976 65.2608 57.1648 63.7472 63.6504C63.5448 64.5128 63.3776 65.3928 63.2544 66.2728C62.1808 73.656 63.8 80.4408 67.936 86.636C70.1096 89.9008 72.8024 92.6816 75.8384 95.1456C78.4432 97.2576 81.2064 99.1496 84.172 100.698C85.3952 101.341 86.7504 101.71 88.0528 102.203C88.2464 102.282 88.4488 102.353 88.6248 102.494C85.8968 102.265 83.2304 101.71 80.564 101.156C80.5464 101.191 80.5376 101.218 80.52 101.253C80.6256 101.332 80.7224 101.429 80.8368 101.49C81.5408 101.86 82.2448 102.23 82.9488 102.59C83.028 102.626 83.1072 102.652 83.1776 102.705C83.2128 102.731 83.2568 102.802 83.248 102.828C83.2216 102.872 83.16 102.934 83.116 102.934C83.0104 102.934 82.9048 102.916 82.7992 102.89C81.5056 102.564 80.212 102.23 78.9184 101.913C78.6984 101.86 78.4608 101.851 78.232 101.825C78.2144 101.86 78.1968 101.904 78.1792 101.939C78.3024 102.115 78.4168 102.309 78.5576 102.467C79.3232 103.312 80.2648 103.919 81.2856 104.412C81.3912 104.465 81.4968 104.518 81.5936 104.57C81.6376 104.597 81.6728 104.632 81.7168 104.667C81.7168 104.702 81.7168 104.729 81.708 104.764C81.5496 104.755 81.3824 104.773 81.2328 104.729C79.4024 104.113 77.5984 103.435 75.8736 102.538C68.42 98.648 63.1752 92.7256 59.8224 85.0696C58.3264 81.6552 57.4024 78.0736 57.0328 74.36C56.3992 67.848 57.3848 61.6176 60.5176 55.836C62.9728 51.304 66.4224 47.3968 70.7696 44.6072C75.3984 41.6328 80.9072 39.9432 86.3984 39.7056C86.768 39.688 87.1376 39.6792 87.5072 39.6792C91.3792 39.6528 95.2864 40.3392 98.8856 41.7736C104.386 43.9648 108.794 47.4672 111.83 52.5976C113.467 55.3608 114.47 58.3528 114.99 61.512C115.342 63.6416 115.456 65.78 115.35 67.9272C115.254 69.9776 114.963 72.0016 114.567 74.0168C114.488 74.4216 114.426 74.8352 114.347 75.24C114.33 75.3192 114.286 75.3984 114.25 75.4776C114.215 75.4776 114.189 75.4776 114.154 75.4688H114.162Z" fill="url(#paint0_linear_21_432)"/>
<path d="M91.1328 46.4728C91.432 46.5168 91.7312 46.552 92.0216 46.6224C94.0808 47.1328 96.1312 47.6784 98.076 48.5408C102.089 50.3272 105.389 52.9496 107.712 56.716C109.296 59.2856 110.246 62.0752 110.607 65.0672C111.135 69.4056 110.51 73.5768 108.733 77.5632C107.404 80.5552 105.503 83.116 102.872 85.096C101.878 85.844 100.813 86.504 99.6424 86.9264C98.8504 87.2168 97.9968 87.3312 97.1784 87.5336C96.844 87.6128 96.5008 87.692 96.1664 87.7712L96.1488 87.8768C97.0464 88.3168 97.9528 88.7568 98.8504 89.2056C98.8504 89.2496 98.8504 89.2936 98.8416 89.3376C97.6448 89.54 96.448 89.7512 95.2512 89.9536C95.2512 89.9976 95.2512 90.0416 95.2512 90.0768C96.6328 90.3056 98.0056 90.5432 99.3872 90.772C99.3872 90.8072 99.3872 90.8424 99.3872 90.8776C99.2816 90.9128 99.1672 90.9568 99.0616 90.9744C96.7736 91.2472 94.4856 91.52 92.2064 91.8016C92.0656 91.8192 91.9248 91.8632 91.7928 91.8984C91.7928 91.9336 91.7928 91.96 91.784 91.9952C93.06 92.444 94.3448 92.8928 95.6208 93.3416C95.6208 93.3768 95.6208 93.412 95.6208 93.4472C94.688 93.7816 93.6936 93.9048 92.7432 94.2656C95.4272 95.832 98.4104 96.1928 101.446 96.3424C101.446 96.3776 101.446 96.4128 101.446 96.4568C101.314 96.5008 101.191 96.5624 101.05 96.5976C97.1784 97.5128 93.456 97.02 89.8832 95.348C85.6856 93.3944 82.4296 90.3584 79.8776 86.5304C78.2936 84.1456 77.1408 81.576 76.5864 78.7512C76.164 76.5864 76.1552 74.4216 76.7976 72.292C77.2816 70.6992 78.1264 69.3088 79.3144 68.1384C79.4288 68.024 79.5696 67.9448 79.7016 67.8568C79.728 67.8744 79.7632 67.892 79.7896 67.9096C79.7896 68.2 79.8072 68.4904 79.7896 68.7808C79.6928 70.1008 79.728 71.412 79.9216 72.7232C80.608 77.2992 83.0104 80.6168 87.2872 82.4472C90.5344 83.8376 93.896 84.084 97.3016 83.0016C97.8648 82.8256 98.4192 82.5616 98.9032 82.236C103.25 79.244 106.172 75.2488 107.246 70.0392C108.39 64.4864 107.105 59.444 103.69 54.9472C101.385 51.9024 98.3928 49.7024 94.9432 48.1096C93.8696 47.608 92.7344 47.2472 91.6256 46.8248C91.4408 46.7544 91.256 46.684 91.08 46.6136C91.0888 46.5696 91.1064 46.5256 91.1152 46.4816L91.1328 46.4728Z" fill="url(#paint1_linear_21_432)"/>
<path d="M92.84 80.2032C93.1128 80.2912 93.3768 80.388 93.6408 80.476C93.632 80.52 93.6232 80.564 93.6144 80.6168C93.3064 80.564 92.9984 80.5464 92.708 80.4584C91.564 80.1328 90.3936 79.8864 89.3024 79.4376C86.1696 78.144 84.26 75.7768 83.7056 72.4328C83.1688 69.1944 83.8728 66.2288 86.0728 63.7296C86.0816 63.712 86.0992 63.7032 86.108 63.6856C87.2344 62.4184 88.66 61.7056 90.3936 61.6968C90.6136 61.6968 90.8424 61.6176 91.0624 61.5736C90.992 61.468 90.9216 61.3536 90.8512 61.2392C91.652 62.1368 92.8752 63.8792 93.6496 66.748C93.6144 66.6688 93.5792 66.5896 93.5176 66.5368C92.0656 65.252 90.0592 64.724 88.2904 65.5512C88.2112 65.5864 88.132 65.6304 88.0616 65.6656C86.768 66.352 85.9672 67.4872 85.4832 68.86C84.3744 71.9752 85.404 75.4424 88.0616 77.6688C89.4784 78.8568 91.0976 79.6488 92.84 80.1944V80.2032Z" fill="url(#paint2_linear_21_432)"/>
<path d="M97.1345 67.2584C97.1345 68.0064 96.5713 68.64 95.9113 68.7808C95.1017 68.9568 94.3713 68.6752 94.0105 67.9624C93.8433 67.6368 93.8081 67.2496 93.7025 66.8976C93.6849 66.8536 93.6761 66.8008 93.6497 66.748C92.8753 63.8792 91.6521 62.1368 90.8513 61.2392C90.7985 61.1512 90.7369 61.072 90.6577 61.0016C90.5081 60.8608 90.3585 60.7288 90.2001 60.5968C90.2001 60.5968 90.1913 60.5968 90.1825 60.588C90.1385 60.5528 90.1033 60.5176 90.0593 60.4912C88.6337 59.3648 86.9793 58.8016 85.0873 58.8368C82.6673 58.8808 80.5817 59.796 78.7161 61.2568C74.5713 64.504 72.5385 69.8632 72.0545 74.976C71.8521 77.1584 71.9401 79.3672 72.1953 81.5408C72.3273 82.6408 72.5033 83.7232 72.7057 84.8144C72.8025 85.3424 72.9169 85.8704 73.0313 86.3984C73.1457 86.9088 73.3481 87.4632 73.3833 87.9824C72.9081 87.78 72.4945 86.7944 72.2745 86.3456C71.9313 85.6592 71.6585 84.9288 71.4209 84.1984C70.9721 82.8168 70.6553 81.3912 70.4001 79.9656C69.4585 74.6768 69.9865 69.5992 72.5473 64.8208C74.2281 61.6704 76.5953 59.1712 79.7809 57.4992C81.8753 56.3992 84.1017 55.748 86.4953 55.8096C91.4937 55.9416 95.9905 59.6816 96.9497 64.5832C97.1169 65.4544 97.1169 66.3784 97.1169 67.276L97.1345 67.2584Z" fill="url(#paint3_linear_21_432)"/>
<path d="M78.7951 72.336C78.7951 72.336 78.3199 82.4296 90.9831 86.3192L86.5567 86.856L88.6511 87.736L86.3543 88.9504C86.3543 88.9504 87.5687 90.4376 90.3759 92.3912C90.3759 92.3912 84.7351 90.5696 81.1535 85.2984C77.5719 80.0272 77.9415 76.2784 77.9415 76.2784C77.9415 76.2784 77.8359 74.184 78.7863 72.3272L78.7951 72.336Z" fill="url(#paint4_linear_21_432)"/>
<path d="M21.0759 118.263V129.809C21.0759 130.09 21.1199 130.293 21.2079 130.416C21.2959 130.539 21.4719 130.627 21.7359 130.698V131.032H18.7879V130.698C19.0519 130.627 19.2279 130.539 19.3159 130.416C19.4039 130.302 19.4479 130.099 19.4479 129.809V118.263H14.6695C14.3791 118.263 14.1767 118.307 14.0535 118.395C13.9303 118.483 13.8423 118.659 13.7807 118.923H13.4463V116.257H13.7807C13.8423 116.521 13.9303 116.697 14.0535 116.785C14.1767 116.873 14.3791 116.917 14.6695 116.917H25.8455C26.1359 116.917 26.3383 116.873 26.4615 116.785C26.5847 116.697 26.6727 116.521 26.7343 116.257H27.0687V118.923H26.7343C26.6727 118.659 26.5847 118.483 26.4615 118.395C26.3383 118.307 26.1359 118.263 25.8455 118.263H21.0671H21.0759Z" fill="white"/>
<path d="M39.6527 127.072H32.1023L30.8615 129.747C30.7471 130.002 30.6855 130.178 30.6855 130.284C30.6855 130.486 30.8879 130.627 31.3015 130.698V131.032H28.1511V130.698C28.4327 130.654 28.6527 130.548 28.7935 130.39C28.9431 130.231 29.1367 129.888 29.3743 129.36L34.5399 118.202C34.6631 117.929 34.7247 117.753 34.7247 117.656C34.7247 117.48 34.5575 117.339 34.2143 117.251V116.917H37.6463V117.251C37.3119 117.366 37.1359 117.506 37.1359 117.682C37.1359 117.858 37.1975 117.929 37.3207 118.202L42.2751 128.955C42.6447 129.747 42.8823 130.214 42.9967 130.354C43.1111 130.495 43.3663 130.61 43.7623 130.706V131.041H40.4095V130.706C40.8143 130.654 41.0079 130.504 41.0079 130.249C41.0079 129.994 40.9287 129.923 40.7791 129.606L39.6263 127.072H39.6527ZM39.0543 125.726L35.8775 118.756L32.7007 125.726H39.0543Z" fill="white"/>
<path d="M49.975 124.678V129.809C49.975 130.09 50.019 130.293 50.107 130.416C50.195 130.539 50.371 130.627 50.635 130.698V131.032H47.687V130.698C47.951 130.627 48.127 130.539 48.215 130.416C48.303 130.302 48.347 130.099 48.347 129.809V118.14C48.347 117.85 48.303 117.647 48.215 117.524C48.127 117.401 47.951 117.313 47.687 117.251V116.917H55.431C56.4958 116.917 57.3318 116.97 57.9478 117.084C58.5638 117.198 59.1006 117.392 59.5582 117.682C60.0246 117.973 60.403 118.369 60.6934 118.87C61.0278 119.442 61.1862 120.085 61.1862 120.806C61.1862 121.88 60.8254 122.76 60.1126 123.438C59.3998 124.115 58.423 124.502 57.1734 124.599L60.7638 130.17C60.975 130.513 61.2918 130.689 61.6966 130.689V131.023H58.4318V130.689C58.7662 130.636 58.9422 130.539 58.9422 130.398C58.9422 130.258 58.819 130.108 58.5814 129.73L55.3782 124.67H49.9838L49.975 124.678ZM49.975 123.341H55.695C56.4694 123.341 57.059 123.306 57.455 123.244C57.851 123.182 58.203 123.059 58.5022 122.883C59.215 122.47 59.567 121.774 59.567 120.806C59.567 119.838 59.1974 119.134 58.467 118.721C58.1414 118.545 57.7806 118.422 57.3846 118.36C56.9886 118.298 56.3726 118.263 55.5366 118.263H49.9662V123.341H49.975Z" fill="white"/>
<path d="M68.684 124.441V129.686H77.7304C78.0208 129.686 78.2232 129.642 78.3464 129.554C78.4696 129.466 78.5576 129.29 78.6192 129.026H78.9536V131.692H78.6192C78.5488 131.428 78.452 131.252 78.3376 131.164C78.2144 131.076 78.012 131.032 77.7216 131.032H66.4048V130.698C66.6776 130.627 66.8536 130.539 66.9328 130.416C67.0208 130.302 67.0648 130.099 67.0648 129.809V118.14C67.0648 117.85 67.0208 117.647 66.9328 117.533C66.8448 117.418 66.6688 117.322 66.4048 117.251V116.917H77.5984C77.8888 116.917 78.0912 116.873 78.2056 116.785C78.32 116.697 78.4168 116.521 78.4872 116.257H78.8216V118.923H78.4872C78.4256 118.668 78.3376 118.492 78.2144 118.395C78.0912 118.307 77.8888 118.254 77.5984 118.254H68.684V123.094H74.5272C74.8176 123.094 75.02 123.05 75.1432 122.962C75.2664 122.874 75.3544 122.698 75.416 122.434H75.7504V125.101H75.416C75.3544 124.837 75.2664 124.661 75.1432 124.573C75.02 124.485 74.8176 124.441 74.5272 124.441H68.684Z" fill="white"/>
<path d="M86.3544 124.441V129.686H95.4008C95.6912 129.686 95.8936 129.642 96.0168 129.554C96.14 129.466 96.228 129.29 96.2896 129.026H96.624V131.692H96.2896C96.2192 131.428 96.1224 131.252 96.008 131.164C95.8848 131.076 95.6824 131.032 95.392 131.032H84.0752V130.698C84.348 130.627 84.524 130.539 84.6032 130.416C84.6912 130.302 84.7352 130.099 84.7352 129.809V118.14C84.7352 117.85 84.6912 117.647 84.6032 117.533C84.5152 117.418 84.3392 117.322 84.0752 117.251V116.917H95.2688C95.5592 116.917 95.7616 116.873 95.876 116.785C95.9904 116.697 96.0872 116.521 96.1576 116.257H96.492V118.923H96.1576C96.096 118.668 96.008 118.492 95.8848 118.395C95.7616 118.307 95.5592 118.254 95.2688 118.254H86.3544V123.094H92.1976C92.488 123.094 92.6904 123.05 92.8136 122.962C92.9368 122.874 93.0248 122.698 93.0864 122.434H93.4208V125.101H93.0864C93.0248 124.837 92.9368 124.661 92.8136 124.573C92.6904 124.485 92.488 124.441 92.1976 124.441H86.3544Z" fill="white"/>
<path d="M103.884 118.703V129.809C103.884 130.09 103.928 130.293 104.016 130.416C104.104 130.539 104.28 130.627 104.544 130.698V131.032H101.746V130.698C102.018 130.627 102.194 130.539 102.274 130.416C102.362 130.302 102.406 130.099 102.406 129.809V118.14C102.406 117.85 102.362 117.647 102.274 117.524C102.186 117.401 102.01 117.313 101.746 117.251V116.917H105.802V117.251C105.477 117.366 105.318 117.515 105.318 117.718C105.318 117.92 105.477 118.114 105.802 118.492L114.312 128.436V118.14C114.312 117.85 114.268 117.647 114.18 117.524C114.092 117.401 113.916 117.313 113.652 117.251V116.917H116.45V117.251C116.186 117.313 116.01 117.401 115.922 117.524C115.834 117.647 115.79 117.85 115.79 118.14V129.809C115.79 130.099 115.834 130.302 115.922 130.416C116.01 130.53 116.186 130.627 116.45 130.698V131.032H113.194V130.698C113.511 130.618 113.67 130.478 113.67 130.275C113.67 130.073 113.529 129.879 113.238 129.527L103.893 118.703H103.884Z" fill="white"/>
<path d="M122.637 129.809V118.14C122.637 117.85 122.593 117.647 122.505 117.524C122.417 117.401 122.241 117.313 121.977 117.251V116.917H124.925V117.251C124.661 117.322 124.485 117.41 124.397 117.533C124.309 117.647 124.265 117.85 124.265 118.14V129.809C124.265 130.099 124.309 130.302 124.397 130.416C124.485 130.53 124.661 130.627 124.933 130.698V131.032H121.985V130.698C122.258 130.627 122.434 130.539 122.513 130.416C122.601 130.302 122.645 130.099 122.645 129.809H122.637Z" fill="white"/>
<path d="M136.743 118.263V129.809C136.743 130.09 136.787 130.293 136.875 130.416C136.963 130.539 137.139 130.627 137.403 130.698V131.032H134.455V130.698C134.719 130.627 134.895 130.539 134.983 130.416C135.071 130.302 135.115 130.099 135.115 129.809V118.263H130.337C130.046 118.263 129.844 118.307 129.721 118.395C129.598 118.483 129.51 118.659 129.448 118.923H129.114V116.257H129.448C129.51 116.521 129.598 116.697 129.721 116.785C129.844 116.873 130.046 116.917 130.337 116.917H141.513C141.803 116.917 142.006 116.873 142.129 116.785C142.252 116.697 142.34 116.521 142.402 116.257H142.736V118.923H142.402C142.34 118.659 142.252 118.483 142.129 118.395C142.006 118.307 141.803 118.263 141.513 118.263H136.734H136.743Z" fill="white"/>
<path d="M154.299 124.775V129.8C154.299 130.082 154.343 130.284 154.431 130.407C154.519 130.53 154.695 130.627 154.959 130.689V131.023H152.011V130.689C152.275 130.618 152.451 130.53 152.539 130.407C152.627 130.293 152.671 130.09 152.671 129.8V124.775L148.113 118.8C147.62 118.149 147.277 117.744 147.083 117.568C146.89 117.392 146.661 117.286 146.379 117.234V116.899H149.961V117.234C149.635 117.313 149.477 117.454 149.477 117.638C149.477 117.823 149.635 118.202 149.961 118.642L153.542 123.517L157.115 118.474C157.423 118.043 157.573 117.762 157.573 117.603C157.573 117.445 157.423 117.304 157.115 117.234V116.899H160.45V117.234C160.116 117.295 159.826 117.445 159.579 117.691C159.086 118.21 158.761 118.58 158.62 118.8L154.299 124.775Z" fill="white"/>
<defs>
<linearGradient id="paint0_linear_21_432" x1="56.848" y1="72.2216" x2="115.394" y2="72.2216" gradientUnits="userSpaceOnUse">
<stop stop-color="#2EBB3B"/>
<stop offset="0.1" stop-color="#30C73C"/>
<stop offset="0.2" stop-color="#30CE3C"/>
<stop offset="0.3" stop-color="#31D03D"/>
<stop offset="0.4" stop-color="#B5D761"/>
<stop offset="0.7" stop-color="#F6F9F4"/>
<stop offset="1" stop-color="#4D7269"/>
</linearGradient>
<linearGradient id="paint1_linear_21_432" x1="93.5528" y1="97.0376" x2="93.5528" y2="46.4728" gradientUnits="userSpaceOnUse">
<stop stop-color="#2C6738"/>
<stop offset="0.2" stop-color="#3D6C51"/>
<stop offset="0.3" stop-color="#4A7C66"/>
<stop offset="0.4" stop-color="#429759"/>
<stop offset="0.5" stop-color="#32CF3F"/>
<stop offset="1" stop-color="#0E3314"/>
</linearGradient>
<linearGradient id="paint2_linear_21_432" x1="88.5984" y1="61.248" x2="88.5984" y2="80.608" gradientUnits="userSpaceOnUse">
<stop offset="0.2" stop-color="#DFEDBA"/>
<stop offset="0.3" stop-color="#B4D75F"/>
<stop offset="0.7" stop-color="#32CF3F"/>
<stop offset="1" stop-color="#4D7269"/>
</linearGradient>
<linearGradient id="paint3_linear_21_432" x1="69.9777" y1="71.8784" x2="97.1345" y2="71.8784" gradientUnits="userSpaceOnUse">
<stop stop-color="#4D7269"/>
<stop offset="0.2" stop-color="#4C7467"/>
<stop offset="0.4" stop-color="#497C64"/>
<stop offset="0.5" stop-color="#3F9E54"/>
<stop offset="0.6" stop-color="#38B849"/>
<stop offset="0.7" stop-color="#32CF3F"/>
<stop offset="0.9" stop-color="#DFEDBA"/>
</linearGradient>
<linearGradient id="paint4_linear_21_432" x1="84.4623" y1="72.336" x2="84.4623" y2="90.596" gradientUnits="userSpaceOnUse">
<stop offset="0.2" stop-color="#DFEDBA"/>
<stop offset="0.3" stop-color="#B4D75F"/>
<stop offset="0.7" stop-color="#32CF3F"/>
<stop offset="1" stop-color="#4D7269"/>
</linearGradient>
</defs>
</svg>
