<svg width="38" height="38" viewBox="0 0 38 38" fill="none" xmlns="http://www.w3.org/2000/svg">
<path d="M37.5 18.75C37.5 29.1053 29.1053 37.5 18.75 37.5C8.39466 37.5 0 29.1053 0 18.75C0 8.39466 8.39466 0 18.75 0C29.1053 0 37.5 8.39466 37.5 18.75Z" fill="#791680"/>
<path d="M27.8452 26.6077C29.6037 24.5651 30.6667 21.9068 30.6667 19C30.6667 16.0933 29.6037 13.4349 27.8452 11.3922L22.8604 16.3771C23.3692 17.1246 23.6667 18.0276 23.6667 19C23.6667 19.9724 23.3692 20.8754 22.8604 21.6229L27.8452 26.6077Z" fill="white"/>
<path d="M26.6077 27.8452C24.5651 29.6037 21.9067 30.6667 19 30.6667C16.0933 30.6667 13.4348 29.6037 11.3922 27.8452L16.3771 22.8604C17.1246 23.3692 18.0276 23.6667 19 23.6667C19.9724 23.6667 20.8754 23.3692 21.6229 22.8604L26.6077 27.8452Z" fill="white"/>
<path d="M10.1548 26.6077L15.1396 21.6229C14.6308 20.8754 14.3333 19.9724 14.3333 19C14.3333 18.0276 14.6308 17.1246 15.1396 16.3771L10.1548 11.3922C8.39631 13.4349 7.33331 16.0933 7.33331 19C7.33331 21.9068 8.39631 24.5651 10.1548 26.6077Z" fill="white"/>
<path d="M19 14.3333C18.0276 14.3333 17.1246 14.6308 16.3771 15.1397L11.3922 10.1548C13.4348 8.39634 16.0933 7.33334 19 7.33334C21.9067 7.33334 24.5651 8.39634 26.6077 10.1548L21.6229 15.1397C20.8754 14.6308 19.9724 14.3333 19 14.3333Z" fill="white"/>
</svg>
