<svg width="202" height="173" viewBox="0 0 202 173" fill="none" xmlns="http://www.w3.org/2000/svg">
<path d="M36.3309 0.958288L29.3816 46H22.4323L18.5716 19.168H18.4429L14.5178 46H7.56854L0.619243 0.958288H7.63288L11.5579 30.8145H11.6866L15.5474 0.958288H21.5958L25.4565 30.8145H25.5852L29.5103 0.958288H36.3309ZM60.3815 0.958288V7.26413H48.0272V20.0045H58.0007V26.3103H48.0272V39.6942H60.3815V46H41.2066V0.958288H60.3815ZM72.9735 0.958288V39.5655H84.3626V46H66.1529V0.958288H72.9735ZM98.3663 0.314835C105.058 0.314835 108.983 4.30425 108.983 11.1248V15.1786L102.42 15.5003V11.8326C102.42 8.22931 101.069 6.62067 98.5593 6.62067C96.0499 6.62067 94.6986 8.22931 94.6986 11.1892V35.7691C94.6986 38.729 96.0499 40.3376 98.5593 40.3376C101.069 40.3376 102.42 38.729 102.42 35.1256V30.1067L108.983 30.4284V35.8334C108.983 42.654 105.058 46.6435 98.3663 46.6435C91.7387 46.6435 87.878 42.654 87.878 35.8334V11.1248C87.878 4.30425 91.7387 0.314835 98.3663 0.314835ZM125.21 0.314835C132.03 0.314835 136.213 4.62597 136.213 11.704V35.2543C136.213 42.3323 132.03 46.6435 125.21 46.6435C118.389 46.6435 114.207 42.3323 114.207 35.2543V11.704C114.207 4.62597 118.389 0.314835 125.21 0.314835ZM125.21 6.62067C122.507 6.62067 121.027 8.42234 121.027 11.7683V35.19C121.027 38.5359 122.507 40.3376 125.21 40.3376C127.912 40.3376 129.392 38.5359 129.392 35.19V11.7683C129.392 8.42234 127.912 6.62067 125.21 6.62067ZM171.705 0.958288V46H164.885V14.7282H164.756L159.094 39.5655H155.04L149.378 14.7282H149.249V46H142.814V0.958288H151.758L157.099 25.1521H157.228L162.504 0.958288H171.705ZM198.246 0.958288V7.26413H185.892V20.0045H195.866V26.3103H185.892V39.6942H198.246V46H179.071V0.958288H198.246ZM36.9299 57.9444V66.5238H27.2352V118H18.1411V66.5238H8.44642V57.9444H36.9299ZM56.198 57.0865C65.2921 57.0865 70.8687 62.8346 70.8687 72.2719V103.672C70.8687 113.11 65.2921 118.858 56.198 118.858C47.1039 118.858 41.5273 113.11 41.5273 103.672V72.2719C41.5273 62.8346 47.1039 57.0865 56.198 57.0865ZM56.198 65.4942C52.5947 65.4942 50.6214 67.8965 50.6214 72.3577V103.587C50.6214 108.048 52.5947 110.45 56.198 110.45C59.8013 110.45 61.7746 108.048 61.7746 103.587V72.3577C61.7746 67.8965 59.8013 65.4942 56.198 65.4942ZM119.289 57.9444V66.5238H109.594V118H100.5V66.5238H90.805V57.9444H119.289ZM154.079 57.9444V118H144.985V91.8329H134.175V118H125.081V57.9444H134.175V83.2535H144.985V57.9444H154.079ZM189.439 57.9444V66.3522H172.967V83.3393H186.265V91.7471H172.967V109.592H189.439V118H163.872V57.9444H189.439ZM32.1809 126.958V133.393H24.9098V172H18.0892V133.393H10.8182V126.958H32.1809ZM57.2444 126.958V161.898C57.2444 168.976 53.1906 172.643 46.6274 172.643C40.1929 172.643 36.1391 168.976 36.1391 161.898V126.958H42.7023V161.705C42.7023 164.986 44.1823 166.209 46.563 166.209C48.9438 166.209 50.4238 164.986 50.4238 161.705V126.958H57.2444ZM82.5763 126.958V133.393H75.3053V172H68.4847V133.393H61.2137V126.958H82.5763ZM97.0273 126.315C103.848 126.315 108.03 130.626 108.03 137.704V161.254C108.03 168.332 103.848 172.643 97.0273 172.643C90.2067 172.643 86.0243 168.332 86.0243 161.254V137.704C86.0243 130.626 90.2067 126.315 97.0273 126.315ZM97.0273 132.621C94.3248 132.621 92.8449 134.422 92.8449 137.768V161.19C92.8449 164.536 94.3248 166.338 97.0273 166.338C99.7298 166.338 101.21 164.536 101.21 161.19V137.768C101.21 134.422 99.7298 132.621 97.0273 132.621ZM137.217 172H130.01L124.605 152.954H121.452V172H114.632V126.958H124.477C131.812 126.958 135.801 130.948 135.801 138.347V141.565C135.801 146.326 134.128 149.672 130.976 151.474L137.217 172ZM124.219 133.264H121.452V146.648H124.219C127.501 146.648 128.981 144.911 128.981 141.114V138.798C128.981 135.001 127.501 133.264 124.219 133.264ZM148.975 126.958V172H142.154V126.958H148.975ZM170.32 126.958L178.106 172H171.157L169.677 161.769H162.148L160.668 172H153.848L161.634 126.958H170.32ZM166.009 136.61H165.816L163.049 155.592H168.776L166.009 136.61ZM189.819 126.958V165.565H201.208V172H182.999V126.958H189.819Z" fill="white"/>
</svg>
